<svg width="48" height="48" viewBox="0 0 48 48" fill="none" xmlns="http://www.w3.org/2000/svg">
<path d="M25.125 18.375C25.125 17.7563 24.6187 17.25 24 17.25C23.3813 17.25 22.875 17.7562 22.875 18.375C22.875 18.9937 23.3812 19.5 24 19.5C24.6187 19.5 25.125 18.9937 25.125 18.375ZM25.125 29.625C25.125 29.0063 24.6187 28.5 24 28.5C23.3812 28.5 22.875 29.0063 22.875 29.625C22.875 30.2437 23.3812 30.75 24 30.75C24.6187 30.75 25.125 30.2437 25.125 29.625ZM25.125 24C25.125 23.3812 24.6187 22.875 24 22.875C23.3812 22.875 22.875 23.3812 22.875 24C22.875 24.6187 23.3812 25.125 24 25.125C24.6187 25.125 25.125 24.6188 25.125 24Z" fill="#4F4F4F"/>
</svg>
