<svg width="24" height="24" viewBox="0 0 24 24" fill="none" xmlns="http://www.w3.org/2000/svg">
<path d="M21 11.646V21C21 21.2652 20.8946 21.5196 20.7071 21.7071C20.5196 21.8946 20.2652 22 20 22H4C3.73479 22 3.48043 21.8946 3.2929 21.7071C3.10536 21.5196 3 21.2652 3 21V11.646C2.35432 10.916 1.99856 9.97461 2 9V3C2 2.73478 2.10536 2.48043 2.2929 2.29289C2.48043 2.10536 2.73479 2 3 2H21C21.2652 2 21.5196 2.10536 21.7071 2.29289C21.8946 2.48043 22 2.73478 22 3V9C22 10.014 21.622 10.94 21 11.646ZM19 12.874C18.2849 13.0577 17.5328 13.0403 16.827 12.8236C16.1211 12.6069 15.4889 12.1994 15 11.646C14.625 12.0721 14.1635 12.4133 13.6461 12.6468C13.1288 12.8802 12.5676 13.0007 12 13C11.4324 13.0007 10.8712 12.8802 10.3539 12.6468C9.83655 12.4133 9.37498 12.0721 9 11.646C8.51232 12.2009 7.88013 12.6096 7.17389 12.8264C6.46764 13.0432 5.71507 13.0597 5 12.874V20H19V12.874ZM14 9C14 8.73478 14.1054 8.48043 14.2929 8.29289C14.4804 8.10536 14.7348 8 15 8C15.2652 8 15.5196 8.10536 15.7071 8.29289C15.8946 8.48043 16 8.73478 16 9C16 9.53043 16.2107 10.0391 16.5858 10.4142C16.9609 10.7893 17.4696 11 18 11C18.5304 11 19.0391 10.7893 19.4142 10.4142C19.7893 10.0391 20 9.53043 20 9V4H4V9C4 9.53043 4.21072 10.0391 4.58579 10.4142C4.96086 10.7893 5.46957 11 6 11C6.53044 11 7.03914 10.7893 7.41422 10.4142C7.78929 10.0391 8 9.53043 8 9C8 8.73478 8.10536 8.48043 8.2929 8.29289C8.48043 8.10536 8.73479 8 9 8C9.26522 8 9.51957 8.10536 9.70711 8.29289C9.89465 8.48043 10 8.73478 10 9C10 9.53043 10.2107 10.0391 10.5858 10.4142C10.9609 10.7893 11.4696 11 12 11C12.5304 11 13.0391 10.7893 13.4142 10.4142C13.7893 10.0391 14 9.53043 14 9Z" fill="#554338"/>
</svg>
