<svg width="14" height="14" viewBox="0 0 14 14" fill="none" xmlns="http://www.w3.org/2000/svg">
<g clip-path="url(#clip0_1291_36)">
<path d="M3.70374 13.1769L7.90061e-06 14.0001L0.823215 10.2964C0.281082 9.28234 -0.00172331 8.14992 7.90061e-06 7.00006C7.90061e-06 3.13393 3.13393 0 7.00006 0C10.8662 0 14.0001 3.13393 14.0001 7.00006C14.0001 10.8662 10.8662 14.0001 7.00006 14.0001C5.8502 14.0018 4.71778 13.719 3.70374 13.1769ZM3.90674 11.6978L4.36384 11.9428C5.17483 12.3762 6.08053 12.602 7.00006 12.6001C8.10765 12.6001 9.19036 12.2717 10.1113 11.6563C11.0322 11.041 11.75 10.1664 12.1738 9.1431C12.5977 8.11983 12.7086 6.99384 12.4925 5.90754C12.2764 4.82124 11.7431 3.82341 10.9599 3.04023C10.1767 2.25705 9.17888 1.72369 8.09258 1.50761C7.00628 1.29154 5.88029 1.40244 4.85702 1.82629C3.83375 2.25014 2.95914 2.96792 2.3438 3.88884C1.72846 4.80976 1.40002 5.89247 1.40002 7.00006C1.40002 7.93386 1.62752 8.83267 2.05802 9.63628L2.30233 10.0934L1.84382 12.1563L3.90674 11.6978Z" fill="#FD774C"/>
</g>
<defs>
<clipPath id="clip0_1291_36">
<rect width="14" height="14" fill="white"/>
</clipPath>
</defs>
</svg>
