<svg width="28" height="28" viewBox="0 0 28 28" fill="none" xmlns="http://www.w3.org/2000/svg">
<circle cx="14" cy="14" r="13.4615" fill="white" stroke="#BDBDBD" stroke-width="1.07692"/>
<path d="M11.4999 6.5H16.4999L18.1666 8.16666H21.4999C21.7209 8.16666 21.9329 8.25446 22.0892 8.41074C22.2454 8.56702 22.3332 8.77898 22.3332 8.99999V20.6666C22.3332 20.8876 22.2454 21.0996 22.0892 21.2559C21.9329 21.4122 21.7209 21.5 21.4999 21.5H6.49996C6.27894 21.5 6.06698 21.4122 5.9107 21.2559C5.75442 21.0996 5.66663 20.8876 5.66663 20.6666V8.99999C5.66663 8.77898 5.75442 8.56702 5.9107 8.41074C6.06698 8.25446 6.27894 8.16666 6.49996 8.16666H9.83328L11.4999 6.5ZM13.9999 19.8333C15.326 19.8333 16.5978 19.3065 17.5355 18.3688C18.4731 17.4312 18.9999 16.1594 18.9999 14.8333C18.9999 13.5072 18.4731 12.2355 17.5355 11.2978C16.5978 10.3601 15.326 9.83332 13.9999 9.83332C12.6739 9.83332 11.4021 10.3601 10.4644 11.2978C9.52673 12.2355 8.99995 13.5072 8.99995 14.8333C8.99995 16.1594 9.52673 17.4312 10.4644 18.3688C11.4021 19.3065 12.6739 19.8333 13.9999 19.8333ZM13.9999 18.1666C13.1159 18.1666 12.268 17.8154 11.6429 17.1903C11.0178 16.5652 10.6666 15.7174 10.6666 14.8333C10.6666 13.9493 11.0178 13.1014 11.6429 12.4763C12.268 11.8512 13.1159 11.5 13.9999 11.5C14.884 11.5 15.7318 11.8512 16.3569 12.4763C16.9821 13.1014 17.3333 13.9493 17.3333 14.8333C17.3333 15.7174 16.9821 16.5652 16.3569 17.1903C15.7318 17.8154 14.884 18.1666 13.9999 18.1666Z" fill="#828282"/>
</svg>
