<svg width="375" height="362" viewBox="0 0 375 362" fill="none" xmlns="http://www.w3.org/2000/svg">
<g opacity="0.9">
<circle cx="148.328" cy="188.328" r="29.1581" transform="rotate(-32.7155 148.328 188.328)" fill="#FD774C" stroke="black" stroke-width="1.5"/>
<circle cx="148.328" cy="188.532" r="24.6244" transform="rotate(-32.7155 148.328 188.532)" stroke="black" stroke-width="1.5"/>
<path d="M135.728 189.971C135.571 189.748 135.383 189.566 135.162 189.425C134.95 189.279 134.717 189.154 134.463 189.049C133.942 188.835 133.448 188.741 132.98 188.768C132.507 188.787 132.033 188.909 131.556 189.134C131.397 189.209 131.244 189.297 131.097 189.397C130.955 189.485 130.814 189.587 130.675 189.704C130.552 189.813 130.43 189.922 130.307 190.031C130.189 190.128 130.077 190.248 129.97 190.39C129.651 190.817 129.489 191.298 129.485 191.832C129.482 192.366 129.593 192.871 129.818 193.348C129.941 193.607 130.09 193.858 130.267 194.102C130.44 194.338 130.644 194.533 130.881 194.687C131.118 194.841 131.409 194.939 131.756 194.979C132.107 195.008 132.473 195.004 132.855 194.967C133.236 194.929 133.604 194.873 133.957 194.799C134.319 194.72 134.629 194.65 134.887 194.589C135.145 194.529 135.415 194.462 135.698 194.39C135.986 194.305 136.261 194.293 136.525 194.353C136.788 194.412 137.013 194.541 137.199 194.74C137.393 194.935 137.548 195.153 137.662 195.396C137.714 195.504 137.761 195.615 137.804 195.728C137.843 195.832 137.867 195.949 137.877 196.077C137.892 196.305 137.844 196.517 137.732 196.713C137.62 196.909 137.476 197.09 137.298 197.256C137.129 197.418 136.942 197.563 136.736 197.691C136.539 197.814 136.353 197.918 136.177 198.001C135.817 198.171 135.452 198.297 135.082 198.38C134.891 198.43 134.704 198.467 134.521 198.492C134.343 198.505 134.169 198.494 134 198.462C133.84 198.425 133.688 198.353 133.546 198.247C133.412 198.136 133.293 197.972 133.19 197.755C133.163 197.696 133.141 197.64 133.126 197.586C133.107 197.523 133.081 197.459 133.049 197.392C132.974 197.233 132.861 197.133 132.709 197.092C132.565 197.048 132.422 197.059 132.279 197.126C132.137 197.194 132.038 197.276 131.982 197.374C131.926 197.472 131.897 197.583 131.894 197.708C131.896 197.819 131.916 197.938 131.955 198.063C131.993 198.188 132.04 198.309 132.096 198.426C132.309 198.877 132.604 199.219 132.979 199.451C133.355 199.683 133.784 199.802 134.268 199.808C134.442 199.808 134.614 199.793 134.785 199.764C134.955 199.735 135.128 199.699 135.302 199.658C135.523 199.604 135.737 199.539 135.946 199.461C136.167 199.387 136.382 199.301 136.591 199.202C137.026 198.996 137.429 198.745 137.8 198.447C138.183 198.153 138.484 197.816 138.703 197.436C138.935 197.061 139.066 196.645 139.097 196.191C139.128 195.736 139.019 195.246 138.77 194.719C138.647 194.46 138.499 194.222 138.326 194.008C138.153 193.793 137.954 193.61 137.73 193.461C137.514 193.307 137.276 193.194 137.017 193.122C136.763 193.038 136.494 193.001 136.213 193.011C135.973 193.022 135.738 193.056 135.509 193.113C135.28 193.17 135.047 193.229 134.81 193.29C134.423 193.381 134.034 193.468 133.643 193.55C133.261 193.629 132.873 193.674 132.48 193.686C132.368 193.687 132.221 193.68 132.04 193.664C131.858 193.647 131.722 193.619 131.632 193.58C131.484 193.506 131.348 193.381 131.224 193.205C131.096 193.02 130.996 192.852 130.925 192.702C130.822 192.484 130.751 192.236 130.712 191.958C130.681 191.676 130.727 191.429 130.852 191.216C130.912 191.127 130.982 191.048 131.062 190.979C131.151 190.907 131.235 190.836 131.315 190.767C131.421 190.687 131.522 190.608 131.618 190.532C131.724 190.452 131.835 190.384 131.952 190.328C132.404 190.115 132.881 190.043 133.384 190.112C133.884 190.172 134.324 190.389 134.705 190.762C134.802 190.859 134.912 190.919 135.036 190.943C135.159 190.966 135.28 190.95 135.397 190.895C135.48 190.855 135.552 190.801 135.611 190.732C135.679 190.659 135.729 190.58 135.76 190.493C135.799 190.403 135.813 190.314 135.803 190.227C135.801 190.136 135.776 190.051 135.728 189.971ZM143.948 188.158C143.837 187.924 143.653 187.816 143.396 187.836C143.334 187.834 143.194 187.885 142.977 187.988C142.764 188.078 142.528 188.185 142.268 188.307C142.009 188.43 141.764 188.551 141.534 188.67C141.3 188.78 141.137 188.857 141.045 188.901L140.97 188.936C140.868 188.657 140.769 188.382 140.671 188.11C140.57 187.831 140.468 187.551 140.367 187.272C140.328 187.168 140.289 187.063 140.25 186.959C140.207 186.846 140.164 186.744 140.12 186.652C140.045 186.493 139.931 186.393 139.779 186.353C139.631 186.3 139.486 186.307 139.344 186.374C139.219 186.433 139.119 186.526 139.046 186.653C138.973 186.78 138.939 186.913 138.944 187.054C138.951 187.112 138.968 187.191 138.995 187.291C139.026 187.379 139.061 187.475 139.1 187.579C139.148 187.679 139.191 187.782 139.23 187.886C139.273 187.978 139.305 188.055 139.324 188.118C139.41 188.343 139.492 188.571 139.57 188.8C139.652 189.017 139.736 189.238 139.822 189.463L138.894 189.871L138.192 190.203C138.024 190.282 137.908 190.414 137.842 190.599C137.775 190.784 137.782 190.96 137.861 191.127C137.972 191.361 138.157 191.473 138.418 191.462C138.447 191.459 138.518 191.435 138.631 191.392C138.752 191.345 138.898 191.287 139.069 191.216C139.245 191.133 139.435 191.048 139.64 190.962C139.849 190.863 140.058 190.764 140.267 190.665C140.439 191.137 140.619 191.604 140.807 192.067C141.004 192.527 141.211 192.987 141.428 193.447C141.527 193.656 141.628 193.859 141.731 194.056C141.835 194.252 141.944 194.441 142.06 194.622C142.2 194.852 142.347 195.054 142.5 195.227C142.653 195.4 142.82 195.536 143 195.636C143.18 195.735 143.377 195.785 143.593 195.785C143.808 195.786 144.045 195.725 144.304 195.602C144.413 195.551 144.547 195.467 144.707 195.351C144.879 195.238 145.044 195.11 145.2 194.964C145.369 194.823 145.521 194.68 145.656 194.534C145.792 194.388 145.88 194.259 145.919 194.148C145.998 193.968 145.994 193.786 145.907 193.602C145.831 193.443 145.718 193.343 145.566 193.303C145.418 193.25 145.273 193.257 145.131 193.324C145.055 193.36 144.977 193.422 144.897 193.511C144.816 193.6 144.727 193.704 144.629 193.822C144.528 193.931 144.415 194.041 144.293 194.15C144.171 194.259 144.038 194.347 143.896 194.414C143.863 194.43 143.819 194.445 143.765 194.461C143.719 194.472 143.68 194.475 143.647 194.47C143.573 194.444 143.481 194.359 143.373 194.216C143.26 194.065 143.146 193.899 143.03 193.718C142.922 193.534 142.821 193.351 142.726 193.171C142.639 192.987 142.577 192.858 142.542 192.782C142.332 192.339 142.135 191.9 141.95 191.466C141.77 191.019 141.593 190.57 141.421 190.12L141.685 189.995L143.617 189.082C143.784 189.003 143.901 188.871 143.967 188.686C144.033 188.501 144.027 188.325 143.948 188.158ZM146.947 187.385C147.114 187.306 147.296 187.246 147.491 187.205C147.683 187.155 147.873 187.137 148.063 187.149C148.262 187.158 148.451 187.201 148.632 187.28C148.816 187.346 148.977 187.459 149.115 187.619L149.223 187.752C148.983 187.784 148.76 187.833 148.556 187.899C148.356 187.952 148.198 188.007 148.081 188.062C147.738 188.224 147.422 188.445 147.135 188.724C146.843 188.995 146.611 189.304 146.438 189.652C146.264 190 146.163 190.37 146.134 190.762C146.113 191.151 146.193 191.538 146.375 191.922C146.573 192.341 146.825 192.646 147.131 192.839C147.437 193.032 147.765 193.143 148.116 193.171C148.48 193.204 148.847 193.169 149.217 193.065C149.592 192.97 149.947 192.844 150.281 192.685C150.473 192.594 150.664 192.489 150.853 192.369C151.042 192.249 151.223 192.123 151.395 191.99C151.644 191.801 151.827 191.627 151.947 191.468C152.07 191.318 152.138 191.158 152.15 190.989C152.17 190.815 152.149 190.631 152.088 190.435C152.022 190.231 151.924 189.991 151.793 189.715C151.647 189.405 151.49 189.106 151.323 188.816C151.16 188.515 150.992 188.215 150.821 187.918C150.682 187.666 150.538 187.417 150.391 187.17C150.251 186.918 150.079 186.693 149.872 186.494C149.649 186.282 149.396 186.125 149.113 186.024C148.834 185.91 148.543 185.848 148.241 185.837C147.948 185.822 147.654 185.849 147.358 185.917C147.059 185.976 146.78 186.067 146.52 186.19C146.328 186.281 146.148 186.387 145.98 186.507C145.807 186.619 145.639 186.74 145.475 186.868C145.387 186.941 145.29 187.017 145.184 187.098C145.084 187.166 144.995 187.249 144.918 187.346C144.842 187.444 144.79 187.55 144.762 187.666C144.743 187.777 144.767 187.904 144.834 188.046C144.91 188.205 145.021 188.311 145.169 188.364C145.321 188.404 145.468 188.391 145.61 188.324C145.694 188.284 145.768 188.234 145.831 188.174C145.894 188.113 145.962 188.05 146.034 187.986C146.173 187.869 146.316 187.76 146.463 187.66C146.619 187.556 146.78 187.464 146.947 187.385ZM150.875 190.824C150.718 190.969 150.554 191.098 150.382 191.21C150.214 191.31 150.034 191.405 149.842 191.496C149.666 191.579 149.464 191.66 149.234 191.737C149.005 191.815 148.781 191.86 148.561 191.871C148.338 191.875 148.129 191.835 147.937 191.752C147.74 191.661 147.585 191.494 147.47 191.251C147.383 191.067 147.348 190.884 147.364 190.703C147.38 190.542 147.423 190.394 147.492 190.259C147.565 190.111 147.655 189.977 147.762 189.855C147.864 189.725 147.98 189.614 148.11 189.521C148.237 189.421 148.367 189.339 148.501 189.275C148.668 189.196 148.853 189.134 149.057 189.089C149.261 189.044 149.454 189.019 149.636 189.015C149.764 189.026 149.884 189.041 149.995 189.06C150.115 189.27 150.232 189.485 150.347 189.707C150.467 189.917 150.58 190.135 150.686 190.36C150.718 190.427 150.749 190.505 150.781 190.592C150.82 190.676 150.851 190.753 150.875 190.824ZM153.617 190.264C153.689 190.415 153.796 190.512 153.94 190.557C154.092 190.598 154.239 190.584 154.382 190.517C154.49 190.466 154.585 190.375 154.667 190.244C154.766 190.085 154.802 189.945 154.776 189.824C154.749 189.704 154.703 189.562 154.636 189.399L154.126 188.32C154.087 188.237 154.013 188.092 153.906 187.887C153.807 187.678 153.688 187.437 153.549 187.165C153.419 186.889 153.272 186.601 153.109 186.299C152.951 185.985 152.802 185.692 152.663 185.42C152.744 185.31 152.832 185.202 152.925 185.097C153.023 184.979 153.151 184.883 153.31 184.808C153.444 184.744 153.596 184.708 153.765 184.7C153.935 184.691 154.081 184.729 154.204 184.815C154.248 184.845 154.323 184.938 154.427 185.093C154.54 185.244 154.66 185.433 154.787 185.66C154.923 185.882 155.064 186.127 155.211 186.395C155.355 186.655 155.49 186.908 155.617 187.155C155.748 187.39 155.865 187.606 155.969 187.802C156.072 187.999 156.147 188.137 156.195 188.217C156.219 188.267 156.255 188.343 156.302 188.443C156.354 188.531 156.404 188.625 156.451 188.726C156.507 188.822 156.561 188.914 156.612 189.002C156.664 189.09 156.707 189.147 156.739 189.173C156.926 189.33 157.136 189.353 157.371 189.242C157.538 189.163 157.657 189.036 157.727 188.859C157.797 188.683 157.792 188.511 157.713 188.344C157.646 188.202 157.575 188.061 157.499 187.923C157.42 187.777 157.342 187.634 157.267 187.496C157.02 187.039 156.776 186.587 156.533 186.139C156.291 185.691 156.038 185.242 155.775 184.794C155.715 184.689 155.659 184.593 155.607 184.505C155.551 184.408 155.493 184.318 155.433 184.234C155.498 184.09 155.578 183.945 155.672 183.798C155.767 183.651 155.923 183.527 156.14 183.424C156.274 183.361 156.407 183.318 156.54 183.296C156.673 183.274 156.811 183.296 156.955 183.361C157.077 183.426 157.213 183.551 157.362 183.736C157.516 183.909 157.672 184.122 157.832 184.374C157.992 184.626 158.152 184.898 158.311 185.191C158.466 185.476 158.615 185.759 158.758 186.039C158.9 186.32 159.029 186.581 159.144 186.824C159.258 187.066 159.349 187.259 159.416 187.401C159.464 187.501 159.513 187.595 159.565 187.683C159.621 187.78 159.684 187.858 159.753 187.917C159.826 187.985 159.912 188.026 160.011 188.041C160.11 188.055 160.222 188.033 160.347 187.974C160.514 187.895 160.633 187.767 160.703 187.591C160.773 187.414 160.769 187.242 160.69 187.075C160.472 186.615 160.253 186.161 160.031 185.714C159.805 185.257 159.569 184.812 159.322 184.376C159.123 184.02 158.911 183.669 158.687 183.325C158.463 182.981 158.211 182.696 157.93 182.47C157.654 182.232 157.339 182.085 156.984 182.027C156.626 181.961 156.208 182.041 155.731 182.266C155.463 182.393 155.222 182.563 155.006 182.778C154.79 182.993 154.611 183.231 154.469 183.492C154.23 183.421 153.962 183.405 153.663 183.444C153.364 183.482 153.106 183.553 152.888 183.656C152.78 183.707 152.645 183.791 152.486 183.908C152.334 184.02 152.186 184.152 152.042 184.301C151.994 184.242 151.97 184.213 151.97 184.213C151.885 184.141 151.784 184.101 151.668 184.095C151.549 184.08 151.439 184.096 151.338 184.143C151.171 184.222 151.052 184.35 150.982 184.526C150.912 184.703 150.917 184.875 150.996 185.042C151.067 185.192 151.142 185.341 151.222 185.488C151.297 185.626 151.375 185.768 151.454 185.915L152.383 187.686C152.606 188.113 152.813 188.542 153.007 188.972C153.208 189.399 153.412 189.829 153.617 190.264ZM164.296 189.254C164.464 189.175 164.582 189.047 164.653 188.87C164.723 188.694 164.718 188.522 164.639 188.355C164.548 188.163 164.455 187.976 164.36 187.796C164.264 187.616 164.163 187.434 164.055 187.25L163.268 185.78C163.667 185.714 164.042 185.598 164.393 185.432C164.728 185.274 165.028 185.076 165.294 184.837C165.573 184.604 165.802 184.342 165.982 184.052C166.167 183.75 166.296 183.428 166.37 183.086C166.439 182.736 166.446 182.37 166.388 181.988C166.351 181.78 166.297 181.58 166.227 181.388C166.165 181.192 166.089 180.998 165.998 180.806C165.836 180.463 165.628 180.142 165.374 179.842C164.878 179.248 164.326 178.869 163.717 178.707C163.112 178.532 162.455 178.613 161.744 178.949C161.509 179.06 161.293 179.198 161.095 179.363C160.905 179.524 160.716 179.685 160.526 179.847C160.492 179.883 160.452 179.918 160.406 179.95C160.359 179.982 160.315 180.018 160.273 180.058C160.106 179.922 159.91 179.908 159.684 180.014C159.517 180.093 159.398 180.221 159.328 180.398C159.258 180.574 159.262 180.746 159.341 180.913C159.484 181.214 159.63 181.513 159.781 181.81C159.94 182.104 160.095 182.399 160.245 182.696C160.408 183.018 160.568 183.347 160.726 183.681C160.881 184.007 161.043 184.33 161.214 184.648C161.254 184.732 161.339 184.901 161.47 185.156C161.605 185.399 161.756 185.686 161.922 186.017C162.097 186.343 162.28 186.687 162.471 187.047C162.665 187.415 162.846 187.755 163.013 188.064C163.18 188.374 163.321 188.63 163.437 188.831C163.556 189.041 163.626 189.156 163.646 189.177C163.837 189.343 164.054 189.368 164.296 189.254ZM162.14 180.112C162.608 179.891 163.021 179.844 163.378 179.972C163.744 180.096 164.086 180.344 164.405 180.715C164.501 180.833 164.59 180.955 164.67 181.081C164.758 181.203 164.836 181.335 164.903 181.477C165.188 182.079 165.267 182.625 165.14 183.115C165.009 183.596 164.63 183.985 164.003 184.281C163.836 184.36 163.656 184.425 163.465 184.474C163.282 184.52 163.101 184.549 162.923 184.562C162.873 184.565 162.824 184.568 162.774 184.571C162.72 184.565 162.668 184.564 162.619 184.567C162.377 184.098 162.143 183.636 161.917 183.18C161.696 182.712 161.464 182.243 161.222 181.774C161.166 181.657 161.109 181.546 161.049 181.441C160.994 181.324 160.938 181.207 160.883 181.09C160.892 181.086 160.896 181.084 160.896 181.084C160.9 181.072 160.906 181.064 160.915 181.06C161.096 180.902 161.292 180.733 161.503 180.551C161.71 180.361 161.923 180.215 162.14 180.112Z" fill="#121212"/>
</g>
<g opacity="0.7">
<circle cx="232.175" cy="132.175" r="25.9982" transform="rotate(13.4717 232.175 132.175)" fill="#FD774C" stroke="black" stroke-width="1.5"/>
<circle cx="232.184" cy="132.124" r="21.9435" transform="rotate(13.4717 232.184 132.124)" stroke="black" stroke-width="1.5"/>
<path d="M223.539 124.294C223.586 124.055 223.587 123.821 223.542 123.591C223.505 123.364 223.441 123.136 223.351 122.907C223.167 122.439 222.922 122.061 222.614 121.776C222.31 121.483 221.938 121.252 221.497 121.084C221.35 121.028 221.199 120.983 221.043 120.95C220.898 120.913 220.745 120.885 220.583 120.868C220.437 120.856 220.291 120.845 220.145 120.833C220.009 120.817 219.862 120.819 219.704 120.838C219.231 120.896 218.82 121.09 218.474 121.418C218.127 121.746 217.87 122.13 217.701 122.571C217.61 122.811 217.54 123.063 217.492 123.328C217.447 123.585 217.448 123.838 217.495 124.086C217.542 124.334 217.66 124.583 217.848 124.832C218.047 125.076 218.277 125.31 218.537 125.533C218.797 125.756 219.061 125.959 219.328 126.141C219.603 126.325 219.84 126.482 220.038 126.611C220.237 126.74 220.447 126.873 220.669 127.011C220.902 127.144 221.081 127.314 221.205 127.521C221.33 127.728 221.386 127.953 221.373 128.196C221.367 128.442 221.322 128.677 221.236 128.901C221.198 129.002 221.156 129.101 221.11 129.198C221.067 129.288 221.007 129.376 220.93 129.462C220.792 129.613 220.625 129.713 220.43 129.762C220.234 129.812 220.027 129.83 219.81 129.818C219.601 129.809 219.392 129.778 219.182 129.725C218.98 129.674 218.798 129.618 218.635 129.556C218.303 129.429 217.996 129.272 217.713 129.084C217.562 128.991 217.423 128.894 217.293 128.791C217.175 128.684 217.074 128.566 216.99 128.437C216.915 128.31 216.867 128.168 216.848 128.01C216.836 127.855 216.868 127.677 216.945 127.476C216.966 127.422 216.989 127.373 217.014 127.33C217.043 127.279 217.069 127.222 217.092 127.16C217.148 127.013 217.142 126.878 217.074 126.755C217.014 126.635 216.918 126.549 216.787 126.499C216.655 126.449 216.541 126.436 216.443 126.461C216.345 126.485 216.255 126.535 216.173 126.61C216.102 126.681 216.038 126.767 215.981 126.869C215.925 126.971 215.876 127.077 215.834 127.185C215.675 127.602 215.637 128.004 215.72 128.39C215.803 128.776 215.992 129.127 216.287 129.443C216.395 129.555 216.511 129.657 216.636 129.749C216.76 129.841 216.89 129.93 217.025 130.017C217.196 130.127 217.371 130.224 217.55 130.311C217.735 130.408 217.924 130.493 218.117 130.567C218.519 130.72 218.931 130.824 219.353 130.879C219.779 130.944 220.183 130.93 220.564 130.837C220.95 130.754 221.299 130.581 221.612 130.32C221.924 130.058 222.173 129.684 222.359 129.197C222.45 128.957 222.512 128.715 222.543 128.47C222.575 128.226 222.569 127.984 222.527 127.747C222.493 127.512 222.419 127.289 222.305 127.077C222.201 126.861 222.059 126.665 221.878 126.49C221.722 126.341 221.555 126.211 221.376 126.099C221.198 125.986 221.015 125.873 220.829 125.757C220.531 125.564 220.234 125.366 219.939 125.165C219.652 124.967 219.383 124.745 219.131 124.498C219.061 124.427 218.975 124.328 218.873 124.2C218.771 124.073 218.705 123.968 218.674 123.885C218.631 123.745 218.627 123.58 218.664 123.39C218.704 123.193 218.75 123.024 218.804 122.885C218.88 122.684 218.996 122.485 219.151 122.287C219.314 122.093 219.503 121.97 219.717 121.919C219.812 121.902 219.907 121.898 220 121.907C220.102 121.92 220.2 121.93 220.294 121.94C220.411 121.958 220.524 121.974 220.633 121.99C220.75 122.008 220.863 122.037 220.971 122.079C221.389 122.238 221.731 122.501 221.998 122.869C222.268 123.229 222.401 123.647 222.396 124.123C222.393 124.246 222.423 124.355 222.484 124.449C222.545 124.544 222.63 124.611 222.738 124.653C222.816 124.682 222.895 124.695 222.976 124.69C223.066 124.689 223.147 124.672 223.222 124.638C223.305 124.608 223.371 124.562 223.421 124.501C223.478 124.444 223.518 124.375 223.539 124.294ZM229.799 128.477C229.882 128.26 229.837 128.075 229.666 127.921C229.628 127.88 229.509 127.821 229.308 127.745C229.118 127.663 228.903 127.577 228.663 127.485C228.423 127.394 228.194 127.311 227.975 127.236C227.758 127.153 227.607 127.096 227.522 127.063L227.453 127.037C227.57 126.798 227.687 126.563 227.801 126.333C227.919 126.094 228.036 125.856 228.154 125.617C228.197 125.527 228.24 125.437 228.283 125.348C228.329 125.25 228.369 125.159 228.401 125.074C228.457 124.927 228.451 124.792 228.383 124.668C228.326 124.54 228.231 124.451 228.1 124.401C227.984 124.357 227.863 124.35 227.736 124.381C227.609 124.413 227.501 124.474 227.413 124.564C227.38 124.605 227.34 124.664 227.292 124.743C227.255 124.818 227.214 124.9 227.171 124.99C227.136 125.082 227.097 125.174 227.054 125.264C227.021 125.349 226.991 125.417 226.962 125.468C226.87 125.663 226.774 125.856 226.674 126.049C226.585 126.236 226.494 126.427 226.402 126.622L225.565 126.276L224.915 126.028C224.761 125.969 224.603 125.976 224.443 126.047C224.283 126.119 224.173 126.232 224.114 126.387C224.032 126.603 224.075 126.792 224.243 126.954C224.263 126.97 224.322 127.002 224.42 127.048C224.525 127.097 224.654 127.155 224.805 127.222C224.967 127.283 225.14 127.354 225.322 127.432C225.516 127.506 225.709 127.58 225.902 127.654C225.704 128.056 225.514 128.462 225.332 128.87C225.157 129.282 224.988 129.7 224.826 130.125C224.752 130.319 224.684 130.509 224.621 130.698C224.558 130.886 224.504 131.074 224.459 131.261C224.397 131.494 224.357 131.713 224.341 131.919C224.324 132.125 224.339 132.317 224.387 132.495C224.434 132.672 224.524 132.831 224.657 132.97C224.79 133.109 224.976 133.224 225.216 133.316C225.316 133.354 225.453 133.389 225.628 133.42C225.806 133.462 225.991 133.488 226.182 133.499C226.377 133.52 226.564 133.53 226.742 133.527C226.921 133.524 227.058 133.501 227.154 133.458C227.319 133.397 227.434 133.281 227.499 133.111C227.555 132.965 227.549 132.829 227.481 132.706C227.423 132.578 227.329 132.489 227.198 132.439C227.128 132.412 227.04 132.4 226.932 132.404C226.825 132.407 226.702 132.413 226.566 132.423C226.432 132.425 226.292 132.421 226.146 132.409C226 132.398 225.861 132.367 225.73 132.317C225.699 132.305 225.662 132.286 225.618 132.261C225.583 132.238 225.556 132.215 225.539 132.191C225.51 132.127 225.508 132.015 225.533 131.857C225.562 131.69 225.598 131.514 225.643 131.327C225.695 131.143 225.75 130.965 225.807 130.792C225.872 130.622 225.918 130.502 225.944 130.433C226.1 130.023 226.262 129.624 226.428 129.236C226.604 128.842 226.785 128.451 226.969 128.061L227.212 128.154L228.998 128.835C229.153 128.894 229.31 128.888 229.47 128.816C229.63 128.744 229.74 128.631 229.799 128.477ZM232.155 129.934C232.31 129.993 232.461 130.073 232.608 130.173C232.759 130.266 232.889 130.378 232.999 130.508C233.116 130.641 233.205 130.791 233.266 130.956C233.338 131.116 233.364 131.29 233.346 131.477L233.328 131.63C233.158 131.494 232.989 131.381 232.82 131.29C232.661 131.194 232.528 131.126 232.42 131.084C232.103 130.963 231.766 130.896 231.407 130.884C231.052 130.863 230.708 130.905 230.377 131.008C230.045 131.112 229.743 131.276 229.472 131.5C229.208 131.727 229.008 132.018 228.873 132.374C228.725 132.76 228.684 133.112 228.749 133.429C228.814 133.746 228.946 134.027 229.145 134.271C229.349 134.526 229.599 134.741 229.895 134.916C230.188 135.099 230.49 135.249 230.799 135.367C230.976 135.435 231.163 135.493 231.357 135.54C231.551 135.588 231.745 135.626 231.937 135.656C232.213 135.699 232.439 135.71 232.615 135.689C232.789 135.675 232.934 135.62 233.051 135.523C233.175 135.428 233.281 135.301 233.37 135.14C233.461 134.971 233.555 134.759 233.652 134.503C233.761 134.217 233.857 133.931 233.94 133.644C234.034 133.352 234.124 133.059 234.21 132.764C234.286 132.518 234.358 132.271 234.426 132.023C234.502 131.777 234.541 131.526 234.541 131.269C234.54 130.994 234.484 130.734 234.374 130.488C234.275 130.238 234.135 130.012 233.956 129.811C233.783 129.612 233.584 129.439 233.357 129.29C233.133 129.134 232.902 129.01 232.662 128.918C232.484 128.851 232.305 128.8 232.123 128.766C231.944 128.724 231.762 128.69 231.577 128.664C231.476 128.652 231.366 128.636 231.249 128.618C231.143 128.595 231.034 128.589 230.924 128.6C230.813 128.611 230.712 128.644 230.621 128.697C230.538 128.754 230.471 128.848 230.42 128.979C230.364 129.126 230.365 129.264 230.422 129.392C230.49 129.515 230.59 129.602 230.722 129.652C230.799 129.682 230.877 129.698 230.955 129.702C231.034 129.705 231.116 129.71 231.202 129.716C231.364 129.734 231.522 129.759 231.678 129.792C231.841 129.827 232 129.875 232.155 129.934ZM232.368 134.598C232.177 134.587 231.992 134.561 231.813 134.519C231.645 134.472 231.472 134.415 231.294 134.347C231.132 134.285 230.955 134.205 230.762 134.105C230.57 134.005 230.403 133.888 230.259 133.753C230.118 133.611 230.015 133.452 229.95 133.276C229.887 133.093 229.898 132.889 229.984 132.665C230.048 132.495 230.145 132.359 230.272 132.257C230.386 132.168 230.508 132.103 230.638 132.065C230.778 132.021 230.921 131.995 231.065 131.989C231.213 131.974 231.356 131.98 231.497 132.007C231.64 132.026 231.773 132.06 231.897 132.107C232.052 132.166 232.206 132.247 232.362 132.351C232.517 132.454 232.653 132.563 232.768 132.678C232.84 132.768 232.905 132.854 232.961 132.938C232.9 133.145 232.833 133.354 232.761 133.566C232.7 133.773 232.63 133.98 232.55 134.189C232.526 134.251 232.496 134.319 232.459 134.393C232.429 134.471 232.399 134.539 232.368 134.598ZM234.427 136.021C234.374 136.16 234.377 136.29 234.438 136.411C234.506 136.534 234.605 136.621 234.737 136.671C234.837 136.709 234.955 136.714 235.09 136.686C235.254 136.651 235.366 136.588 235.428 136.496C235.489 136.405 235.552 136.287 235.616 136.143L235.996 135.146C236.026 135.069 236.074 134.932 236.14 134.736C236.213 134.542 236.295 134.317 236.385 134.059C236.482 133.804 236.578 133.53 236.671 133.238C236.776 132.941 236.873 132.664 236.962 132.406C237.083 132.39 237.207 132.38 237.333 132.375C237.47 132.365 237.611 132.388 237.758 132.444C237.882 132.491 237.999 132.567 238.11 132.671C238.221 132.776 238.286 132.894 238.307 133.025C238.315 133.073 238.301 133.178 238.266 133.342C238.238 133.508 238.19 133.703 238.123 133.925C238.063 134.15 237.993 134.393 237.911 134.654C237.832 134.908 237.752 135.152 237.671 135.387C237.601 135.617 237.535 135.826 237.472 136.014C237.408 136.203 237.366 136.337 237.344 136.417C237.327 136.464 237.3 136.533 237.265 136.626C237.24 136.714 237.21 136.804 237.174 136.897C237.147 136.993 237.121 137.085 237.096 137.173C237.071 137.261 237.061 137.323 237.064 137.36C237.078 137.578 237.194 137.728 237.41 137.811C237.565 137.87 237.721 137.867 237.878 137.803C238.035 137.739 238.143 137.63 238.202 137.475C238.252 137.344 238.299 137.211 238.341 137.077C238.387 136.935 238.43 136.797 238.473 136.662C238.615 136.22 238.755 135.783 238.895 135.349C239.034 134.915 239.166 134.474 239.293 134.026C239.324 133.923 239.351 133.827 239.376 133.739C239.404 133.643 239.426 133.55 239.443 133.459C239.576 133.412 239.719 133.374 239.872 133.344C240.025 133.314 240.202 133.337 240.403 133.414C240.527 133.461 240.637 133.521 240.734 133.593C240.83 133.665 240.901 133.768 240.948 133.901C240.982 134.02 240.986 134.185 240.958 134.396C240.942 134.602 240.902 134.835 240.838 135.094C240.775 135.353 240.697 135.625 240.607 135.909C240.519 136.186 240.429 136.457 240.336 136.722C240.244 136.988 240.155 137.233 240.069 137.457C239.983 137.681 239.916 137.859 239.865 137.991C239.83 138.083 239.8 138.174 239.775 138.262C239.748 138.357 239.736 138.446 239.74 138.527C239.742 138.616 239.768 138.697 239.82 138.77C239.872 138.843 239.956 138.902 240.072 138.946C240.227 139.005 240.382 139.003 240.54 138.939C240.697 138.875 240.805 138.766 240.864 138.611C241.026 138.186 241.183 137.763 241.335 137.343C241.489 136.915 241.631 136.486 241.759 136.057C241.866 135.708 241.961 135.354 242.044 134.997C242.128 134.639 242.155 134.3 242.127 133.979C242.11 133.653 242.01 133.358 241.827 133.094C241.648 132.822 241.338 132.602 240.897 132.433C240.65 132.339 240.39 132.289 240.118 132.282C239.846 132.276 239.581 132.308 239.324 132.378C239.223 132.18 239.067 131.996 238.857 131.827C238.647 131.659 238.441 131.536 238.24 131.459C238.14 131.421 238.003 131.386 237.828 131.355C237.662 131.327 237.486 131.313 237.3 131.313C237.308 131.245 237.312 131.211 237.312 131.211C237.306 131.111 237.269 131.022 237.202 130.943C237.137 130.857 237.059 130.796 236.966 130.76C236.812 130.701 236.656 130.704 236.498 130.768C236.341 130.832 236.233 130.941 236.174 131.096C236.121 131.235 236.072 131.375 236.026 131.517C235.984 131.652 235.94 131.79 235.895 131.932L235.327 133.628C235.189 134.036 235.041 134.436 234.883 134.827C234.732 135.221 234.58 135.619 234.427 136.021ZM241.691 142.287C241.846 142.346 242.002 142.344 242.159 142.28C242.316 142.216 242.424 142.107 242.483 141.952C242.551 141.774 242.614 141.599 242.671 141.426C242.728 141.253 242.783 141.075 242.835 140.891L243.297 139.473C243.586 139.69 243.893 139.86 244.218 139.984C244.527 140.102 244.841 140.173 245.159 140.197C245.482 140.232 245.793 140.218 246.092 140.155C246.401 140.087 246.689 139.971 246.955 139.807C247.224 139.635 247.464 139.412 247.675 139.138C247.786 138.986 247.882 138.828 247.963 138.663C248.051 138.502 248.129 138.333 248.197 138.155C248.318 137.838 248.396 137.505 248.432 137.156C248.509 136.467 248.411 135.877 248.139 135.383C247.877 134.885 247.418 134.51 246.761 134.26C246.544 134.177 246.322 134.123 246.092 134.097C245.871 134.075 245.649 134.052 245.427 134.03C245.383 134.03 245.336 134.026 245.287 134.016C245.237 134.006 245.186 134 245.134 133.997C245.119 133.806 245.007 133.67 244.798 133.59C244.643 133.531 244.488 133.534 244.33 133.598C244.173 133.662 244.065 133.771 244.006 133.925C243.9 134.204 243.797 134.483 243.699 134.765C243.608 135.049 243.514 135.332 243.415 135.613C243.308 135.917 243.195 136.224 243.077 136.533C242.962 136.835 242.855 137.139 242.755 137.446C242.726 137.524 242.669 137.684 242.585 137.926C242.512 138.164 242.421 138.439 242.31 138.751C242.208 139.066 242.099 139.397 241.985 139.743C241.868 140.096 241.761 140.423 241.664 140.723C241.567 141.022 241.49 141.272 241.432 141.471C241.37 141.678 241.339 141.794 241.338 141.82C241.349 142.046 241.467 142.202 241.691 142.287ZM246.256 135.236C246.688 135.401 246.974 135.638 247.113 135.948C247.259 136.261 247.311 136.635 247.269 137.07C247.253 137.206 247.229 137.338 247.197 137.468C247.173 137.6 247.136 137.732 247.086 137.864C246.873 138.42 246.57 138.809 246.175 139.031C245.784 139.244 245.298 139.241 244.718 139.019C244.564 138.96 244.411 138.884 244.261 138.792C244.118 138.702 243.987 138.603 243.869 138.496C243.836 138.466 243.803 138.435 243.771 138.405C243.741 138.367 243.71 138.333 243.677 138.303C243.83 137.856 243.983 137.419 244.138 136.991C244.303 136.558 244.462 136.119 244.615 135.672C244.656 135.564 244.692 135.458 244.722 135.355C244.764 135.246 244.805 135.138 244.846 135.03C244.854 135.033 244.858 135.034 244.858 135.034C244.869 135.03 244.878 135.029 244.886 135.032C245.099 135.051 245.33 135.073 245.578 135.097C245.829 135.113 246.055 135.159 246.256 135.236Z" fill="#121212"/>
</g>
<g opacity="0.4">
<circle cx="157.763" cy="94.7635" r="20.731" transform="rotate(-49.8229 157.763 94.7635)" fill="#FD774C" stroke="black" stroke-width="1.10861"/>
<circle cx="157.731" cy="94.739" r="17.5044" transform="rotate(-49.8229 157.731 94.739)" stroke="black" stroke-width="1.10861"/>
<path d="M149.515 98.5677C149.362 98.4489 149.195 98.3645 149.016 98.3144C148.841 98.2599 148.656 98.2236 148.461 98.2054C148.062 98.1687 147.706 98.2085 147.394 98.3248C147.076 98.4362 146.779 98.6185 146.502 98.8716C146.41 98.9559 146.324 99.0476 146.245 99.1465C146.166 99.2362 146.092 99.3353 146.022 99.444C145.961 99.5438 145.901 99.6435 145.84 99.7433C145.78 99.8338 145.729 99.9387 145.686 100.058C145.558 100.416 145.549 100.776 145.658 101.14C145.767 101.504 145.949 101.824 146.202 102.102C146.339 102.252 146.494 102.392 146.665 102.521C146.832 102.645 147.012 102.735 147.205 102.79C147.398 102.845 147.617 102.851 147.861 102.806C148.106 102.752 148.355 102.672 148.606 102.567C148.858 102.462 149.096 102.347 149.321 102.222C149.551 102.093 149.747 101.98 149.909 101.885C150.072 101.79 150.242 101.688 150.42 101.58C150.597 101.462 150.782 101.396 150.974 101.381C151.166 101.366 151.346 101.407 151.514 101.503C151.687 101.595 151.837 101.712 151.966 101.852C152.024 101.916 152.079 101.981 152.132 102.049C152.18 102.112 152.221 102.186 152.255 102.271C152.313 102.423 152.325 102.577 152.29 102.734C152.255 102.891 152.194 103.044 152.108 103.194C152.027 103.34 151.93 103.477 151.817 103.607C151.708 103.733 151.603 103.842 151.501 103.936C151.292 104.126 151.07 104.289 150.836 104.423C150.716 104.496 150.597 104.561 150.478 104.616C150.359 104.662 150.239 104.692 150.117 104.705C150 104.713 149.882 104.696 149.763 104.654C149.649 104.607 149.534 104.52 149.418 104.393C149.387 104.359 149.361 104.326 149.339 104.292C149.313 104.253 149.282 104.215 149.246 104.176C149.162 104.083 149.064 104.039 148.952 104.044C148.845 104.043 148.75 104.081 148.667 104.157C148.584 104.232 148.534 104.309 148.517 104.387C148.499 104.466 148.503 104.548 148.527 104.633C148.551 104.708 148.59 104.785 148.642 104.861C148.695 104.938 148.752 105.011 148.814 105.079C149.054 105.342 149.326 105.512 149.63 105.591C149.934 105.67 150.251 105.661 150.582 105.565C150.7 105.528 150.814 105.482 150.923 105.426C151.033 105.371 151.143 105.31 151.253 105.245C151.392 105.163 151.524 105.074 151.65 104.977C151.785 104.88 151.913 104.777 152.034 104.666C152.287 104.435 152.508 104.179 152.698 103.899C152.897 103.619 153.032 103.327 153.101 103.022C153.18 102.718 153.183 102.409 153.109 102.093C153.034 101.777 152.857 101.466 152.578 101.16C152.44 101.009 152.29 100.879 152.127 100.769C151.964 100.659 151.791 100.577 151.607 100.522C151.428 100.463 151.243 100.436 151.051 100.441C150.861 100.437 150.67 100.468 150.481 100.534C150.32 100.592 150.168 100.664 150.024 100.751C149.88 100.838 149.734 100.926 149.585 101.018C149.341 101.16 149.095 101.301 148.846 101.438C148.602 101.572 148.348 101.684 148.083 101.774C148.007 101.799 147.906 101.825 147.779 101.851C147.652 101.878 147.554 101.888 147.484 101.88C147.368 101.861 147.25 101.804 147.128 101.71C147.002 101.611 146.899 101.518 146.819 101.43C146.704 101.304 146.604 101.15 146.519 100.969C146.439 100.784 146.419 100.606 146.459 100.435C146.481 100.362 146.512 100.293 146.552 100.23C146.597 100.162 146.64 100.096 146.68 100.033C146.735 99.9563 146.787 99.8818 146.837 99.8095C146.892 99.7327 146.953 99.6633 147.021 99.6011C147.284 99.3614 147.593 99.2123 147.95 99.1539C148.303 99.0907 148.647 99.1459 148.984 99.3196C149.071 99.3655 149.158 99.3834 149.247 99.3735C149.336 99.3635 149.415 99.3275 149.483 99.2653C149.532 99.2209 149.569 99.169 149.595 99.1096C149.626 99.0458 149.643 98.9813 149.646 98.9162C149.653 98.8466 149.645 98.7833 149.619 98.7263C149.599 98.6647 149.564 98.6119 149.515 98.5677ZM154.726 95.6136C154.602 95.4775 154.454 95.4428 154.284 95.5097C154.241 95.5217 154.157 95.5855 154.03 95.7009C153.904 95.807 153.766 95.9289 153.615 96.0666C153.465 96.2042 153.323 96.3376 153.192 96.4668C153.056 96.5911 152.961 96.6777 152.907 96.7265L152.863 96.7665C152.736 96.5976 152.611 96.4311 152.488 96.2671C152.36 96.0982 152.233 95.9293 152.105 95.7604C152.057 95.6977 152.008 95.6349 151.96 95.5721C151.907 95.5045 151.856 95.4439 151.807 95.3904C151.723 95.2981 151.625 95.254 151.513 95.2582C151.401 95.2532 151.304 95.2884 151.221 95.3639C151.148 95.4305 151.1 95.5145 151.077 95.616C151.054 95.7174 151.059 95.8155 151.092 95.9102C151.109 95.9483 151.137 95.9985 151.176 96.0608C151.215 96.1139 151.259 96.1718 151.308 96.2346C151.361 96.2929 151.412 96.3535 151.46 96.4163C151.509 96.4697 151.547 96.5157 151.573 96.5542C151.679 96.6895 151.782 96.827 151.883 96.9667C151.984 97.0971 152.087 97.2299 152.193 97.3652L151.648 97.8368L151.239 98.2098C151.142 98.2986 151.09 98.4127 151.084 98.5522C151.078 98.6918 151.119 98.8101 151.208 98.9074C151.332 99.0435 151.482 99.0806 151.657 99.0186C151.676 99.0102 151.719 98.9795 151.787 98.9266C151.859 98.8693 151.946 98.7987 152.048 98.7148C152.15 98.6216 152.262 98.5241 152.383 98.4224C152.505 98.3114 152.626 98.2004 152.748 98.0894C152.963 98.3741 153.183 98.6544 153.409 98.9302C153.639 99.2016 153.876 99.471 154.12 99.7384C154.231 99.86 154.342 99.9768 154.453 100.089C154.565 100.201 154.679 100.307 154.796 100.405C154.939 100.533 155.081 100.639 155.222 100.725C155.362 100.811 155.504 100.868 155.647 100.898C155.79 100.928 155.935 100.921 156.082 100.876C156.228 100.831 156.377 100.74 156.527 100.603C156.591 100.545 156.664 100.46 156.749 100.347C156.842 100.235 156.927 100.113 157.003 99.9809C157.088 99.8497 157.162 99.7202 157.223 99.5925C157.285 99.4648 157.318 99.3591 157.321 99.2754C157.337 99.1363 157.296 99.0132 157.198 98.9063C157.114 98.8139 157.016 98.7699 156.904 98.7741C156.792 98.769 156.695 98.8043 156.612 98.8797C156.569 98.9197 156.529 98.9785 156.493 99.0561C156.456 99.1336 156.417 99.2227 156.376 99.3234C156.329 99.4191 156.276 99.5169 156.215 99.6167C156.155 99.7165 156.084 99.8041 156.001 99.8796C155.981 99.8974 155.955 99.9171 155.921 99.9389C155.893 99.9562 155.866 99.9667 155.843 99.9703C155.787 99.9678 155.707 99.9292 155.604 99.8546C155.495 99.7751 155.383 99.6861 155.266 99.5877C155.154 99.4847 155.047 99.382 154.945 99.2795C154.847 99.1725 154.778 99.0972 154.738 99.0534C154.503 98.7958 154.277 98.5385 154.06 98.2817C153.844 98.0156 153.63 97.7472 153.418 97.4767L153.572 97.3368L154.695 96.3112C154.792 96.2224 154.844 96.1083 154.85 95.9687C154.856 95.8292 154.815 95.7108 154.726 95.6136ZM156.605 94.4598C156.702 94.371 156.813 94.2921 156.937 94.2232C157.057 94.1494 157.183 94.0969 157.315 94.0656C157.451 94.0298 157.589 94.0198 157.728 94.0354C157.868 94.0417 158.001 94.085 158.128 94.1654L158.23 94.2329C158.073 94.305 157.932 94.3848 157.806 94.4723C157.682 94.5506 157.585 94.6208 157.517 94.6829C157.318 94.865 157.15 95.081 157.013 95.3311C156.871 95.5764 156.778 95.8354 156.733 96.1084C156.688 96.3813 156.696 96.6543 156.758 96.9274C156.826 97.1961 156.961 97.4422 157.165 97.6659C157.387 97.9089 157.623 98.0641 157.871 98.1313C158.12 98.1985 158.367 98.205 158.611 98.1508C158.865 98.0971 159.108 97.9962 159.338 97.8482C159.573 97.7051 159.788 97.5447 159.982 97.3671C160.094 97.265 160.201 97.1534 160.305 97.0322C160.408 96.9111 160.505 96.7873 160.594 96.6609C160.724 96.4803 160.812 96.3236 160.86 96.1906C160.913 96.0625 160.925 95.9396 160.898 95.8218C160.876 95.6996 160.823 95.5784 160.74 95.4581C160.652 95.333 160.535 95.1902 160.389 95.0298C160.224 94.8499 160.055 94.6791 159.881 94.5174C159.707 94.3464 159.53 94.1777 159.351 94.0111C159.204 93.8693 159.054 93.7297 158.902 93.5923C158.755 93.4504 158.59 93.3335 158.408 93.2413C158.212 93.1439 158.007 93.0903 157.793 93.0806C157.579 93.0616 157.369 93.08 157.161 93.1359C156.958 93.1873 156.764 93.267 156.577 93.375C156.386 93.4782 156.215 93.5986 156.064 93.7363C155.952 93.8384 155.852 93.948 155.763 94.0651C155.669 94.1774 155.58 94.2945 155.495 94.4165C155.45 94.4844 155.4 94.5567 155.346 94.6334C155.291 94.7009 155.248 94.7758 155.216 94.8583C155.185 94.9407 155.172 95.024 155.177 95.1081C155.188 95.1878 155.23 95.269 155.306 95.3516C155.39 95.444 155.488 95.4927 155.6 95.4978C155.712 95.4935 155.809 95.4537 155.892 95.3782C155.941 95.3338 155.98 95.2843 156.011 95.2298C156.041 95.1752 156.074 95.1185 156.109 95.0595C156.179 94.9508 156.254 94.847 156.333 94.7481C156.417 94.6447 156.507 94.5486 156.605 94.4598ZM159.996 95.9767C159.92 96.1084 159.836 96.2304 159.742 96.3426C159.649 96.4456 159.546 96.5481 159.434 96.6502C159.332 96.7435 159.211 96.8405 159.072 96.9414C158.932 97.0422 158.789 97.1196 158.642 97.1735C158.49 97.2226 158.34 97.2391 158.192 97.2231C158.039 97.2022 157.898 97.1212 157.77 96.9802C157.672 96.8733 157.61 96.7563 157.583 96.6292C157.56 96.5163 157.558 96.4067 157.577 96.3004C157.596 96.1848 157.629 96.0744 157.676 95.9694C157.718 95.8594 157.774 95.7594 157.843 95.6694C157.908 95.5744 157.979 95.4915 158.057 95.4204C158.154 95.3316 158.268 95.2505 158.397 95.1772C158.526 95.1038 158.652 95.0466 158.775 95.0056C158.864 94.9863 158.949 94.9715 159.029 94.9611C159.154 95.0787 159.279 95.2008 159.403 95.3277C159.529 95.4452 159.651 95.5696 159.771 95.7008C159.807 95.7397 159.844 95.7857 159.884 95.8387C159.928 95.8874 159.966 95.9333 159.996 95.9767ZM161.745 95.0218C161.825 95.1093 161.918 95.1532 162.025 95.1534C162.137 95.1491 162.235 95.1093 162.317 95.0338C162.38 94.9761 162.426 94.8943 162.454 94.7884C162.488 94.6594 162.483 94.5567 162.44 94.4802C162.397 94.4036 162.336 94.317 162.256 94.2202L161.684 93.593C161.639 93.5444 161.559 93.4616 161.443 93.3445C161.332 93.2229 161.201 93.0842 161.05 92.9282C160.903 92.7677 160.743 92.602 160.569 92.431C160.395 92.2507 160.233 92.0826 160.081 91.9266C160.114 91.8348 160.15 91.7433 160.192 91.652C160.234 91.5513 160.301 91.4588 160.393 91.3745C160.471 91.3035 160.567 91.2472 160.68 91.2058C160.794 91.1643 160.901 91.1599 161.002 91.1924C161.039 91.2034 161.109 91.2508 161.213 91.3348C161.321 91.4142 161.442 91.5176 161.576 91.6448C161.715 91.7676 161.863 91.9048 162.019 92.0564C162.171 92.203 162.316 92.3471 162.454 92.4885C162.592 92.6206 162.717 92.7428 162.828 92.855C162.94 92.9672 163.02 93.0454 163.07 93.0896C163.096 93.1188 163.136 93.1625 163.189 93.2209C163.243 93.2699 163.297 93.3236 163.35 93.3819C163.408 93.4358 163.464 93.4873 163.518 93.5363C163.571 93.5854 163.612 93.6152 163.639 93.6258C163.799 93.6936 163.947 93.6654 164.084 93.541C164.181 93.4522 164.235 93.3405 164.246 93.2058C164.256 93.0712 164.217 92.9552 164.129 92.858C164.053 92.7754 163.975 92.6949 163.895 92.6167C163.81 92.5337 163.727 92.453 163.647 92.3748C163.384 92.1159 163.123 91.8594 162.864 91.6053C162.605 91.3513 162.34 91.0992 162.067 90.8492C162.004 90.7904 161.946 90.7365 161.892 90.6875C161.834 90.6336 161.776 90.5843 161.717 90.5397C161.731 90.4285 161.755 90.3131 161.789 90.1935C161.822 90.0738 161.902 89.9563 162.028 89.8408C162.106 89.7698 162.188 89.7129 162.274 89.6702C162.36 89.6275 162.458 89.6133 162.569 89.6277C162.666 89.646 162.785 89.7027 162.925 89.7976C163.066 89.8832 163.217 89.9949 163.378 90.1327C163.54 90.2705 163.705 90.4225 163.875 90.5886C164.04 90.7499 164.201 90.9109 164.356 91.0718C164.512 91.2327 164.654 91.3836 164.783 91.5246C164.912 91.6655 165.014 91.7774 165.09 91.86C165.143 91.9183 165.196 91.972 165.25 92.0211C165.308 92.075 165.367 92.1149 165.426 92.1409C165.49 92.1718 165.557 92.1818 165.628 92.171C165.698 92.1602 165.77 92.1215 165.843 92.0549C165.94 91.9661 165.994 91.8544 166.005 91.7197C166.015 91.5851 165.976 91.4691 165.888 91.3719C165.643 91.1045 165.399 90.8418 165.154 90.5837C164.905 90.3208 164.651 90.0669 164.392 89.8221C164.182 89.6215 163.965 89.4276 163.74 89.2404C163.516 89.0531 163.284 88.9121 163.046 88.8174C162.809 88.7135 162.563 88.679 162.31 88.7142C162.052 88.7444 161.785 88.8861 161.508 89.1392C161.352 89.2812 161.224 89.4478 161.122 89.639C161.02 89.8301 160.948 90.0295 160.906 90.2373C160.729 90.2386 160.543 90.2838 160.348 90.3728C160.152 90.4618 159.992 90.5641 159.865 90.6795C159.802 90.7372 159.728 90.8224 159.644 90.9351C159.565 91.0433 159.492 91.1635 159.425 91.2957C159.38 91.2656 159.357 91.2506 159.357 91.2506C159.284 91.2194 159.207 91.2136 159.127 91.2332C159.043 91.248 158.971 91.2821 158.913 91.3354C158.816 91.4242 158.762 91.5359 158.751 91.6705C158.74 91.8052 158.779 91.9212 158.868 92.0184C158.948 92.1059 159.03 92.1912 159.115 92.2742C159.195 92.3524 159.278 92.4331 159.363 92.5162L160.365 93.5263C160.606 93.7702 160.837 94.0184 161.059 94.2707C161.285 94.5187 161.514 94.769 161.745 95.0218ZM168.797 92.0987C168.894 92.0099 168.948 91.8981 168.959 91.7635C168.97 91.6288 168.931 91.5129 168.842 91.4156C168.74 91.3038 168.637 91.1967 168.535 91.0941C168.432 90.9916 168.325 90.8889 168.213 90.786L167.37 89.9509C167.628 89.8227 167.859 89.6654 168.063 89.4789C168.257 89.3013 168.42 89.1037 168.551 88.8859C168.691 88.6686 168.793 88.4425 168.854 88.2076C168.917 87.9634 168.937 87.7174 168.916 87.4694C168.89 87.2166 168.818 86.9663 168.698 86.7186C168.63 86.585 168.552 86.4603 168.464 86.3444C168.38 86.2242 168.288 86.1081 168.186 85.9963C168.004 85.797 167.795 85.6221 167.559 85.4716C167.098 85.171 166.643 85.0293 166.195 85.0462C165.747 85.0539 165.316 85.2464 164.903 85.6238C164.767 85.7481 164.649 85.8872 164.549 86.0411C164.453 86.1906 164.358 86.3401 164.263 86.4896C164.247 86.5215 164.227 86.5532 164.202 86.5847C164.178 86.6162 164.155 86.6501 164.135 86.6865C163.993 86.6288 163.857 86.6599 163.725 86.7798C163.628 86.8686 163.574 86.9803 163.563 87.1149C163.553 87.2496 163.592 87.3656 163.68 87.4628C163.84 87.6378 164.002 87.8106 164.167 87.9812C164.337 88.1473 164.504 88.3157 164.669 88.4862C164.847 88.6714 165.024 88.8612 165.202 89.0557C165.375 89.2453 165.553 89.4304 165.736 89.6111C165.78 89.6598 165.874 89.7572 166.016 89.9035C166.159 90.0404 166.322 90.2039 166.504 90.3939C166.692 90.5795 166.888 90.7748 167.093 90.9799C167.303 91.1897 167.497 91.3826 167.675 91.5585C167.853 91.7343 168.003 91.8786 168.124 91.9913C168.249 92.1088 168.321 92.1726 168.339 92.1827C168.503 92.2554 168.656 92.2274 168.797 92.0987ZM165.416 86.3321C165.689 86.0835 165.96 85.9653 166.229 85.9775C166.504 85.9853 166.788 86.0821 167.083 86.2679C167.173 86.3279 167.259 86.3924 167.34 86.4613C167.425 86.5257 167.506 86.5993 167.581 86.6819C167.901 87.032 168.069 87.3868 168.085 87.7463C168.097 88.1011 167.921 88.4449 167.556 88.7779C167.459 88.8667 167.351 88.948 167.231 89.0218C167.116 89.0911 166.999 89.1488 166.88 89.1947C166.847 89.2071 166.814 89.2196 166.781 89.2321C166.743 89.2397 166.708 89.2497 166.675 89.2622C166.412 88.994 166.156 88.7284 165.907 88.4655C165.658 88.1932 165.402 87.923 165.14 87.6548C165.077 87.5867 165.015 87.5233 164.953 87.4645C164.89 87.3965 164.828 87.3284 164.766 87.2603C164.771 87.2559 164.773 87.2537 164.773 87.2537C164.774 87.2444 164.776 87.2375 164.781 87.2331C164.872 87.088 164.97 86.9317 165.075 86.7641C165.176 86.5915 165.29 86.4476 165.416 86.3321Z" fill="#121212"/>
</g>
<g opacity="0.8">
<circle cx="207.841" cy="46.841" r="15.339" transform="rotate(32.716 207.841 46.841)" stroke="black" stroke-width="0.82027"/>
<circle cx="207.856" cy="46.8145" r="12.9517" transform="rotate(32.716 207.856 46.8145)" stroke="black" stroke-width="0.82027"/>
<path d="M204.347 41.0484C204.42 40.9247 204.465 40.7946 204.485 40.6581C204.508 40.5247 204.517 40.3857 204.512 40.241C204.5 39.9446 204.437 39.6873 204.322 39.4689C204.209 39.2469 204.047 39.0463 203.835 38.8674C203.764 38.8077 203.688 38.7536 203.608 38.7051C203.535 38.6561 203.455 38.611 203.369 38.57C203.29 38.5352 203.211 38.5004 203.132 38.4657C203.059 38.4303 202.978 38.4027 202.886 38.3829C202.611 38.3233 202.346 38.3511 202.089 38.4663C201.833 38.5814 201.615 38.7452 201.436 38.9575C201.339 39.0729 201.251 39.1996 201.173 39.3377C201.098 39.472 201.05 39.6127 201.027 39.7597C201.005 39.9068 201.023 40.0678 201.079 40.2428C201.142 40.4172 201.224 40.5917 201.326 40.7663C201.427 40.9409 201.534 41.1046 201.648 41.2574C201.765 41.4134 201.866 41.5466 201.951 41.6568C202.037 41.7671 202.128 41.8821 202.224 42.0018C202.328 42.1209 202.394 42.25 202.423 42.3893C202.452 42.5286 202.44 42.6645 202.385 42.797C202.335 42.9327 202.264 43.0545 202.173 43.1625C202.132 43.211 202.089 43.2578 202.045 43.3031C202.003 43.3446 201.953 43.3818 201.893 43.4145C201.788 43.4719 201.676 43.4953 201.557 43.4846C201.439 43.4739 201.32 43.4443 201.202 43.3956C201.088 43.35 200.977 43.292 200.871 43.2215C200.768 43.1542 200.678 43.0875 200.6 43.0216C200.44 42.8866 200.299 42.7395 200.179 42.5804C200.113 42.4995 200.054 42.4181 200.002 42.3361C199.957 42.2535 199.924 42.1682 199.903 42.0801C199.885 41.9952 199.886 41.9069 199.906 41.8154C199.93 41.7269 199.982 41.6343 200.064 41.5375C200.086 41.5114 200.108 41.4888 200.131 41.4695C200.156 41.4466 200.182 41.4203 200.207 41.3905C200.267 41.3197 200.289 41.2434 200.276 41.1616C200.265 41.083 200.229 41.017 200.165 40.9636C200.102 40.9102 200.041 40.8808 199.982 40.8755C199.922 40.8702 199.863 40.8804 199.803 40.9063C199.75 40.9316 199.697 40.9671 199.646 41.013C199.594 41.0589 199.547 41.1079 199.503 41.16C199.333 41.3611 199.234 41.577 199.205 41.8076C199.177 42.0382 199.214 42.2702 199.316 42.5034C199.355 42.5866 199.399 42.6657 199.451 42.7409C199.502 42.816 199.557 42.8909 199.615 42.9654C199.689 43.0594 199.767 43.1478 199.85 43.2306C199.934 43.3203 200.022 43.4044 200.115 43.4829C200.309 43.6462 200.518 43.784 200.742 43.8963C200.966 44.0154 201.194 44.086 201.424 44.1079C201.654 44.1367 201.882 44.1086 202.106 44.0239C202.33 43.9391 202.542 43.7793 202.739 43.5447C202.837 43.4293 202.918 43.3065 202.983 43.1765C203.048 43.0466 203.092 42.9115 203.114 42.7712C203.141 42.6342 203.143 42.4957 203.12 42.3559C203.105 42.2154 203.064 42.0789 202.997 41.9463C202.939 41.8337 202.872 41.7288 202.794 41.6317C202.717 41.5346 202.638 41.4359 202.557 41.3356C202.428 41.1702 202.302 41.003 202.177 40.8338C202.055 40.6679 201.949 40.492 201.857 40.3062C201.832 40.253 201.803 40.1811 201.771 40.0905C201.739 39.9999 201.723 39.9287 201.722 39.8769C201.725 39.7902 201.755 39.6978 201.812 39.5996C201.873 39.4976 201.931 39.4131 201.988 39.3461C202.07 39.2492 202.173 39.161 202.297 39.0812C202.426 39.0046 202.554 38.9729 202.683 38.9861C202.739 38.9952 202.793 39.0114 202.843 39.0348C202.897 39.0613 202.949 39.0862 203 39.1096C203.061 39.1424 203.121 39.1736 203.179 39.2032C203.24 39.236 203.297 39.2744 203.349 39.3183C203.55 39.4879 203.69 39.7008 203.767 39.9569C203.847 40.2094 203.84 40.4676 203.744 40.7315C203.719 40.7993 203.714 40.8654 203.73 40.9298C203.746 40.9941 203.78 41.0482 203.832 41.0922C203.869 41.1236 203.911 41.146 203.957 41.1594C204.007 41.1759 204.056 41.1821 204.104 41.178C204.156 41.177 204.201 41.1645 204.241 41.1404C204.284 41.1194 204.319 41.0888 204.347 41.0484ZM207.015 44.5881C207.103 44.4838 207.114 44.3722 207.049 44.2533C207.036 44.2233 206.981 44.1675 206.884 44.0858C206.794 44.0036 206.691 43.9138 206.576 43.8165C206.461 43.7191 206.349 43.6284 206.242 43.5442C206.137 43.4563 206.065 43.395 206.024 43.3605L205.99 43.3322C206.102 43.2225 206.212 43.1146 206.321 43.0085C206.432 42.8988 206.544 42.789 206.656 42.6792C206.697 42.6377 206.738 42.5961 206.78 42.5546C206.824 42.5093 206.864 42.4662 206.898 42.4252C206.958 42.3544 206.981 42.2782 206.967 42.1964C206.96 42.114 206.925 42.0461 206.862 41.9928C206.806 41.9457 206.739 41.9185 206.663 41.9111C206.586 41.9038 206.515 41.9168 206.448 41.9502C206.422 41.9662 206.388 41.9916 206.346 42.0263C206.311 42.0604 206.272 42.0982 206.231 42.1398C206.193 42.1845 206.154 42.2276 206.112 42.2691C206.078 42.3101 206.048 42.3421 206.022 42.365C205.933 42.4555 205.842 42.5445 205.749 42.6319C205.663 42.7188 205.576 42.8075 205.487 42.898L205.088 42.543L204.775 42.2792C204.701 42.2164 204.612 42.1894 204.509 42.1982C204.406 42.207 204.323 42.2486 204.261 42.3231C204.173 42.4274 204.16 42.5408 204.222 42.6634C204.23 42.6766 204.257 42.7054 204.302 42.7499C204.351 42.7976 204.411 42.8547 204.483 42.9213C204.561 42.9872 204.643 43.0597 204.729 43.1388C204.822 43.2173 204.916 43.2958 205.009 43.3743C204.82 43.5597 204.636 43.7483 204.455 43.94C204.278 44.1348 204.103 44.3347 203.931 44.5395C203.852 44.6326 203.777 44.7254 203.705 44.818C203.634 44.9105 203.567 45.0043 203.506 45.0994C203.427 45.2168 203.362 45.3312 203.313 45.4426C203.263 45.5539 203.235 45.6635 203.227 45.7714C203.218 45.8793 203.238 45.9848 203.285 46.088C203.331 46.1911 203.413 46.2914 203.528 46.3888C203.576 46.4296 203.646 46.4755 203.737 46.5265C203.828 46.5845 203.926 46.6349 204.03 46.6779C204.134 46.7278 204.236 46.7692 204.336 46.8022C204.436 46.8353 204.516 46.8491 204.578 46.8439C204.682 46.842 204.768 46.8 204.837 46.7181C204.897 46.6473 204.92 46.5711 204.906 46.4893C204.899 46.4069 204.863 46.339 204.8 46.2856C204.767 46.2574 204.72 46.2337 204.659 46.2147C204.599 46.1956 204.53 46.1756 204.452 46.1545C204.377 46.1298 204.3 46.1 204.221 46.0653C204.142 46.0305 204.071 45.9864 204.008 45.9331C203.993 45.9205 203.976 45.9029 203.957 45.8804C203.941 45.8609 203.931 45.8428 203.926 45.8259C203.923 45.7847 203.943 45.7225 203.988 45.6392C204.036 45.5521 204.09 45.4611 204.151 45.366C204.216 45.274 204.281 45.1855 204.347 45.1004C204.416 45.0185 204.464 44.9608 204.493 44.9273C204.659 44.7299 204.826 44.5393 204.994 44.3557C205.168 44.1714 205.344 43.9887 205.523 43.8076L205.64 43.9065L206.5 44.6319C206.575 44.6947 206.663 44.7217 206.766 44.7129C206.869 44.7042 206.952 44.6626 207.015 44.5881ZM208.042 45.8553C208.117 45.9181 208.185 45.9918 208.248 46.0764C208.313 46.1572 208.364 46.2445 208.399 46.3383C208.439 46.4352 208.459 46.5354 208.461 46.6389C208.47 46.7419 208.451 46.8438 208.404 46.9446L208.365 47.0257C208.297 46.9174 208.225 46.8216 208.148 46.7382C208.079 46.6542 208.018 46.5902 207.966 46.5463C207.813 46.4175 207.639 46.3149 207.442 46.2383C207.248 46.158 207.049 46.1144 206.845 46.1076C206.64 46.1008 206.441 46.1334 206.246 46.2052C206.056 46.2802 205.888 46.4034 205.744 46.5747C205.587 46.7609 205.496 46.9485 205.47 47.1373C205.445 47.3262 205.464 47.5078 205.527 47.6822C205.591 47.8634 205.688 48.0314 205.819 48.1863C205.946 48.3448 206.085 48.4869 206.234 48.6125C206.319 48.6847 206.412 48.7529 206.51 48.8171C206.609 48.8813 206.709 48.9402 206.811 48.9938C206.955 49.0713 207.079 49.1213 207.181 49.1437C207.28 49.1698 207.372 49.1673 207.455 49.1359C207.543 49.1077 207.627 49.0574 207.707 48.9849C207.79 48.9086 207.884 48.809 207.987 48.6861C208.104 48.5483 208.213 48.4077 208.315 48.2642C208.423 48.1201 208.53 47.9745 208.635 47.8272C208.725 47.7055 208.813 47.5822 208.899 47.4573C208.989 47.3356 209.059 47.2034 209.109 47.0609C209.162 46.9077 209.181 46.7522 209.168 46.5943C209.161 46.4359 209.128 46.2832 209.067 46.1363C209.01 45.9925 208.932 45.8573 208.835 45.7307C208.741 45.6005 208.636 45.4867 208.521 45.3893C208.435 45.3171 208.345 45.2539 208.251 45.1997C208.159 45.1418 208.065 45.0876 207.967 45.0372C207.913 45.0107 207.855 44.981 207.794 44.9482C207.739 44.9149 207.68 44.8905 207.616 44.8752C207.553 44.8598 207.49 44.8582 207.429 44.8703C207.372 44.8856 207.316 44.9249 207.263 44.9882C207.203 45.059 207.177 45.1355 207.184 45.2179C207.198 45.2997 207.236 45.3673 207.3 45.4207C207.337 45.4521 207.377 45.4763 207.42 45.4934C207.463 45.5105 207.508 45.5292 207.554 45.5494C207.641 45.5904 207.724 45.6352 207.804 45.6837C207.888 45.7353 207.968 45.7925 208.042 45.8553ZM207.255 48.4892C207.151 48.4462 207.054 48.3957 206.962 48.3378C206.878 48.2793 206.793 48.214 206.707 48.1418C206.629 48.0758 206.546 47.9964 206.458 47.9036C206.371 47.8108 206.301 47.7131 206.247 47.6105C206.196 47.5042 206.17 47.3958 206.167 47.2854C206.168 47.1713 206.214 47.0602 206.305 46.9522C206.374 46.8702 206.454 46.8133 206.544 46.7814C206.625 46.7538 206.705 46.7418 206.785 46.7453C206.872 46.7483 206.956 46.7619 207.037 46.7861C207.122 46.8065 207.201 46.8379 207.274 46.8801C207.35 46.9186 207.417 46.9629 207.477 47.0132C207.551 47.076 207.622 47.1512 207.688 47.2389C207.754 47.3266 207.808 47.4136 207.85 47.4999C207.873 47.5637 207.892 47.6243 207.907 47.6818C207.833 47.7849 207.755 47.8883 207.674 47.992C207.6 48.0951 207.521 48.1969 207.436 48.2975C207.411 48.3273 207.381 48.3593 207.345 48.3934C207.314 48.4306 207.284 48.4625 207.255 48.4892ZM208.124 49.6802C208.067 49.7472 208.044 49.8201 208.054 49.8987C208.068 49.9805 208.106 50.0481 208.17 50.1015C208.218 50.1423 208.283 50.1679 208.363 50.1784C208.461 50.1908 208.536 50.1775 208.588 50.1385C208.64 50.0995 208.697 50.0462 208.761 49.9786L209.166 49.4981C209.197 49.4609 209.25 49.3941 209.325 49.2979C209.404 49.2048 209.493 49.0952 209.593 48.9692C209.696 48.8462 209.803 48.7128 209.911 48.5687C210.027 48.424 210.135 48.2886 210.235 48.1626C210.305 48.1773 210.376 48.1955 210.447 48.2171C210.524 48.2382 210.599 48.2785 210.67 48.3382C210.729 48.3884 210.78 48.4533 210.821 48.5327C210.862 48.6122 210.876 48.6905 210.862 48.7678C210.857 48.7958 210.829 48.8518 210.777 48.9357C210.73 49.0228 210.665 49.1216 210.585 49.2321C210.508 49.3458 210.422 49.4673 210.326 49.5965C210.232 49.7219 210.141 49.8421 210.05 49.957C209.967 50.0713 209.889 50.1747 209.817 50.2672C209.746 50.3597 209.696 50.4262 209.668 50.4666C209.65 50.4889 209.621 50.5224 209.584 50.5671C209.553 50.6112 209.519 50.6556 209.481 50.7003C209.447 50.7481 209.415 50.7941 209.384 50.8382C209.353 50.8823 209.335 50.915 209.33 50.9362C209.295 51.0601 209.33 51.166 209.435 51.2539C209.509 51.3167 209.596 51.3456 209.696 51.3406C209.796 51.3355 209.877 51.2958 209.94 51.2213C209.993 51.158 210.045 51.0931 210.095 51.0266C210.147 50.9564 210.199 50.8881 210.248 50.8217C210.413 50.6037 210.576 50.3876 210.738 50.1733C210.899 49.959 211.059 49.7398 211.216 49.5155C211.253 49.4639 211.287 49.4161 211.318 49.372C211.352 49.3242 211.382 49.2766 211.409 49.2294C211.492 49.2292 211.579 49.2357 211.67 49.2486C211.761 49.2616 211.855 49.309 211.952 49.3906C212.011 49.4408 212.061 49.4954 212.101 49.5543C212.14 49.6131 212.16 49.684 212.16 49.767C212.156 49.8399 212.126 49.9324 212.07 50.0443C212.02 50.1557 211.953 50.2773 211.867 50.409C211.782 50.5407 211.686 50.6768 211.581 50.8171C211.478 50.9538 211.375 51.087 211.272 51.2168C211.169 51.3465 211.072 51.4654 210.981 51.5734C210.89 51.6814 210.818 51.7671 210.765 51.8304C210.727 51.8751 210.693 51.9195 210.662 51.9636C210.628 52.0114 210.604 52.0584 210.591 52.1045C210.574 52.1543 210.573 52.2045 210.588 52.2551C210.603 52.3057 210.638 52.3546 210.694 52.4017C210.768 52.4645 210.856 52.4933 210.955 52.4883C211.055 52.4833 211.137 52.4435 211.199 52.369C211.372 52.1642 211.541 51.9596 211.707 51.7553C211.876 51.5474 212.038 51.3365 212.193 51.1229C212.32 50.9496 212.441 50.7716 212.557 50.5888C212.673 50.4061 212.754 50.2229 212.8 50.0392C212.854 49.8549 212.856 49.6715 212.805 49.4891C212.759 49.3029 212.629 49.1204 212.417 48.9414C212.297 48.8409 212.163 48.7625 212.013 48.7061C211.863 48.6497 211.71 48.6161 211.553 48.6052C211.535 48.4754 211.484 48.3432 211.4 48.2086C211.316 48.074 211.226 47.9659 211.129 47.8842C211.08 47.8434 211.011 47.7975 210.92 47.7464C210.833 47.6985 210.738 47.6565 210.634 47.6204C210.652 47.5843 210.661 47.5663 210.661 47.5663C210.677 47.5096 210.674 47.4528 210.652 47.3959C210.633 47.3353 210.601 47.2862 210.556 47.2485C210.482 47.1857 210.394 47.1568 210.295 47.1618C210.195 47.1669 210.113 47.2067 210.051 47.2811C209.994 47.3482 209.939 47.4168 209.887 47.487C209.837 47.5534 209.786 47.6217 209.733 47.6919L209.088 48.5247C208.932 48.7246 208.773 48.918 208.609 49.1048C208.449 49.2947 208.287 49.4865 208.124 49.6802ZM210.946 54.5732C211.02 54.636 211.107 54.6649 211.207 54.6599C211.307 54.6548 211.388 54.6151 211.451 54.5406C211.523 54.4549 211.592 54.3695 211.657 54.2845C211.723 54.1994 211.788 54.1109 211.853 54.0189L212.384 53.3203C212.503 53.4969 212.641 53.6511 212.797 53.783C212.946 53.9086 213.107 54.009 213.279 54.0842C213.452 54.1663 213.628 54.2187 213.806 54.2416C213.991 54.2639 214.174 54.2552 214.353 54.2157C214.536 54.1725 214.713 54.0952 214.883 53.9839C214.975 53.9208 215.059 53.8515 215.135 53.7758C215.216 53.7033 215.292 53.6242 215.364 53.5385C215.493 53.3858 215.601 53.2159 215.689 53.0286C215.865 52.661 215.925 52.3136 215.87 51.9865C215.821 51.6587 215.638 51.3614 215.322 51.0945C215.218 51.0066 215.104 50.9332 214.982 50.8745C214.863 50.819 214.744 50.7634 214.625 50.7078C214.6 50.6996 214.575 50.6879 214.55 50.6728C214.524 50.6577 214.497 50.6444 214.468 50.633C214.497 50.5234 214.461 50.4262 214.361 50.3414C214.286 50.2786 214.199 50.2497 214.099 50.2548C213.999 50.2598 213.918 50.2996 213.855 50.3741C213.742 50.5082 213.631 50.6438 213.522 50.781C213.416 50.9214 213.309 51.0602 213.199 51.1974C213.081 51.3458 212.958 51.4945 212.833 51.6434C212.71 51.7887 212.592 51.9371 212.477 52.0886C212.445 52.1259 212.383 52.2038 212.289 52.3224C212.202 52.4404 212.098 52.5755 211.976 52.7276C211.858 52.8828 211.734 53.0455 211.603 53.2157C211.469 53.3896 211.346 53.5504 211.234 53.6982C211.122 53.846 211.031 53.9696 210.96 54.069C210.886 54.1721 210.846 54.2308 210.84 54.2452C210.802 54.3728 210.838 54.4822 210.946 54.5732ZM214.851 51.539C215.06 51.7148 215.173 51.9023 215.19 52.1014C215.21 52.3036 215.167 52.5216 215.059 52.7555C215.023 52.8277 214.984 52.8967 214.942 52.9626C214.903 53.0316 214.856 53.0978 214.803 53.1611C214.577 53.4292 214.333 53.5866 214.07 53.6331C213.811 53.6759 213.542 53.5795 213.263 53.344C213.188 53.2812 213.118 53.2094 213.053 53.1286C212.991 53.0509 212.937 52.9707 212.892 52.8881C212.88 52.865 212.867 52.8418 212.855 52.8187C212.846 52.7918 212.835 52.7668 212.823 52.7437C212.994 52.5251 213.165 52.3118 213.334 52.1038C213.509 51.8953 213.683 51.6817 213.855 51.4631C213.899 51.411 213.939 51.3591 213.976 51.3076C214.02 51.2554 214.064 51.2033 214.108 51.1511C214.112 51.1543 214.114 51.1559 214.114 51.1559C214.12 51.1553 214.126 51.1565 214.13 51.1597C214.245 51.2121 214.369 51.269 214.502 51.3302C214.638 51.3878 214.755 51.4574 214.851 51.539Z" fill="#121212"/>
</g>
<g opacity="0.8">
<circle cx="155.914" cy="16.914" r="11.4121" transform="rotate(-35.3333 155.914 16.914)" stroke="black" stroke-width="0.610272"/>
<circle cx="155.9" cy="16.8964" r="9.63591" transform="rotate(-35.3333 155.9 16.8964)" stroke="black" stroke-width="0.610272"/>
<path d="M150.967 17.7565C150.902 17.6721 150.825 17.6042 150.737 17.5528C150.651 17.4997 150.557 17.4548 150.456 17.4183C150.248 17.3438 150.053 17.3159 149.87 17.3348C149.686 17.3505 149.503 17.4067 149.32 17.5035C149.259 17.5357 149.201 17.5727 149.145 17.6146C149.091 17.6515 149.037 17.6941 148.985 17.7424C148.939 17.7872 148.893 17.8321 148.847 17.877C148.803 17.9169 148.761 17.9657 148.722 18.0234C148.604 18.1964 148.55 18.3874 148.558 18.5963C148.566 18.8053 148.618 19.001 148.715 19.1836C148.768 19.2829 148.831 19.3787 148.904 19.471C148.976 19.5601 149.06 19.6327 149.155 19.6888C149.25 19.7449 149.366 19.7779 149.503 19.7876C149.641 19.7925 149.784 19.7842 149.933 19.7629C150.081 19.7415 150.224 19.7131 150.361 19.6774C150.501 19.64 150.621 19.6072 150.721 19.5789C150.821 19.5506 150.926 19.5198 151.035 19.4864C151.146 19.4481 151.254 19.4383 151.358 19.4569C151.462 19.4755 151.552 19.5221 151.629 19.5965C151.708 19.6692 151.772 19.752 151.822 19.8448C151.844 19.8865 151.864 19.9289 151.883 19.9723C151.9 20.0124 151.912 20.0575 151.918 20.1076C151.928 20.1966 151.913 20.2804 151.873 20.3592C151.832 20.438 151.779 20.5114 151.713 20.5794C151.649 20.6458 151.579 20.7058 151.5 20.7595C151.425 20.8115 151.354 20.8554 151.287 20.891C151.149 20.964 151.009 21.02 150.865 21.059C150.791 21.0818 150.719 21.0998 150.648 21.1128C150.578 21.1209 150.51 21.1201 150.443 21.1103C150.38 21.0988 150.319 21.0735 150.262 21.0343C150.207 20.9935 150.158 20.9314 150.114 20.8481C150.102 20.8257 150.092 20.804 150.085 20.7831C150.077 20.759 150.066 20.7341 150.052 20.7085C150.02 20.6477 149.974 20.6107 149.913 20.5975C149.856 20.5826 149.8 20.5896 149.746 20.6185C149.692 20.6473 149.654 20.6814 149.634 20.7208C149.614 20.7602 149.604 20.8042 149.606 20.8528C149.608 20.8965 149.618 20.9425 149.636 20.9907C149.653 21.0389 149.674 21.0855 149.697 21.1303C149.789 21.3033 149.91 21.4317 150.061 21.5157C150.213 21.5997 150.383 21.6386 150.572 21.6326C150.64 21.6293 150.708 21.6205 150.774 21.6059C150.84 21.5914 150.907 21.5744 150.974 21.555C151.06 21.5303 151.142 21.5008 151.223 21.4665C151.308 21.4336 151.39 21.396 151.471 21.3536C151.637 21.2654 151.79 21.1596 151.93 21.0364C152.075 20.9146 152.187 20.7774 152.266 20.6247C152.35 20.4736 152.394 20.3088 152.397 20.1304C152.401 19.952 152.35 19.7619 152.243 19.5601C152.19 19.4608 152.128 19.3707 152.057 19.2897C151.985 19.2087 151.904 19.1409 151.814 19.0863C151.726 19.0299 151.631 18.99 151.529 18.9665C151.427 18.9381 151.322 18.9284 151.212 18.9375C151.118 18.9462 151.027 18.9637 150.938 18.9902C150.85 19.0166 150.759 19.0438 150.668 19.0719C150.518 19.1144 150.367 19.1552 150.216 19.1944C150.068 19.232 149.917 19.2566 149.763 19.2683C149.719 19.271 149.662 19.2707 149.59 19.2675C149.519 19.2644 149.465 19.2559 149.429 19.2422C149.37 19.216 149.315 19.1695 149.263 19.1026C149.209 19.0325 149.167 18.9687 149.137 18.911C149.093 18.8277 149.06 18.732 149.04 18.6239C149.023 18.514 149.037 18.4164 149.082 18.3311C149.104 18.2949 149.13 18.2627 149.16 18.2344C149.193 18.2044 149.225 18.1753 149.255 18.147C149.295 18.1137 149.333 18.0811 149.369 18.0495C149.409 18.0161 149.451 17.9876 149.496 17.9638C149.669 17.8722 149.855 17.8354 150.053 17.8534C150.249 17.8682 150.426 17.9451 150.581 18.0842C150.621 18.1205 150.665 18.1422 150.714 18.1491C150.763 18.1561 150.81 18.1477 150.855 18.1239C150.887 18.107 150.914 18.0844 150.936 18.0563C150.961 18.0266 150.979 17.9945 150.989 17.9602C151.003 17.9242 151.007 17.8893 151.001 17.8554C150.999 17.8198 150.988 17.7868 150.967 17.7565ZM154.152 16.8998C154.105 16.8101 154.031 16.7714 153.93 16.7834C153.906 16.784 153.852 16.8064 153.769 16.8505C153.687 16.8897 153.597 16.9356 153.498 16.9882C153.398 17.0408 153.305 17.0925 153.217 17.1432C153.127 17.1907 153.065 17.2238 153.029 17.2424L153 17.2577C152.956 17.1501 152.912 17.0442 152.869 16.9398C152.824 16.8322 152.78 16.7246 152.735 16.6171C152.718 16.5769 152.701 16.5368 152.683 16.4967C152.665 16.4533 152.646 16.4141 152.627 16.3788C152.595 16.318 152.549 16.281 152.488 16.2678C152.43 16.2497 152.373 16.2551 152.318 16.284C152.27 16.3094 152.233 16.3476 152.207 16.3985C152.18 16.4494 152.17 16.5023 152.174 16.5573C152.178 16.5799 152.186 16.6105 152.198 16.6492C152.212 16.6829 152.227 16.7198 152.245 16.7599C152.265 16.7984 152.284 16.8377 152.301 16.8778C152.32 16.913 152.333 16.9427 152.342 16.9668C152.38 17.0535 152.416 17.141 152.45 17.2293C152.486 17.3128 152.523 17.3978 152.561 17.4845L152.205 17.6607L151.936 17.8032C151.872 17.8372 151.829 17.8909 151.806 17.9644C151.783 18.0378 151.789 18.1066 151.823 18.1707C151.871 18.2603 151.945 18.3007 152.047 18.2919C152.058 18.29 152.086 18.2796 152.129 18.2607C152.176 18.2402 152.232 18.2145 152.298 18.1838C152.365 18.1482 152.438 18.1116 152.516 18.0741C152.596 18.0317 152.676 17.9892 152.756 17.9468C152.832 18.1282 152.911 18.308 152.993 18.486C153.078 18.6623 153.167 18.8386 153.261 19.0147C153.303 19.0948 153.346 19.1724 153.39 19.2476C153.434 19.3227 153.48 19.3946 153.529 19.4632C153.588 19.551 153.649 19.6273 153.712 19.6923C153.775 19.7573 153.843 19.8076 153.915 19.8432C153.987 19.8788 154.065 19.8948 154.15 19.8912C154.234 19.8876 154.326 19.8595 154.425 19.8069C154.466 19.7848 154.518 19.7495 154.578 19.7011C154.643 19.6542 154.705 19.6008 154.764 19.5411C154.827 19.4828 154.884 19.4239 154.935 19.3644C154.985 19.3048 155.017 19.253 155.031 19.2089C155.058 19.1369 155.053 19.0657 155.016 18.9952C154.984 18.9344 154.938 18.8974 154.877 18.8842C154.819 18.8661 154.762 18.8715 154.707 18.9004C154.679 18.9156 154.649 18.9415 154.619 18.9778C154.589 19.0142 154.556 19.0563 154.52 19.1042C154.482 19.1489 154.44 19.1936 154.394 19.2385C154.348 19.2834 154.298 19.3202 154.244 19.349C154.231 19.3558 154.214 19.3627 154.193 19.3697C154.176 19.375 154.16 19.377 154.147 19.3756C154.118 19.3666 154.081 19.3351 154.036 19.281C153.989 19.2237 153.941 19.1608 153.892 19.0922C153.847 19.022 153.804 18.9525 153.763 18.8837C153.726 18.8133 153.7 18.7636 153.685 18.7348C153.595 18.5651 153.51 18.3968 153.43 18.2301C153.351 18.0585 153.274 17.886 153.198 17.7127L153.299 17.6592L154.039 17.2673C154.103 17.2333 154.146 17.1796 154.169 17.1061C154.192 17.0326 154.186 16.9639 154.152 16.8998ZM155.312 16.5436C155.376 16.5097 155.446 16.4829 155.522 16.4633C155.596 16.4404 155.67 16.4298 155.745 16.4313C155.823 16.431 155.898 16.4447 155.97 16.4722C156.043 16.4948 156.108 16.5362 156.165 16.5965L156.21 16.6465C156.116 16.6633 156.03 16.6864 155.951 16.7158C155.874 16.7403 155.813 16.7645 155.768 16.7882C155.637 16.8578 155.517 16.9498 155.41 17.0642C155.3 17.1754 155.215 17.3006 155.153 17.4399C155.092 17.5791 155.059 17.7258 155.054 17.8799C155.053 18.0324 155.091 18.1823 155.169 18.3296C155.254 18.4897 155.358 18.6048 155.482 18.6748C155.605 18.7449 155.735 18.7824 155.873 18.7872C156.016 18.7936 156.159 18.7732 156.302 18.726C156.447 18.6821 156.584 18.6262 156.712 18.5583C156.785 18.5193 156.858 18.4746 156.93 18.4243C157.002 18.3739 157.07 18.3213 157.135 18.2662C157.229 18.1878 157.298 18.1165 157.342 18.0522C157.387 17.9911 157.411 17.9274 157.413 17.8608C157.418 17.7926 157.406 17.7208 157.378 17.6452C157.349 17.5665 157.306 17.4742 157.25 17.3686C157.188 17.2501 157.121 17.1357 157.05 17.0255C156.981 16.9104 156.91 16.7961 156.838 16.6827C156.779 16.5869 156.718 16.4918 156.656 16.3976C156.597 16.3017 156.525 16.2167 156.441 16.1425C156.35 16.0636 156.248 16.0068 156.135 15.9721C156.024 15.9326 155.909 15.9134 155.791 15.9146C155.676 15.9141 155.561 15.9297 155.447 15.9616C155.331 15.9903 155.223 16.0309 155.124 16.0835C155.05 16.1226 154.981 16.1671 154.918 16.2173C154.852 16.2642 154.789 16.3144 154.727 16.3677C154.693 16.3977 154.657 16.4293 154.617 16.4627C154.579 16.4912 154.546 16.5252 154.517 16.5648C154.489 16.6043 154.471 16.6469 154.462 16.6925C154.457 16.7364 154.468 16.7856 154.497 16.84C154.529 16.9009 154.575 16.9404 154.634 16.9584C154.694 16.9716 154.751 16.9638 154.806 16.9349C154.838 16.9179 154.866 16.897 154.889 16.8721C154.913 16.8473 154.938 16.8215 154.965 16.795C155.018 16.7467 155.072 16.7017 155.128 16.6598C155.187 16.6163 155.248 16.5775 155.312 16.5436ZM156.911 17.8192C156.852 17.8789 156.79 17.9323 156.725 17.9792C156.661 18.0212 156.592 18.0618 156.519 18.1008C156.451 18.1364 156.374 18.1715 156.285 18.206C156.197 18.2405 156.11 18.262 156.024 18.2705C155.937 18.2758 155.854 18.264 155.778 18.235C155.699 18.2028 155.635 18.1403 155.586 18.0474C155.549 17.9769 155.532 17.906 155.535 17.8346C155.538 17.7713 155.552 17.7126 155.577 17.6585C155.603 17.5995 155.636 17.5452 155.675 17.4957C155.713 17.4429 155.756 17.3973 155.806 17.3588C155.853 17.3172 155.903 17.2828 155.954 17.2556C156.018 17.2217 156.089 17.1941 156.168 17.1727C156.247 17.1514 156.322 17.1383 156.394 17.1334C156.444 17.1354 156.491 17.1392 156.535 17.1447C156.586 17.2245 156.635 17.3068 156.684 17.3916C156.735 17.4715 156.783 17.5547 156.829 17.6411C156.842 17.6668 156.856 17.6964 156.87 17.7302C156.887 17.7622 156.9 17.7919 156.911 17.8192ZM157.974 17.5511C158.005 17.6087 158.049 17.645 158.106 17.6599C158.166 17.673 158.223 17.6652 158.278 17.6363C158.319 17.6143 158.355 17.577 158.385 17.5244C158.42 17.4603 158.432 17.4049 158.42 17.3582C158.407 17.3115 158.386 17.2568 158.357 17.1943L158.138 16.7812C158.121 16.7491 158.09 16.6939 158.045 16.6156C158.002 16.5355 157.951 16.4435 157.892 16.3395C157.836 16.2338 157.774 16.1234 157.704 16.0083C157.637 15.8883 157.573 15.7763 157.514 15.6723C157.544 15.6278 157.576 15.5841 157.611 15.5411C157.647 15.4933 157.695 15.4532 157.756 15.421C157.807 15.3938 157.866 15.377 157.933 15.3706C157.999 15.3642 158.057 15.3766 158.106 15.4079C158.124 15.4188 158.155 15.4537 158.199 15.5127C158.245 15.57 158.296 15.6417 158.35 15.728C158.407 15.8126 158.466 15.906 158.529 16.0083C158.59 16.1074 158.647 16.2042 158.701 16.2985C158.757 16.388 158.806 16.4703 158.85 16.5455C158.894 16.6207 158.926 16.6734 158.946 16.7037C158.957 16.723 158.972 16.7518 158.992 16.7902C159.014 16.8237 159.035 16.8597 159.056 16.8982C159.079 16.9349 159.102 16.97 159.124 17.0036C159.146 17.0371 159.163 17.0586 159.176 17.068C159.252 17.1262 159.335 17.1315 159.425 17.084C159.489 17.0501 159.533 16.998 159.557 16.9277C159.582 16.8574 159.577 16.7902 159.543 16.7262C159.514 16.6717 159.484 16.6181 159.451 16.5654C159.418 16.5094 159.385 16.4551 159.353 16.4023C159.248 16.2281 159.144 16.0554 159.041 15.8844C158.939 15.7133 158.832 15.5424 158.721 15.3715C158.695 15.3316 158.672 15.2948 158.65 15.2613C158.626 15.2246 158.602 15.1903 158.577 15.1584C158.6 15.1012 158.628 15.0429 158.663 14.9838C158.697 14.9246 158.756 14.8729 158.839 14.8288C158.89 14.8017 158.942 14.7826 158.993 14.7717C159.045 14.7607 159.099 14.7668 159.157 14.7897C159.206 14.8129 159.261 14.8594 159.323 14.9293C159.386 14.9943 159.451 15.0746 159.518 15.1703C159.585 15.266 159.653 15.3698 159.72 15.4817C159.786 15.5904 159.849 15.6983 159.91 15.8055C159.971 15.9127 160.026 16.0128 160.075 16.1056C160.125 16.1985 160.164 16.2722 160.192 16.3266C160.213 16.365 160.234 16.401 160.256 16.4346C160.279 16.4713 160.305 16.5007 160.333 16.5227C160.363 16.548 160.397 16.5625 160.436 16.5665C160.475 16.5704 160.519 16.5597 160.567 16.5342C160.631 16.5003 160.675 16.4482 160.7 16.3779C160.724 16.3076 160.719 16.2404 160.685 16.1764C160.592 16.0002 160.498 15.8266 160.403 15.6553C160.306 15.4809 160.206 15.3106 160.101 15.1444C160.017 15.0086 159.928 14.8753 159.834 14.7446C159.74 14.6138 159.636 14.5068 159.523 14.4236C159.41 14.3355 159.284 14.2833 159.144 14.2671C159.003 14.2478 158.841 14.2865 158.658 14.3832C158.556 14.4375 158.464 14.5085 158.384 14.5964C158.303 14.6842 158.237 14.7806 158.186 14.8855C158.092 14.8618 157.986 14.8603 157.87 14.8808C157.754 14.9014 157.654 14.9338 157.571 14.9779C157.529 14.9999 157.478 15.0352 157.417 15.0836C157.36 15.1304 157.305 15.1844 157.251 15.2456C157.231 15.2234 157.221 15.2123 157.221 15.2123C157.186 15.1855 157.146 15.1719 157.101 15.1713C157.054 15.1676 157.011 15.1759 156.973 15.1963C156.909 15.2302 156.864 15.2823 156.84 15.3526C156.816 15.4229 156.821 15.49 156.855 15.5541C156.885 15.6117 156.917 15.6685 156.951 15.7245C156.983 15.7772 157.016 15.8316 157.05 15.8875L157.445 16.564C157.54 16.7272 157.629 16.8913 157.712 17.0563C157.799 17.2196 157.886 17.3846 157.974 17.5511ZM162.136 16.9644C162.2 16.9305 162.244 16.8784 162.268 16.8081C162.292 16.7378 162.287 16.6707 162.254 16.6066C162.215 16.5329 162.175 16.4617 162.134 16.393C162.094 16.3242 162.051 16.2547 162.005 16.1844L161.671 15.6232C161.826 15.5904 161.971 15.5384 162.105 15.4671C162.233 15.3992 162.347 15.3163 162.447 15.2183C162.552 15.1218 162.637 15.0152 162.702 14.8985C162.769 14.777 162.814 14.6487 162.837 14.5136C162.858 14.3753 162.853 14.2319 162.824 14.0834C162.806 14.0028 162.781 13.9255 162.75 13.8517C162.723 13.7761 162.689 13.7015 162.65 13.6279C162.581 13.4965 162.494 13.3746 162.389 13.2619C162.184 13.0382 161.961 12.8999 161.72 12.8472C161.48 12.7897 161.224 12.833 160.952 12.9772C160.862 13.0247 160.78 13.0826 160.706 13.1508C160.634 13.2174 160.563 13.2839 160.491 13.3504C160.479 13.3653 160.464 13.3794 160.446 13.3928C160.429 13.4062 160.412 13.4212 160.396 13.4378C160.329 13.3875 160.252 13.3853 160.165 13.4311C160.101 13.465 160.057 13.5171 160.033 13.5874C160.008 13.6577 160.013 13.7249 160.047 13.7889C160.108 13.9042 160.171 14.0187 160.235 14.1322C160.303 14.2441 160.368 14.3569 160.433 14.4705C160.502 14.5937 160.571 14.7194 160.639 14.8475C160.705 14.9724 160.774 15.0956 160.847 15.2171C160.864 15.2491 160.9 15.3139 160.956 15.4115C161.013 15.5042 161.077 15.6137 161.148 15.7401C161.223 15.8648 161.3 15.996 161.381 16.1335C161.464 16.2742 161.541 16.4037 161.612 16.522C161.683 16.6403 161.743 16.7378 161.792 16.8145C161.842 16.8944 161.871 16.9382 161.88 16.9462C161.957 17.0076 162.043 17.0137 162.136 16.9644ZM161.128 13.4254C161.307 13.3304 161.468 13.3047 161.61 13.3484C161.755 13.3903 161.894 13.4811 162.025 13.6207C162.065 13.6652 162.102 13.7113 162.135 13.7592C162.172 13.8053 162.205 13.8556 162.234 13.91C162.356 14.1406 162.397 14.3529 162.356 14.5468C162.313 14.7375 162.172 14.8964 161.932 15.0237C161.868 15.0576 161.799 15.086 161.725 15.1088C161.654 15.13 161.584 15.1446 161.514 15.1527C161.495 15.1548 161.475 15.1569 161.456 15.1589C161.435 15.1578 161.414 15.1583 161.395 15.1604C161.292 14.9812 161.192 14.8044 161.096 14.63C161.001 14.4506 160.901 14.2714 160.798 14.0922C160.775 14.0474 160.75 14.005 160.725 13.9651C160.701 13.9202 160.677 13.8754 160.654 13.8306C160.657 13.8289 160.658 13.828 160.658 13.828C160.66 13.8231 160.662 13.8198 160.665 13.8181C160.734 13.7533 160.807 13.6834 160.887 13.6086C160.964 13.5306 161.045 13.4695 161.128 13.4254Z" fill="#121212"/>
</g>
<path d="M0.5 360C18.793 361.104 56.5433 358.686 68.6852 341.142C69.582 339.846 71.6892 339.673 72.8054 340.785C80.5562 348.51 102.745 360 147 360C197 360 320.167 360 375.5 360" stroke="#333333" stroke-width="2.5" stroke-linecap="round"/>
<mask id="path-17-inside-1_1213_7237" fill="white">
<path fill-rule="evenodd" clip-rule="evenodd" d="M230.818 262.543C240.684 259.463 249.081 252.035 253.013 241.616C259.796 223.646 250.726 203.58 232.755 196.797C214.785 190.015 194.718 199.085 187.936 217.055C183.792 228.034 185.566 239.796 191.67 248.832L181.392 276.065L139.139 260.118C136.556 259.143 133.671 260.447 132.696 263.031L122.766 289.342C121.79 291.926 123.094 294.811 125.678 295.786L250.231 342.794C252.815 343.769 255.7 342.465 256.675 339.881L266.605 313.57C267.58 310.986 266.276 308.101 263.693 307.126L220.188 290.707L230.818 262.543Z"/>
</mask>
<path fill-rule="evenodd" clip-rule="evenodd" d="M230.818 262.543C240.684 259.463 249.081 252.035 253.013 241.616C259.796 223.646 250.726 203.58 232.755 196.797C214.785 190.015 194.718 199.085 187.936 217.055C183.792 228.034 185.566 239.796 191.67 248.832L181.392 276.065L139.139 260.118C136.556 259.143 133.671 260.447 132.696 263.031L122.766 289.342C121.79 291.926 123.094 294.811 125.678 295.786L250.231 342.794C252.815 343.769 255.7 342.465 256.675 339.881L266.605 313.57C267.58 310.986 266.276 308.101 263.693 307.126L220.188 290.707L230.818 262.543Z" fill="#FFFDF3"/>
<path d="M230.818 262.543L230.073 260.157C229.339 260.386 228.751 260.94 228.479 261.66L230.818 262.543ZM191.67 248.832L194.009 249.715C194.296 248.956 194.196 248.105 193.742 247.432L191.67 248.832ZM181.392 276.065L180.509 278.404C181.801 278.892 183.244 278.24 183.731 276.948L181.392 276.065ZM139.139 260.118L140.022 257.779L139.139 260.118ZM256.675 339.881L254.336 338.999L256.675 339.881ZM266.605 313.57L268.944 314.453L266.605 313.57ZM263.693 307.126L262.81 309.465L263.693 307.126ZM220.188 290.707L217.849 289.824C217.362 291.116 218.014 292.559 219.306 293.046L220.188 290.707ZM250.674 240.734C247.025 250.403 239.236 257.296 230.073 260.157L231.563 264.929C242.131 261.629 251.137 253.668 255.352 242.499L250.674 240.734ZM231.872 199.136C248.551 205.431 256.969 224.055 250.674 240.734L255.352 242.499C262.622 223.237 252.9 201.728 233.638 194.458L231.872 199.136ZM190.275 217.938C196.57 201.259 215.194 192.841 231.872 199.136L233.638 194.458C214.376 187.188 192.867 196.91 185.597 216.173L190.275 217.938ZM193.742 247.432C188.072 239.039 186.43 228.126 190.275 217.938L185.597 216.173C181.155 227.943 183.059 240.552 189.599 250.231L193.742 247.432ZM189.331 247.949L179.053 275.182L183.731 276.948L194.009 249.715L189.331 247.949ZM182.275 273.726L140.022 257.779L138.257 262.457L180.509 278.404L182.275 273.726ZM140.022 257.779C136.147 256.317 131.82 258.273 130.357 262.148L135.035 263.913C135.522 262.622 136.965 261.97 138.257 262.457L140.022 257.779ZM130.357 262.148L120.427 288.46L125.105 290.225L135.035 263.913L130.357 262.148ZM120.427 288.46C118.964 292.335 120.92 296.662 124.795 298.125L126.561 293.447C125.269 292.959 124.617 291.517 125.105 290.225L120.427 288.46ZM124.795 298.125L249.349 345.133L251.114 340.455L126.561 293.447L124.795 298.125ZM249.349 345.133C253.224 346.595 257.551 344.639 259.014 340.764L254.336 338.999C253.848 340.29 252.406 340.942 251.114 340.455L249.349 345.133ZM259.014 340.764L268.944 314.453L264.266 312.687L254.336 338.999L259.014 340.764ZM268.944 314.453C270.407 310.577 268.451 306.25 264.576 304.787L262.81 309.465C264.102 309.953 264.754 311.395 264.266 312.687L268.944 314.453ZM264.576 304.787L221.071 288.368L219.306 293.046L262.81 309.465L264.576 304.787ZM222.527 291.59L233.157 263.426L228.479 261.66L217.849 289.824L222.527 291.59Z" fill="black" mask="url(#path-17-inside-1_1213_7237)"/>
<rect x="131.192" y="296.611" width="123.239" height="7.30946" rx="3.65473" transform="rotate(20.6772 131.192 296.611)" fill="#FD774C" stroke="black" stroke-width="2.5"/>
</svg>
