<svg width="32" height="32" viewBox="0 0 32 32" fill="none" xmlns="http://www.w3.org/2000/svg">
<circle cx="16" cy="16" r="16" fill="#BDBDBD"/>
<path d="M13.3333 19.7073H21.133L22.4762 20.7883V12.6829H23.2381C23.4402 12.6829 23.634 12.7652 23.7768 12.9115C23.9197 13.0579 24 13.2564 24 13.4634V24L20.6057 21.2683H14.0952C13.8932 21.2683 13.6994 21.1861 13.5565 21.0397C13.4136 20.8933 13.3333 20.6948 13.3333 20.4878V19.7073ZM11.3943 18.1463L8 20.878V8.78049C8 8.57349 8.08027 8.37497 8.22316 8.2286C8.36604 8.08223 8.55984 8 8.7619 8H20.1905C20.3925 8 20.5863 8.08223 20.7292 8.2286C20.8721 8.37497 20.9524 8.57349 20.9524 8.78049V18.1463H11.3943Z" fill="white"/>
</svg>
