<svg width="32" height="32" viewBox="0 0 32 32" fill="none" xmlns="http://www.w3.org/2000/svg">
<circle cx="16" cy="16" r="16" fill="#BDBDBD"/>
<path d="M11.564 21.1282L8 24V8.82051C8 8.6029 8.08429 8.3942 8.23431 8.24032C8.38434 8.08645 8.58783 8 8.8 8H23.2C23.4122 8 23.6157 8.08645 23.7657 8.24032C23.9157 8.3942 24 8.6029 24 8.82051V20.3077C24 20.5253 23.9157 20.734 23.7657 20.8879C23.6157 21.0418 23.4122 21.1282 23.2 21.1282H11.564ZM15.2 17.0256V18.6667H16.8V17.0256H15.2ZM13.2536 12.7696L14.8232 13.0921C14.8677 12.8635 14.9747 12.6526 15.1315 12.484C15.2883 12.3153 15.4887 12.1957 15.7091 12.1392C15.9296 12.0828 16.1612 12.0917 16.377 12.1649C16.5927 12.2381 16.7838 12.3727 16.9279 12.553C17.072 12.7332 17.1632 12.9517 17.1909 13.1831C17.2187 13.4144 17.1818 13.6491 17.0846 13.8598C16.9874 14.0705 16.8339 14.2485 16.6419 14.3732C16.4498 14.4979 16.2273 14.5641 16 14.5641H15.2V16.2051H16C16.5302 16.205 17.0495 16.0504 17.4974 15.7594C17.9453 15.4684 18.3035 15.053 18.5302 14.5614C18.7569 14.0698 18.8429 13.5223 18.7782 12.9825C18.7134 12.4428 18.5005 11.933 18.1644 11.5125C17.8282 11.092 17.3825 10.778 16.8792 10.6071C16.3758 10.4361 15.8355 10.4153 15.3211 10.547C14.8066 10.6787 14.3392 10.9575 13.9732 11.351C13.6072 11.7444 13.3577 12.2364 13.2536 12.7696Z" fill="white"/>
</svg>
