<svg width="48" height="48" viewBox="0 0 48 48" fill="none" xmlns="http://www.w3.org/2000/svg">
<circle cx="24" cy="24" r="20" fill="#554338"/>
<path d="M15 25H21V23H15V13.846C15 13.7591 15.0227 13.6737 15.0657 13.5983C15.1088 13.5228 15.1708 13.4599 15.2456 13.4156C15.3204 13.3714 15.4054 13.3475 15.4923 13.3461C15.5791 13.3448 15.6649 13.3661 15.741 13.408L34.203 23.562C34.2814 23.6051 34.3468 23.6686 34.3923 23.7456C34.4378 23.8226 34.4618 23.9105 34.4618 24C34.4618 24.0895 34.4378 24.1773 34.3923 24.2544C34.3468 24.3314 34.2814 24.3948 34.203 24.438L15.741 34.592C15.6649 34.6339 15.5791 34.6552 15.4923 34.6538C15.4054 34.6525 15.3204 34.6285 15.2456 34.5843C15.1708 34.5401 15.1088 34.4772 15.0657 34.4017C15.0227 34.3263 15 34.2409 15 34.154V25Z" fill="#FFFDF3"/>
</svg>
