<svg width="375" height="477" viewBox="0 0 375 477" fill="none" xmlns="http://www.w3.org/2000/svg">
<path d="M208.75 185.5C208.75 197.814 198.987 207.75 187 207.75C175.013 207.75 165.25 197.814 165.25 185.5C165.25 173.186 175.013 163.25 187 163.25C198.987 163.25 208.75 173.186 208.75 185.5Z" fill="#FFD373" stroke="#121212" stroke-width="2.5"/>
<path d="M187 132C153.311 132 126 159.311 126 193H248C248 159.311 220.689 132 187 132Z" fill="#FFFDF3" stroke="#121212" stroke-width="2.5" stroke-linejoin="round"/>
<path d="M176.752 168.211C176.941 168.633 176.948 169.047 176.773 169.455C176.599 169.847 176.322 170.211 175.944 170.545C175.566 170.88 175.13 171.171 174.635 171.418C174.155 171.665 173.697 171.84 173.261 171.942C172.781 172.044 172.272 172.087 171.733 172.073C171.21 172.073 170.679 172.007 170.141 171.876C169.617 171.76 169.101 171.578 168.592 171.331C168.097 171.098 167.639 170.807 167.217 170.458C166.708 170.036 166.308 169.535 166.017 168.953C165.741 168.356 165.537 167.724 165.406 167.055C165.275 166.385 165.202 165.716 165.188 165.047C165.188 164.364 165.21 163.724 165.253 163.127C165.297 162.589 165.406 162.029 165.581 161.447C165.755 160.865 165.995 160.298 166.301 159.745C166.621 159.178 166.999 158.655 167.435 158.175C167.886 157.695 168.41 157.287 169.006 156.953C169.457 156.691 169.959 156.516 170.512 156.429C171.079 156.327 171.646 156.305 172.213 156.364C172.795 156.407 173.341 156.531 173.85 156.735C174.373 156.924 174.817 157.185 175.181 157.52C175.413 157.724 175.653 158.007 175.901 158.371C176.162 158.735 176.352 159.105 176.468 159.484C176.584 159.862 176.584 160.218 176.468 160.553C176.366 160.873 176.075 161.091 175.595 161.207C175.392 161.265 175.21 161.28 175.05 161.251C174.89 161.207 174.744 161.142 174.613 161.055C174.482 160.953 174.359 160.836 174.242 160.705C174.126 160.575 174.017 160.444 173.915 160.313C173.566 159.891 173.159 159.607 172.693 159.462C172.228 159.302 171.762 159.265 171.297 159.353C170.846 159.425 170.417 159.615 170.01 159.92C169.617 160.211 169.312 160.589 169.093 161.055C168.861 161.549 168.672 162.095 168.526 162.691C168.395 163.273 168.322 163.869 168.308 164.48C168.293 165.076 168.344 165.658 168.461 166.225C168.592 166.793 168.81 167.295 169.115 167.731C169.348 168.08 169.632 168.364 169.966 168.582C170.315 168.8 170.686 168.953 171.079 169.04C171.472 169.127 171.864 169.142 172.257 169.084C172.664 169.025 173.057 168.895 173.435 168.691C173.552 168.633 173.675 168.553 173.806 168.451C173.952 168.335 174.097 168.218 174.242 168.102C174.388 167.985 174.533 167.876 174.679 167.775C174.839 167.673 175.006 167.6 175.181 167.556C175.442 167.469 175.726 167.476 176.032 167.578C176.352 167.68 176.592 167.891 176.752 168.211ZM180.706 162.691C181.142 162.473 181.601 162.32 182.081 162.233C182.561 162.131 183.033 162.109 183.499 162.167C183.979 162.211 184.437 162.335 184.873 162.538C185.31 162.727 185.717 163.004 186.095 163.367C186.473 163.745 186.764 164.16 186.968 164.611C187.171 165.062 187.317 165.564 187.404 166.116C187.462 166.495 187.557 166.844 187.688 167.164C187.819 167.484 187.957 167.804 188.102 168.124C188.262 168.444 188.408 168.764 188.539 169.084C188.684 169.404 188.801 169.738 188.888 170.087C188.961 170.422 188.931 170.742 188.801 171.047C188.684 171.367 188.437 171.564 188.059 171.636C187.841 171.68 187.63 171.658 187.426 171.571C187.237 171.498 187.062 171.382 186.902 171.222C186.742 171.076 186.597 170.909 186.466 170.72C186.35 170.545 186.241 170.378 186.139 170.218C185.804 170.655 185.441 170.989 185.048 171.222C184.655 171.469 184.182 171.629 183.63 171.702C183.164 171.76 182.721 171.775 182.299 171.745C181.877 171.716 181.426 171.636 180.946 171.505C180.321 171.345 179.804 171.062 179.397 170.655C179.004 170.262 178.699 169.804 178.481 169.28C178.277 168.742 178.168 168.167 178.153 167.556C178.139 166.945 178.211 166.342 178.371 165.745C178.575 164.96 178.881 164.32 179.288 163.825C179.695 163.331 180.168 162.953 180.706 162.691ZM181.251 165.244C181.048 165.447 180.888 165.687 180.771 165.964C180.655 166.24 180.582 166.531 180.553 166.836C180.539 167.142 180.568 167.447 180.641 167.753C180.713 168.058 180.83 168.327 180.99 168.56C181.135 168.764 181.382 168.938 181.731 169.084C182.081 169.215 182.444 169.295 182.822 169.324C183.259 169.353 183.637 169.236 183.957 168.975C184.291 168.713 184.539 168.385 184.699 167.993C184.873 167.585 184.953 167.156 184.939 166.705C184.924 166.24 184.801 165.818 184.568 165.44C184.393 165.164 184.161 164.96 183.87 164.829C183.593 164.698 183.295 164.633 182.975 164.633C182.655 164.618 182.335 164.669 182.015 164.785C181.71 164.887 181.455 165.04 181.251 165.244ZM195.378 162.647C195.625 162.72 195.785 162.858 195.858 163.062C195.931 163.251 195.953 163.455 195.924 163.673C195.836 164.124 195.589 164.4 195.182 164.502C194.949 164.56 194.709 164.589 194.462 164.589C194.229 164.589 193.989 164.596 193.742 164.611V169.651C193.742 170 193.72 170.356 193.676 170.72C193.676 170.851 193.64 170.989 193.567 171.135C193.538 171.207 193.516 171.251 193.502 171.265C193.502 171.295 193.487 171.338 193.458 171.396C193.371 171.556 193.255 171.687 193.109 171.789C192.789 171.964 192.447 172.007 192.084 171.92C191.865 171.876 191.698 171.804 191.582 171.702C191.451 171.6 191.356 171.476 191.298 171.331C191.269 171.258 191.247 171.185 191.233 171.113C191.218 171.04 191.196 170.967 191.167 170.895C191.153 170.822 191.138 170.749 191.124 170.676C191.124 170.618 191.124 170.567 191.124 170.524V169.258C191.124 168.502 191.124 167.716 191.124 166.902C191.138 166.087 191.145 165.302 191.145 164.545C190.811 164.531 190.462 164.524 190.098 164.524C189.749 164.509 189.495 164.422 189.335 164.262C189.247 164.175 189.189 164.065 189.16 163.935C189.131 163.789 189.116 163.644 189.116 163.498C189.131 163.353 189.16 163.222 189.204 163.105C189.247 162.975 189.305 162.88 189.378 162.822C189.567 162.647 189.735 162.553 189.88 162.538C190.04 162.509 190.236 162.487 190.469 162.473C190.498 162.473 190.593 162.473 190.753 162.473C190.927 162.458 191.036 162.451 191.08 162.451C191.095 161.956 191.109 161.462 191.124 160.967C191.138 160.473 191.182 160.022 191.255 159.615C191.342 159.193 191.465 158.829 191.625 158.524C191.8 158.204 192.062 157.964 192.411 157.804C192.833 157.615 193.313 157.498 193.851 157.455C194.389 157.411 194.876 157.476 195.313 157.651C195.516 157.724 195.713 157.869 195.902 158.087C196.105 158.305 196.2 158.545 196.185 158.807C196.171 159.069 196.12 159.309 196.033 159.527C195.945 159.745 195.756 159.891 195.465 159.964C195.335 159.993 195.196 160.007 195.051 160.007C194.92 159.993 194.782 159.985 194.636 159.985C194.491 159.985 194.353 160.007 194.222 160.051C194.105 160.08 194.004 160.145 193.916 160.247C193.844 160.335 193.793 160.451 193.764 160.596C193.749 160.742 193.735 160.895 193.72 161.055C193.705 161.215 193.698 161.375 193.698 161.535C193.713 161.68 193.72 161.804 193.72 161.905V162.451C194.055 162.48 194.36 162.502 194.636 162.516C194.927 162.531 195.175 162.575 195.378 162.647ZM204.07 168.887C204.245 168.844 204.419 168.815 204.594 168.8C204.783 168.785 204.95 168.807 205.096 168.865C205.256 168.924 205.387 169.025 205.488 169.171C205.59 169.302 205.641 169.491 205.641 169.738C205.641 169.913 205.598 170.08 205.51 170.24C205.423 170.4 205.314 170.545 205.183 170.676C205.052 170.807 204.907 170.916 204.747 171.004C204.587 171.105 204.434 171.185 204.288 171.244C203.867 171.433 203.379 171.578 202.827 171.68C202.288 171.782 201.728 171.818 201.147 171.789C200.361 171.76 199.605 171.6 198.878 171.309C198.165 171.033 197.605 170.567 197.198 169.913C196.819 169.273 196.594 168.56 196.521 167.775C196.448 166.989 196.485 166.247 196.63 165.549C196.79 164.705 197.059 164.022 197.438 163.498C197.83 162.96 198.296 162.531 198.834 162.211C199.488 161.833 200.223 161.636 201.038 161.622C201.852 161.607 202.63 161.767 203.372 162.102C203.867 162.32 204.31 162.618 204.703 162.996C205.096 163.36 205.394 163.804 205.598 164.327C205.656 164.458 205.699 164.618 205.728 164.807C205.772 164.996 205.801 165.2 205.816 165.418C205.83 165.622 205.83 165.825 205.816 166.029C205.801 166.233 205.765 166.415 205.707 166.575C205.619 166.836 205.51 167.04 205.379 167.185C205.248 167.331 205.081 167.44 204.878 167.513C204.674 167.585 204.427 167.636 204.136 167.665C203.859 167.68 203.525 167.695 203.132 167.709C202.783 167.724 202.456 167.731 202.15 167.731C201.845 167.731 201.532 167.731 201.212 167.731C200.892 167.716 200.558 167.709 200.208 167.709C199.874 167.695 199.496 167.68 199.074 167.665C199.03 167.956 199.067 168.211 199.183 168.429C199.314 168.633 199.488 168.807 199.707 168.953C199.925 169.084 200.172 169.185 200.448 169.258C200.725 169.331 200.994 169.375 201.256 169.389C201.75 169.418 202.223 169.382 202.674 169.28C203.125 169.164 203.59 169.033 204.07 168.887ZM203.132 164.655C202.856 164.335 202.565 164.102 202.259 163.956C202.027 163.855 201.779 163.811 201.518 163.825C201.27 163.825 201.03 163.862 200.798 163.935C200.376 164.036 200.019 164.255 199.728 164.589C199.699 164.618 199.648 164.691 199.576 164.807C199.503 164.909 199.43 165.018 199.358 165.135C199.299 165.251 199.256 165.36 199.227 165.462C199.198 165.564 199.212 165.615 199.27 165.615H203.547C203.532 165.411 203.496 165.244 203.438 165.113C203.379 164.967 203.278 164.815 203.132 164.655Z" fill="black"/>
<path d="M187 132L187 -5" stroke="#333333" stroke-width="2.5" stroke-linecap="round" stroke-linejoin="round"/>
<path d="M84.2032 318.042C74.8046 328.424 60.5569 332.762 44.9833 331.237C29.4098 329.712 12.5997 322.321 -1.70647 309.37C-16.0127 296.418 -25.0334 280.423 -28.0946 265.077C-31.1558 249.732 -28.2511 235.124 -18.8525 224.743C-9.45384 214.361 4.79386 210.023 20.3675 211.548C35.9409 213.073 52.751 220.463 67.0572 233.415C81.3634 246.367 90.3841 262.362 93.4453 277.707C96.5065 293.053 93.6018 307.661 84.2032 318.042Z" fill="#FFA06A" stroke="#121212" stroke-width="2.5"/>
<path d="M69.2923 295.2C58.9919 289.418 23.3518 255.085 6.81934 238.641C7.09634 242.952 12.1877 256.126 30.337 274.329C48.4863 292.532 63.8694 295.827 69.2923 295.2Z" fill="#554338"/>
<path d="M4.2063 234.74C6.40371 242.441 14.197 259.53 30.5634 274.347C50.6236 292.508 64.9797 295.193 71.9557 296.075" stroke="black" stroke-width="2.5" stroke-linecap="round" stroke-linejoin="round"/>
<path d="M1.11523 230.519C19.2205 252.94 53.5316 286.308 76.6738 298.924" stroke="black" stroke-width="2.5" stroke-linecap="round" stroke-linejoin="round"/>
<path d="M43.2772 254.365C44.649 252.85 45.0052 250.937 44.0727 250.093C43.1402 249.249 41.2721 249.793 39.9003 251.308C38.5284 252.824 38.1722 254.736 39.1047 255.581C40.0372 256.425 41.9053 255.881 43.2772 254.365Z" fill="#121212"/>
<path d="M51.7194 262.009C53.0913 260.493 53.4475 258.58 52.515 257.736C51.5825 256.892 49.7144 257.436 48.3425 258.951C46.9706 260.467 46.6145 262.379 47.547 263.224C48.4795 264.068 50.3476 263.524 51.7194 262.009Z" fill="#121212"/>
<path d="M348.532 358.764C365.655 353.317 379.559 343.204 388.177 331.199C396.796 319.194 400.171 305.221 396.022 292.178C391.873 279.135 381.045 269.68 367.075 264.861C353.104 260.042 335.913 259.82 318.79 265.267C301.668 270.714 287.764 280.827 279.145 292.832C270.526 304.837 267.152 318.81 271.301 331.853C275.45 344.895 286.277 354.351 300.248 359.17C314.218 363.989 331.41 364.21 348.532 358.764Z" fill="#FFBFB6" stroke="#121212" stroke-width="2.5"/>
<path d="M362.45 300.603C359.423 296.612 354.909 288.427 361.068 287.607C367.226 286.788 371.881 292.828 372.635 295.438" stroke="#121212" stroke-width="2.5" stroke-linecap="round"/>
<path d="M283.521 320.074C303.392 321.835 350.355 318.21 379.242 289.624" stroke="#121212" stroke-width="2.5" stroke-linecap="round" stroke-linejoin="round"/>
<path d="M324.991 300.4C324.757 299.665 324.378 299.116 324.018 298.806C323.84 298.653 323.692 298.579 323.594 298.549C323.503 298.522 323.465 298.533 323.455 298.536C323.445 298.539 323.408 298.552 323.349 298.627C323.286 298.709 323.208 298.854 323.151 299.082C323.037 299.543 323.044 300.21 323.278 300.945C323.512 301.679 323.891 302.228 324.251 302.539C324.429 302.692 324.577 302.765 324.675 302.795C324.766 302.823 324.804 302.811 324.814 302.808C324.824 302.805 324.861 302.793 324.92 302.718C324.983 302.636 325.061 302.491 325.118 302.263C325.232 301.802 325.224 301.135 324.991 300.4Z" fill="#121212" stroke="#121212" stroke-width="2.5"/>
<path d="M335.228 297.143C334.995 296.409 334.616 295.86 334.255 295.55C334.078 295.396 333.93 295.323 333.831 295.293C333.74 295.265 333.702 295.277 333.693 295.28C333.683 295.283 333.645 295.296 333.587 295.371C333.524 295.452 333.445 295.597 333.389 295.825C333.274 296.286 333.282 296.954 333.516 297.688C333.749 298.423 334.128 298.972 334.488 299.282C334.666 299.435 334.814 299.509 334.913 299.539C335.004 299.566 335.042 299.555 335.051 299.552C335.061 299.549 335.099 299.536 335.157 299.461C335.22 299.38 335.298 299.234 335.355 299.006C335.47 298.545 335.462 297.878 335.228 297.143Z" fill="#121212" stroke="#121212" stroke-width="2.5"/>
<path d="M363.398 292.974C364.668 294.26 367.349 297.128 367.911 298.302" stroke="#121212" stroke-width="2.5" stroke-linecap="round" stroke-linejoin="round"/>
<path d="M29.4993 444.81C47.3675 450.943 65.4409 451.118 80.2355 446.386C95.0301 441.654 106.625 431.979 111.291 418.383C115.957 404.787 112.748 390.03 103.977 377.211C95.2055 364.392 80.8335 353.431 62.9654 347.299C45.0973 341.167 27.0239 340.991 12.2293 345.723C-2.56541 350.455 -14.1601 360.13 -18.8263 373.726C-23.4926 387.322 -20.2829 402.079 -11.5118 414.898C-2.74075 427.718 11.6312 438.678 29.4993 444.81Z" fill="#FFBFB6" stroke="#121212" stroke-width="2.5"/>
<path d="M-1.17798 371.418C14.5038 385.367 56.4497 411.757 98.7792 405.724" stroke="#121212" stroke-width="2.5" stroke-linecap="round" stroke-linejoin="round"/>
<path d="M47.436 381.232C48.0946 379.313 47.6712 377.429 46.4903 377.024C45.3095 376.618 43.8184 377.845 43.1598 379.764C42.5012 381.683 42.9246 383.567 44.1055 383.972C45.2863 384.378 46.7775 383.151 47.436 381.232Z" fill="#121212"/>
<path d="M58.1265 384.901C58.7851 382.982 58.3617 381.098 57.1808 380.693C56 380.287 54.5088 381.514 53.8503 383.433C53.1917 385.352 53.6151 387.236 54.796 387.641C55.9768 388.047 57.468 386.82 58.1265 384.901Z" fill="#121212"/>
<path d="M417.982 375.777C422.662 390.334 418.978 406.165 409.042 420.037C399.106 433.909 382.961 445.743 362.938 452.181C342.914 458.619 322.898 458.411 306.739 452.93C290.58 447.448 278.36 436.731 273.679 422.175C268.999 407.618 272.684 391.787 282.62 377.915C292.556 364.044 308.701 352.209 328.724 345.771C348.747 339.333 368.764 339.541 384.922 345.022C401.081 350.504 413.302 361.221 417.982 375.777Z" fill="#FFD373" stroke="#121212" stroke-width="2.5"/>
<path d="M388.22 377.425C377.159 383.986 325.379 398.883 300.871 405.51C305.086 407.598 320.279 409.974 347.325 402.78C374.372 395.586 385.858 382.88 388.22 377.425Z" fill="#554338" stroke="#121212" stroke-width="2.5"/>
<path d="M295.77 405.848C304.227 407.972 324.582 409.934 347.466 402.577C375.514 393.558 385.865 381.487 390.496 375.391" stroke="#121212" stroke-width="2.5" stroke-linecap="round" stroke-linejoin="round"/>
<path d="M290.107 406.463C321.106 401.609 371.252 387.439 395.752 372.495" stroke="#121212" stroke-width="2.5" stroke-linecap="round" stroke-linejoin="round"/>
<path d="M334.364 380.089C334.083 379.214 333.625 378.549 333.178 378.166C332.712 377.767 332.427 377.792 332.343 377.819C332.258 377.847 332.012 377.992 331.866 378.588C331.725 379.16 331.741 379.967 332.023 380.842C332.304 381.718 332.761 382.382 333.209 382.766C333.675 383.164 333.96 383.139 334.044 383.112C334.129 383.085 334.375 382.939 334.521 382.344C334.661 381.771 334.646 380.965 334.364 380.089Z" fill="#121212" stroke="#121212" stroke-width="2.5"/>
<path d="M346.168 376.294C345.887 375.419 345.429 374.754 344.982 374.371C344.516 373.972 344.231 373.997 344.146 374.024C344.062 374.051 343.816 374.197 343.67 374.792C343.529 375.365 343.545 376.171 343.827 377.047C344.108 377.922 344.565 378.587 345.013 378.97C345.479 379.369 345.764 379.344 345.848 379.317C345.933 379.29 346.179 379.144 346.325 378.549C346.465 377.976 346.45 377.169 346.168 376.294Z" fill="#121212" stroke="#121212" stroke-width="2.5"/>
<path d="M187.197 214V222.393" stroke="black" stroke-width="2.5" stroke-linecap="round" stroke-linejoin="round"/>
<path d="M166.91 209L161.547 215.457" stroke="black" stroke-width="2.5" stroke-linecap="round" stroke-linejoin="round"/>
<path d="M207.478 209L212.916 215.394" stroke="black" stroke-width="2.5" stroke-linecap="round" stroke-linejoin="round"/>
<path d="M76.0898 325.18C90.2348 329.39 120.434 332.048 128.07 309" stroke="#121212" stroke-width="2.5" stroke-linecap="round" stroke-linejoin="round"/>
<path d="M102.744 433.379C116.41 437.252 145.876 440.191 154.414 420.968" stroke="#121212" stroke-width="2.5" stroke-linecap="round" stroke-linejoin="round"/>
<path d="M222.485 435.062C236.066 436.205 265.398 435.792 274.08 425" stroke="#121212" stroke-width="2.5" stroke-linecap="round" stroke-linejoin="round"/>
<path d="M244.967 298.364C249.312 311.282 261.339 338.038 274.692 341.719" stroke="#121212" stroke-width="2.5" stroke-linecap="round" stroke-linejoin="round"/>
<path d="M179.659 384.539C180.454 382.171 179.278 376.313 176.47 374.889C170.709 377.791 149.026 376.453 144.678 364.89C139.244 350.436 162.193 347.695 174.349 346.564C192.394 344.885 238.381 350.713 230.492 364.635C222.603 378.557 193.698 374.641 188.165 375.801C182.632 376.96 178.665 387.499 179.659 384.539Z" fill="#FFFDF3"/>
<path d="M176.47 374.889L177.035 373.774L176.471 373.488L175.907 373.773L176.47 374.889ZM179.659 384.539L180.844 384.937L179.659 384.539ZM188.165 375.801L188.422 377.024L188.165 375.801ZM230.492 364.635L229.405 364.019L229.405 364.019L230.492 364.635ZM174.349 346.564L174.465 347.809L174.349 346.564ZM144.678 364.89L145.848 364.45L144.678 364.89ZM175.904 376.004C176.336 376.223 176.785 376.658 177.205 377.328C177.62 377.991 177.963 378.815 178.212 379.699C178.46 380.58 178.604 381.485 178.642 382.291C178.681 383.116 178.604 383.754 178.474 384.142L180.844 384.937C181.111 384.141 181.186 383.158 181.139 382.174C181.092 381.171 180.916 380.079 180.619 379.022C180.322 377.967 179.894 376.911 179.324 376.001C178.758 375.099 178.007 374.267 177.035 373.774L175.904 376.004ZM178.474 384.142C178.412 384.325 178.361 384.483 178.327 384.6C178.314 384.647 178.287 384.745 178.271 384.851C178.268 384.872 178.236 385.056 178.276 385.278C178.294 385.376 178.362 385.71 178.671 385.988C179.074 386.352 179.561 386.351 179.867 386.26C180.112 386.187 180.27 386.058 180.322 386.015C180.391 385.956 180.441 385.902 180.467 385.872C180.521 385.81 180.56 385.754 180.579 385.726C180.62 385.665 180.657 385.602 180.684 385.555C180.741 385.456 180.813 385.323 180.89 385.18C181.209 384.589 181.764 383.553 182.514 382.394C183.267 381.23 184.193 379.981 185.234 378.967C186.288 377.941 187.368 377.245 188.422 377.024L187.909 374.577C186.196 374.936 184.705 375.992 183.49 377.176C182.263 378.371 181.221 379.79 180.415 381.036C179.606 382.287 179.009 383.403 178.691 383.992C178.609 384.144 178.554 384.244 178.517 384.308C178.497 384.342 178.497 384.342 178.508 384.325C178.512 384.319 178.538 384.28 178.582 384.23C178.603 384.206 178.648 384.156 178.713 384.101C178.76 384.062 178.915 383.934 179.157 383.863C179.46 383.773 179.945 383.771 180.346 384.133C180.653 384.41 180.72 384.741 180.736 384.834C180.775 385.047 180.744 385.217 180.744 385.218C180.734 385.285 180.721 385.322 180.732 385.283C180.747 385.23 180.781 385.124 180.844 384.937L178.474 384.142ZM188.422 377.024C188.987 376.906 189.936 376.84 191.278 376.808C192.597 376.778 194.19 376.781 196.008 376.774C199.624 376.761 204.054 376.707 208.572 376.247C213.082 375.788 217.741 374.919 221.804 373.246C225.872 371.57 229.425 369.053 231.58 365.251L229.405 364.019C227.614 367.178 224.596 369.392 220.852 370.934C217.104 372.478 212.712 373.313 208.319 373.76C203.932 374.206 199.606 374.261 195.999 374.274C194.206 374.281 192.571 374.278 191.22 374.309C189.892 374.34 188.727 374.406 187.909 374.577L188.422 377.024ZM231.58 365.251C232.718 363.242 232.94 361.248 232.261 359.368C231.602 357.546 230.159 355.999 228.31 354.683C224.621 352.059 218.851 350.035 212.431 348.532C199.55 345.518 183.406 344.466 174.233 345.319L174.465 347.809C183.337 346.983 199.209 348.006 211.861 350.966C218.207 352.451 223.583 354.389 226.861 356.721C228.495 357.883 229.492 359.062 229.909 360.217C230.305 361.314 230.238 362.548 229.405 364.019L231.58 365.251ZM174.233 345.319C168.177 345.883 159.223 346.86 152.453 349.57C149.07 350.924 146.062 352.776 144.28 355.382C142.442 358.072 142.027 361.39 143.508 365.33L145.848 364.45C144.613 361.163 145.028 358.718 146.344 356.793C147.717 354.785 150.187 353.17 153.382 351.891C159.766 349.335 168.365 348.376 174.465 347.809L174.233 345.319ZM143.508 365.33C145.919 371.743 153.004 375.099 159.785 376.537C163.228 377.267 166.716 377.532 169.727 377.426C172.694 377.322 175.348 376.854 177.032 376.005L175.907 373.773C174.711 374.375 172.494 374.828 169.639 374.928C166.828 375.026 163.544 374.778 160.303 374.091C153.715 372.694 147.785 369.6 145.848 364.45L143.508 365.33Z" fill="#121212"/>
<path d="M180.112 366.728C180.279 366.728 180.426 366.665 180.551 366.539C180.676 366.414 180.739 366.267 180.739 366.1C180.739 366.008 180.722 365.929 180.688 365.862C180.646 365.77 180.6 365.686 180.55 365.611C180.508 365.544 180.462 365.469 180.412 365.385L179.884 364.546C180.101 364.244 180.277 363.91 180.41 363.542C180.552 363.174 180.66 362.797 180.735 362.413C180.81 362.019 180.86 361.626 180.884 361.233C180.909 360.832 180.921 360.447 180.921 360.079C180.92 359.762 180.908 359.448 180.882 359.139C180.865 358.829 180.811 358.524 180.718 358.223C180.609 357.847 180.45 357.509 180.241 357.208C180.04 356.899 179.797 356.635 179.512 356.418C179.236 356.193 178.927 356.022 178.584 355.905C178.249 355.78 177.894 355.718 177.517 355.718C176.815 355.719 176.209 355.891 175.699 356.234C175.189 356.577 174.768 357.017 174.434 357.552C174.108 358.088 173.866 358.686 173.708 359.347C173.558 360.007 173.484 360.651 173.484 361.278C173.485 361.83 173.544 362.39 173.661 362.959C173.779 363.519 173.968 364.025 174.227 364.476C174.495 364.927 174.843 365.295 175.27 365.579C175.705 365.863 176.236 366.004 176.863 366.004C177.214 366.003 177.561 365.961 177.904 365.877C178.255 365.793 178.585 365.659 178.894 365.475C178.911 365.458 178.928 365.445 178.944 365.437C178.961 365.437 178.978 365.429 178.995 365.412L179.271 365.851C179.321 365.934 179.371 366.026 179.422 366.126C179.472 366.235 179.531 366.331 179.598 366.415C179.665 366.507 179.736 366.582 179.811 366.64C179.895 366.699 179.995 366.728 180.112 366.728ZM174.651 361.164C174.65 360.729 174.696 360.261 174.787 359.759C174.887 359.258 175.041 358.793 175.25 358.367C175.467 357.932 175.751 357.572 176.102 357.287C176.453 357.003 176.887 356.86 177.406 356.859C177.682 356.859 177.941 356.909 178.183 357.009C178.426 357.109 178.644 357.247 178.836 357.422C179.037 357.589 179.204 357.79 179.338 358.024C179.472 358.258 179.573 358.513 179.64 358.789C179.699 359.023 179.733 359.257 179.741 359.491C179.758 359.717 179.767 359.947 179.767 360.181C179.767 360.423 179.759 360.687 179.743 360.971C179.735 361.247 179.71 361.536 179.668 361.837C179.635 362.129 179.585 362.418 179.519 362.702C179.452 362.987 179.36 363.254 179.243 363.505L178.854 362.866C178.804 362.782 178.754 362.69 178.703 362.59C178.653 362.481 178.594 362.385 178.527 362.302C178.46 362.21 178.385 362.135 178.301 362.076C178.218 362.018 178.121 361.989 178.013 361.989C177.846 361.989 177.699 362.052 177.574 362.177C177.449 362.303 177.386 362.449 177.386 362.617C177.386 362.7 177.403 362.78 177.437 362.855C177.479 362.938 177.52 363.018 177.562 363.093C177.613 363.168 177.663 363.243 177.713 363.319L178.329 364.309L178.442 364.484C178.216 364.627 177.978 364.727 177.727 364.786C177.476 364.836 177.225 364.862 176.975 364.862C176.515 364.863 176.134 364.742 175.833 364.499C175.532 364.257 175.293 363.956 175.117 363.597C174.941 363.229 174.819 362.828 174.752 362.393C174.685 361.959 174.651 361.549 174.651 361.164ZM187.113 364.476C187.247 364.593 187.385 364.705 187.527 364.814C187.669 364.923 187.812 365.031 187.954 365.14C188.063 365.223 188.18 365.311 188.305 365.403C188.439 365.495 188.577 365.54 188.719 365.54C188.887 365.54 189.033 365.481 189.158 365.364C189.284 365.247 189.346 365.105 189.346 364.938C189.346 364.804 189.296 364.687 189.195 364.587C189.103 364.495 188.998 364.415 188.881 364.349C188.764 364.273 188.655 364.198 188.555 364.123C188.429 364.031 188.304 363.935 188.178 363.835C188.053 363.735 187.932 363.63 187.814 363.522C187.864 363.446 187.931 363.329 188.015 363.17C188.107 363.003 188.194 362.832 188.278 362.656C188.361 362.472 188.432 362.296 188.49 362.129C188.557 361.962 188.59 361.836 188.59 361.752C188.59 361.602 188.536 361.481 188.427 361.389C188.326 361.297 188.205 361.251 188.063 361.251C187.963 361.251 187.866 361.277 187.775 361.327C187.691 361.377 187.616 361.44 187.549 361.515C187.516 361.557 187.478 361.616 187.436 361.691C187.403 361.766 187.37 361.85 187.336 361.942C187.303 362.026 187.269 362.109 187.236 362.193C187.211 362.276 187.186 362.348 187.161 362.406C187.144 362.448 187.123 362.494 187.098 362.544C187.082 362.586 187.061 362.628 187.036 362.67C186.91 362.503 186.789 362.34 186.672 362.181C186.554 362.014 186.437 361.847 186.32 361.679C186.186 361.496 186.039 361.299 185.88 361.09C185.73 360.882 185.575 360.66 185.416 360.426C185.541 360.284 185.658 360.154 185.766 360.037C185.875 359.911 185.971 359.803 186.055 359.711C186.213 359.535 186.372 359.359 186.531 359.183C186.689 359.008 186.827 358.819 186.944 358.618C187.028 358.476 187.09 358.326 187.132 358.167C187.182 358.008 187.207 357.845 187.206 357.677C187.206 357.393 187.152 357.134 187.043 356.9C186.942 356.666 186.8 356.47 186.616 356.311C186.432 356.144 186.218 356.014 185.976 355.923C185.733 355.831 185.474 355.785 185.198 355.786C184.939 355.786 184.684 355.84 184.433 355.949C184.182 356.058 183.956 356.205 183.756 356.389C183.555 356.573 183.393 356.787 183.267 357.029C183.151 357.272 183.092 357.523 183.093 357.782C183.093 358.1 183.135 358.409 183.219 358.71C183.303 359.011 183.408 359.303 183.533 359.588C183.6 359.738 183.672 359.884 183.747 360.026C183.822 360.16 183.902 360.298 183.986 360.44C183.693 360.783 183.409 361.126 183.134 361.469C182.867 361.804 182.675 362.093 182.558 362.335C182.449 362.553 182.362 362.791 182.295 363.051C182.237 363.302 182.208 363.548 182.208 363.791C182.208 364.108 182.271 364.393 182.397 364.643C182.523 364.894 182.686 365.107 182.887 365.283C183.096 365.458 183.339 365.592 183.615 365.683C183.891 365.775 184.179 365.821 184.48 365.82C185.007 365.82 185.488 365.694 185.922 365.443C186.365 365.191 186.762 364.869 187.113 364.476ZM184.246 357.68C184.246 357.58 184.271 357.484 184.321 357.392C184.38 357.291 184.447 357.208 184.522 357.141C184.605 357.065 184.697 357.007 184.798 356.965C184.898 356.915 184.998 356.889 185.099 356.889C185.366 356.889 185.592 356.973 185.776 357.14C185.96 357.298 186.052 357.511 186.053 357.779C186.053 357.871 186.032 357.963 185.99 358.055C185.957 358.139 185.915 358.218 185.865 358.293C185.74 358.486 185.598 358.662 185.439 358.821C185.289 358.98 185.138 359.143 184.988 359.31C184.938 359.377 184.892 359.432 184.85 359.473C184.674 359.181 184.528 358.884 184.41 358.583C184.301 358.274 184.247 357.973 184.246 357.68ZM186.347 363.711C186.105 363.996 185.838 364.234 185.545 364.427C185.261 364.62 184.943 364.716 184.592 364.717C184.433 364.717 184.278 364.696 184.128 364.654C183.977 364.613 183.844 364.55 183.726 364.467C183.618 364.375 183.53 364.266 183.463 364.141C183.396 364.007 183.362 363.852 183.362 363.677C183.362 363.535 183.382 363.376 183.424 363.2C183.474 363.016 183.532 362.857 183.599 362.723C183.691 362.556 183.825 362.351 184 362.108C184.184 361.866 184.384 361.615 184.601 361.355C184.668 361.447 184.731 361.539 184.79 361.631C184.857 361.714 184.924 361.802 184.991 361.894C185.158 362.136 185.326 362.379 185.493 362.621C185.661 362.855 185.836 363.089 186.021 363.323C186.071 363.39 186.121 363.457 186.171 363.523C186.23 363.582 186.288 363.645 186.347 363.711ZM191.672 362.251C191.947 362.242 192.219 362.23 192.487 362.213C192.763 362.196 193.039 362.179 193.315 362.162C193.565 362.145 193.82 362.136 194.08 362.136C194.339 362.136 194.598 362.123 194.857 362.097C194.975 362.44 195.092 362.779 195.209 363.113C195.335 363.439 195.457 363.773 195.574 364.116C195.599 364.191 195.645 364.329 195.713 364.53C195.788 364.73 195.863 364.935 195.939 365.144C196.023 365.362 196.098 365.562 196.165 365.746C196.241 365.93 196.295 366.043 196.329 366.085C196.446 366.227 196.592 366.298 196.768 366.297C196.935 366.297 197.081 366.234 197.207 366.109C197.332 365.983 197.395 365.837 197.394 365.67C197.394 365.628 197.386 365.573 197.369 365.507C197.319 365.339 197.26 365.176 197.193 365.018C197.126 364.867 197.059 364.708 196.992 364.541C196.866 364.207 196.745 363.877 196.627 363.551C196.51 363.216 196.392 362.882 196.275 362.548C195.981 361.712 195.692 360.88 195.407 360.052C195.13 359.217 194.828 358.385 194.502 357.557C194.409 357.34 194.313 357.127 194.212 356.918C194.12 356.701 194.011 356.496 193.886 356.304C193.777 356.137 193.647 355.986 193.496 355.853C193.346 355.711 193.162 355.64 192.944 355.64C192.76 355.64 192.597 355.695 192.455 355.803C192.313 355.904 192.196 356.034 192.105 356.193C192.013 356.36 191.933 356.561 191.867 356.795C191.767 357.138 191.679 357.481 191.604 357.824C191.529 358.158 191.45 358.497 191.367 358.84C191.142 359.751 190.917 360.655 190.693 361.55C190.468 362.445 190.23 363.344 189.98 364.247C189.964 364.314 189.939 364.406 189.905 364.523C189.872 364.632 189.839 364.745 189.805 364.862C189.772 364.979 189.743 365.092 189.718 365.201C189.693 365.309 189.68 365.389 189.68 365.439C189.681 365.598 189.731 365.723 189.831 365.815C189.94 365.907 190.066 365.953 190.208 365.953C190.325 365.953 190.429 365.919 190.521 365.852C190.613 365.793 190.692 365.714 190.759 365.613C190.784 365.58 190.818 365.492 190.859 365.35C190.901 365.208 190.943 365.053 190.984 364.886C191.026 364.727 191.068 364.572 191.109 364.422C191.151 364.263 191.18 364.15 191.197 364.083C191.28 363.773 191.359 363.468 191.434 363.167C191.509 362.866 191.588 362.561 191.672 362.251ZM192.958 357.082C193.201 357.483 193.398 357.91 193.549 358.361C193.708 358.812 193.868 359.264 194.027 359.715C194.102 359.924 194.174 360.133 194.241 360.342C194.316 360.543 194.392 360.747 194.467 360.956C194.25 360.973 194.032 360.99 193.815 361.007C193.606 361.016 193.393 361.024 193.175 361.033C192.983 361.042 192.782 361.05 192.573 361.059C192.373 361.059 192.172 361.063 191.971 361.072C192.055 360.737 192.138 360.407 192.221 360.081C192.305 359.746 192.388 359.412 192.471 359.077C192.554 358.742 192.634 358.412 192.708 358.086C192.783 357.751 192.867 357.417 192.958 357.082Z" fill="#121212"/>
<path d="M197.978 349.433C197.092 347.097 195.227 342.584 197.978 341.052C203.846 343.73 225.461 341.557 229.36 329.834C234.232 315.182 208.28 313.109 196.071 313.109L196.071 313.109C179.593 313.109 141.239 313.109 143.6 332.89C145.174 346.077 180.752 341.469 186.326 342.414C191.9 343.36 199.085 352.352 197.978 349.433Z" fill="#FFFDF3"/>
<path d="M197.978 341.052L197.37 339.96L197.922 339.653L198.497 339.915L197.978 341.052ZM197.978 349.433L196.809 349.876L197.978 349.433ZM143.6 332.89L142.359 333.038L142.359 333.038L143.6 332.89ZM196.071 313.109L196.085 314.359L196.071 314.359L196.071 313.109ZM196.071 313.109L196.057 311.859L196.071 311.859L196.071 313.109ZM229.36 329.834L228.173 329.44L229.36 329.834ZM198.586 342.145C197.931 342.509 197.636 343.273 197.851 344.762C198.06 346.207 198.685 347.772 199.147 348.989L196.809 349.876C196.385 348.758 195.634 346.899 195.377 345.12C195.126 343.386 195.274 341.127 197.37 339.96L198.586 342.145ZM199.147 348.989C199.225 349.195 199.317 349.471 199.337 349.755C199.348 349.895 199.35 350.155 199.232 350.439C199.089 350.779 198.801 351.075 198.396 351.201C198.059 351.306 197.767 351.254 197.62 351.216C197.457 351.175 197.319 351.113 197.222 351.063C197.028 350.963 196.834 350.831 196.665 350.706C196.016 350.226 194.963 349.273 193.848 348.325C192.683 347.335 191.346 346.256 189.975 345.37C188.587 344.474 187.262 343.841 186.117 343.647L186.535 341.182C188.176 341.461 189.84 342.307 191.332 343.271C192.842 344.246 194.277 345.409 195.467 346.42C196.706 347.474 197.591 348.281 198.151 348.695C198.213 348.741 198.263 348.776 198.301 348.801C198.32 348.813 198.335 348.822 198.345 348.829C198.356 348.835 198.361 348.837 198.36 348.837C198.36 348.837 198.35 348.832 198.332 348.824C198.315 348.817 198.281 348.805 198.235 348.793C198.165 348.775 197.937 348.725 197.651 348.815C197.297 348.925 197.046 349.187 196.926 349.473C196.83 349.703 196.841 349.89 196.844 349.936C196.851 350.03 196.869 350.035 196.809 349.876L199.147 348.989ZM186.117 343.647C185.545 343.55 184.489 343.515 182.962 343.525C181.466 343.534 179.631 343.585 177.548 343.631C173.402 343.724 168.337 343.801 163.385 343.49C158.453 343.181 153.527 342.482 149.697 340.971C145.879 339.465 142.833 337.009 142.359 333.038L144.841 332.742C145.154 335.364 147.146 337.277 150.615 338.646C154.073 340.01 158.685 340.69 163.541 340.995C168.377 341.299 173.35 341.225 177.492 341.132C179.553 341.086 181.424 341.034 182.946 341.025C184.438 341.015 185.713 341.043 186.535 341.182L186.117 343.647ZM142.359 333.038C141.71 327.601 143.898 323.485 147.71 320.473C151.453 317.517 156.76 315.611 162.505 314.36C174.012 311.854 187.858 311.859 196.071 311.859L196.071 314.359C187.807 314.359 174.236 314.364 163.037 316.803C157.428 318.024 152.56 319.828 149.26 322.435C146.03 324.987 144.31 328.288 144.841 332.742L142.359 333.038ZM196.057 311.859L196.057 311.859L196.085 314.359L196.085 314.359L196.057 311.859ZM196.071 311.859C202.206 311.859 211.904 312.375 219.499 314.785C223.284 315.986 226.716 317.709 228.879 320.224C231.12 322.832 231.894 326.173 230.546 330.229L228.173 329.44C229.261 326.169 228.618 323.757 226.983 321.854C225.269 319.86 222.363 318.317 218.743 317.168C211.527 314.879 202.145 314.359 196.071 314.359L196.071 311.859ZM230.546 330.229C228.384 336.73 221.434 340.357 214.714 342.055C211.301 342.918 207.826 343.317 204.813 343.328C201.844 343.338 199.174 342.972 197.459 342.19L198.497 339.915C199.715 340.471 201.948 340.838 204.804 340.828C207.617 340.818 210.89 340.443 214.101 339.631C220.631 337.982 226.437 334.661 228.173 329.44L230.546 330.229Z" fill="#121212"/>
<path d="M183.674 332.013C183.841 332.019 183.99 331.962 184.12 331.841C184.25 331.721 184.318 331.577 184.324 331.41C184.328 331.318 184.314 331.238 184.283 331.17C184.245 331.076 184.202 330.991 184.155 330.914C184.115 330.845 184.072 330.768 184.025 330.683L183.53 329.823C183.759 329.531 183.947 329.203 184.095 328.84C184.25 328.478 184.373 328.106 184.463 327.725C184.553 327.335 184.618 326.944 184.658 326.552C184.698 326.152 184.725 325.768 184.739 325.4C184.751 325.083 184.75 324.769 184.736 324.459C184.731 324.149 184.688 323.842 184.608 323.538C184.513 323.158 184.367 322.813 184.17 322.505C183.981 322.188 183.748 321.916 183.472 321.688C183.205 321.452 182.902 321.269 182.564 321.139C182.235 321.001 181.882 320.925 181.506 320.911C180.804 320.885 180.192 321.033 179.669 321.356C179.147 321.68 178.708 322.103 178.354 322.625C178.008 323.147 177.743 323.736 177.559 324.39C177.384 325.044 177.285 325.685 177.261 326.312C177.241 326.863 177.278 327.425 177.374 327.998C177.47 328.562 177.639 329.075 177.881 329.536C178.131 329.997 178.464 330.378 178.879 330.678C179.303 330.978 179.828 331.14 180.455 331.164C180.806 331.177 181.154 331.148 181.5 331.077C181.854 331.007 182.189 330.886 182.505 330.714C182.523 330.698 182.54 330.686 182.557 330.678C182.574 330.679 182.591 330.671 182.608 330.655L182.867 331.104C182.914 331.189 182.961 331.283 183.007 331.385C183.053 331.496 183.108 331.594 183.172 331.68C183.235 331.774 183.304 331.852 183.377 331.914C183.458 331.975 183.557 332.008 183.674 332.013ZM178.431 326.243C178.447 325.808 178.511 325.342 178.622 324.844C178.741 324.346 178.913 323.889 179.138 323.47C179.371 323.044 179.669 322.695 180.031 322.424C180.392 322.153 180.832 322.028 181.35 322.047C181.626 322.058 181.883 322.117 182.122 322.227C182.36 322.336 182.572 322.482 182.758 322.665C182.952 322.84 183.112 323.046 183.237 323.285C183.362 323.524 183.452 323.783 183.509 324.061C183.558 324.298 183.583 324.533 183.583 324.767C183.591 324.993 183.591 325.223 183.582 325.457C183.573 325.7 183.554 325.963 183.527 326.246C183.508 326.521 183.472 326.809 183.419 327.108C183.375 327.399 183.314 327.686 183.236 327.967C183.159 328.249 183.057 328.513 182.93 328.759L182.566 328.105C182.519 328.02 182.472 327.926 182.426 327.824C182.38 327.713 182.325 327.615 182.261 327.529C182.198 327.434 182.125 327.356 182.044 327.295C181.963 327.233 181.868 327.2 181.759 327.196C181.592 327.19 181.443 327.247 181.313 327.368C181.183 327.488 181.115 327.632 181.109 327.799C181.106 327.883 181.119 327.963 181.15 328.039C181.189 328.124 181.227 328.205 181.266 328.282C181.314 328.359 181.361 328.436 181.408 328.513L181.985 329.527L182.091 329.706C181.861 329.84 181.619 329.931 181.366 329.98C181.113 330.021 180.862 330.037 180.611 330.027C180.151 330.01 179.776 329.875 179.484 329.621C179.192 329.367 178.965 329.058 178.803 328.692C178.642 328.317 178.536 327.912 178.485 327.475C178.435 327.038 178.417 326.627 178.431 326.243ZM190.757 330.032C190.886 330.154 191.019 330.272 191.157 330.386C191.295 330.5 191.433 330.614 191.571 330.728C191.677 330.816 191.79 330.908 191.912 331.005C192.043 331.102 192.179 331.153 192.321 331.158C192.488 331.164 192.636 331.111 192.766 330.999C192.896 330.887 192.964 330.747 192.97 330.58C192.975 330.446 192.929 330.327 192.833 330.223C192.744 330.128 192.643 330.045 192.529 329.973C192.414 329.894 192.309 329.815 192.211 329.736C192.089 329.639 191.968 329.538 191.846 329.433C191.724 329.328 191.607 329.219 191.494 329.106C191.547 329.033 191.618 328.918 191.708 328.763C191.806 328.599 191.9 328.431 191.991 328.259C192.081 328.078 192.159 327.905 192.223 327.74C192.297 327.576 192.335 327.452 192.338 327.368C192.343 327.218 192.294 327.094 192.189 326.998C192.092 326.903 191.972 326.852 191.83 326.847C191.73 326.843 191.633 326.865 191.539 326.911C191.454 326.958 191.376 327.018 191.306 327.091C191.271 327.131 191.232 327.188 191.187 327.262C191.151 327.336 191.114 327.418 191.077 327.509C191.041 327.591 191.004 327.674 190.968 327.756C190.939 327.838 190.912 327.909 190.884 327.966C190.866 328.007 190.844 328.052 190.817 328.102C190.798 328.143 190.776 328.184 190.749 328.225C190.63 328.053 190.515 327.885 190.404 327.722C190.293 327.551 190.183 327.379 190.072 327.208C189.945 327.019 189.806 326.817 189.655 326.602C189.513 326.387 189.367 326.16 189.217 325.92C189.347 325.783 189.469 325.658 189.582 325.545C189.696 325.424 189.796 325.319 189.883 325.23C190.048 325.06 190.214 324.891 190.379 324.721C190.544 324.552 190.689 324.369 190.814 324.173C190.903 324.034 190.971 323.886 191.019 323.729C191.075 323.572 191.106 323.41 191.112 323.243C191.123 322.959 191.078 322.698 190.979 322.46C190.887 322.222 190.752 322.02 190.575 321.854C190.397 321.68 190.189 321.543 189.95 321.442C189.711 321.341 189.454 321.285 189.178 321.275C188.919 321.265 188.662 321.31 188.407 321.409C188.153 321.508 187.921 321.646 187.714 321.822C187.507 321.998 187.336 322.205 187.201 322.443C187.075 322.681 187.007 322.929 186.997 323.188C186.985 323.506 187.016 323.817 187.088 324.121C187.16 324.425 187.254 324.721 187.368 325.01C187.429 325.163 187.495 325.312 187.565 325.456C187.635 325.593 187.709 325.734 187.787 325.879C187.482 326.211 187.185 326.543 186.896 326.875C186.616 327.199 186.413 327.48 186.287 327.718C186.171 327.931 186.074 328.166 185.997 328.422C185.929 328.671 185.891 328.916 185.882 329.159C185.87 329.476 185.922 329.763 186.038 330.018C186.154 330.273 186.309 330.493 186.502 330.676C186.705 330.859 186.942 331.002 187.214 331.104C187.487 331.206 187.773 331.263 188.074 331.274C188.6 331.294 189.086 331.187 189.53 330.953C189.982 330.719 190.391 330.412 190.757 330.032ZM188.154 323.132C188.158 323.031 188.187 322.936 188.24 322.846C188.303 322.748 188.373 322.667 188.45 322.603C188.537 322.531 188.631 322.476 188.733 322.438C188.835 322.391 188.936 322.37 189.036 322.374C189.304 322.384 189.526 322.476 189.704 322.65C189.882 322.816 189.965 323.032 189.955 323.3C189.952 323.392 189.928 323.483 189.882 323.573C189.846 323.655 189.801 323.733 189.748 323.806C189.615 323.994 189.467 324.164 189.302 324.317C189.146 324.47 188.989 324.627 188.833 324.789C188.78 324.854 188.732 324.906 188.689 324.946C188.524 324.647 188.389 324.345 188.283 324.04C188.186 323.727 188.143 323.424 188.154 323.132ZM190.021 329.239C189.768 329.514 189.491 329.742 189.192 329.923C188.9 330.105 188.579 330.189 188.228 330.176C188.07 330.17 187.916 330.143 187.767 330.096C187.618 330.048 187.487 329.98 187.373 329.893C187.268 329.797 187.184 329.685 187.122 329.557C187.06 329.421 187.032 329.265 187.039 329.089C187.044 328.947 187.071 328.789 187.12 328.615C187.177 328.433 187.241 328.277 187.313 328.146C187.411 327.982 187.553 327.782 187.737 327.547C187.93 327.311 188.14 327.068 188.367 326.817C188.431 326.912 188.49 327.006 188.545 327.1C188.608 327.186 188.672 327.276 188.735 327.371C188.893 327.619 189.051 327.868 189.209 328.116C189.368 328.357 189.534 328.597 189.709 328.838C189.757 328.907 189.805 328.976 189.852 329.044C189.909 329.105 189.965 329.17 190.021 329.239ZM195.398 327.985C195.674 327.987 195.946 327.985 196.214 327.978C196.49 327.972 196.766 327.966 197.043 327.959C197.294 327.952 197.549 327.953 197.808 327.963C198.067 327.973 198.327 327.97 198.587 327.955C198.691 328.302 198.795 328.644 198.9 328.983C199.013 329.314 199.121 329.652 199.225 329.999C199.248 330.075 199.288 330.215 199.348 330.418C199.415 330.622 199.483 330.829 199.55 331.041C199.626 331.261 199.693 331.465 199.753 331.651C199.821 331.838 199.872 331.952 199.903 331.995C200.015 332.142 200.159 332.218 200.334 332.225C200.501 332.231 200.65 332.174 200.78 332.053C200.91 331.933 200.978 331.789 200.984 331.622C200.986 331.58 200.98 331.525 200.965 331.458C200.922 331.289 200.869 331.124 200.808 330.963C200.747 330.81 200.686 330.648 200.626 330.479C200.513 330.14 200.404 329.805 200.299 329.475C200.195 329.136 200.091 328.798 199.986 328.459C199.725 327.612 199.468 326.77 199.215 325.932C198.971 325.086 198.701 324.244 198.406 323.404C198.323 323.183 198.235 322.967 198.142 322.754C198.059 322.533 197.958 322.325 197.839 322.128C197.737 321.956 197.613 321.801 197.468 321.662C197.323 321.514 197.142 321.436 196.924 321.428C196.741 321.421 196.576 321.469 196.429 321.573C196.284 321.667 196.162 321.793 196.064 321.948C195.966 322.112 195.879 322.309 195.803 322.541C195.69 322.879 195.589 323.219 195.501 323.558C195.414 323.89 195.321 324.225 195.225 324.565C194.965 325.467 194.706 326.361 194.446 327.247C194.187 328.132 193.915 329.021 193.631 329.914C193.611 329.981 193.583 330.072 193.545 330.187C193.507 330.295 193.47 330.406 193.432 330.522C193.394 330.638 193.361 330.749 193.332 330.857C193.302 330.965 193.287 331.044 193.285 331.094C193.279 331.253 193.324 331.38 193.421 331.476C193.526 331.572 193.65 331.622 193.792 331.628C193.909 331.632 194.015 331.602 194.109 331.539C194.203 331.484 194.286 331.408 194.356 331.31C194.383 331.277 194.419 331.191 194.466 331.05C194.514 330.91 194.561 330.757 194.609 330.591C194.657 330.434 194.705 330.281 194.752 330.132C194.8 329.975 194.833 329.863 194.852 329.797C194.948 329.491 195.038 329.189 195.125 328.891C195.212 328.593 195.302 328.291 195.398 327.985ZM196.883 322.87C197.11 323.28 197.29 323.714 197.424 324.17C197.566 324.628 197.707 325.085 197.849 325.542C197.916 325.754 197.98 325.965 198.039 326.177C198.106 326.38 198.174 326.588 198.241 326.799C198.023 326.808 197.805 326.816 197.588 326.825C197.378 326.825 197.165 326.826 196.947 326.826C196.755 326.827 196.554 326.828 196.345 326.828C196.144 326.821 195.944 326.818 195.743 326.818C195.839 326.487 195.935 326.16 196.031 325.838C196.127 325.507 196.223 325.175 196.319 324.844C196.415 324.513 196.507 324.186 196.594 323.863C196.682 323.532 196.778 323.201 196.883 322.87Z" fill="#121212"/>
<path d="M179.659 316.85C180.454 314.482 179.278 308.624 176.47 307.2C170.709 310.102 149.026 308.764 144.678 297.2C139.244 282.746 162.193 280.005 174.349 278.875C192.394 277.196 238.381 283.024 230.492 296.946C222.603 310.867 193.698 306.951 188.165 308.111C182.632 309.271 178.665 319.81 179.659 316.85Z" fill="#FFFDF3"/>
<path d="M176.47 307.2L177.035 306.085L176.471 305.799L175.907 306.083L176.47 307.2ZM179.659 316.85L180.844 317.248L179.659 316.85ZM188.165 308.111L188.422 309.335L188.165 308.111ZM230.492 296.946L229.405 296.329L229.405 296.329L230.492 296.946ZM174.349 278.875L174.465 280.119L174.349 278.875ZM144.678 297.2L145.848 296.76L144.678 297.2ZM175.904 308.314C176.336 308.533 176.785 308.968 177.205 309.639C177.62 310.301 177.963 311.125 178.212 312.01C178.46 312.891 178.604 313.796 178.642 314.602C178.681 315.427 178.604 316.065 178.474 316.452L180.844 317.248C181.111 316.451 181.186 315.469 181.139 314.485C181.092 313.482 180.916 312.389 180.619 311.332C180.322 310.278 179.894 309.222 179.324 308.312C178.758 307.409 178.007 306.578 177.035 306.085L175.904 308.314ZM178.474 316.452C178.412 316.635 178.361 316.794 178.327 316.911C178.314 316.957 178.287 317.055 178.271 317.162C178.268 317.183 178.236 317.367 178.276 317.589C178.294 317.686 178.362 318.021 178.671 318.299C179.074 318.663 179.561 318.661 179.867 318.57C180.112 318.498 180.27 318.369 180.322 318.325C180.391 318.267 180.441 318.213 180.467 318.182C180.521 318.12 180.56 318.064 180.579 318.037C180.62 317.976 180.657 317.912 180.684 317.866C180.741 317.767 180.813 317.634 180.89 317.49C181.209 316.9 181.764 315.863 182.514 314.705C183.267 313.541 184.193 312.292 185.234 311.278C186.288 310.252 187.368 309.555 188.422 309.335L187.909 306.888C186.196 307.247 184.705 308.303 183.49 309.487C182.263 310.682 181.221 312.101 180.415 313.346C179.606 314.597 179.009 315.713 178.691 316.302C178.609 316.454 178.554 316.555 178.517 316.618C178.497 316.653 178.497 316.652 178.508 316.635C178.512 316.63 178.538 316.591 178.582 316.541C178.603 316.516 178.648 316.467 178.713 316.412C178.76 316.372 178.915 316.245 179.157 316.173C179.46 316.084 179.945 316.081 180.346 316.444C180.653 316.72 180.72 317.051 180.736 317.144C180.775 317.358 180.744 317.528 180.744 317.529C180.734 317.596 180.721 317.633 180.732 317.594C180.747 317.541 180.781 317.434 180.844 317.248L178.474 316.452ZM188.422 309.335C188.987 309.216 189.936 309.15 191.278 309.119C192.597 309.088 194.19 309.092 196.008 309.085C199.624 309.071 204.054 309.017 208.572 308.558C213.082 308.099 217.741 307.23 221.804 305.556C225.872 303.881 229.425 301.363 231.58 297.562L229.405 296.329C227.614 299.489 224.596 301.702 220.852 303.245C217.104 304.789 212.712 305.623 208.319 306.071C203.932 306.517 199.606 306.572 195.999 306.585C194.206 306.592 192.571 306.588 191.22 306.62C189.892 306.651 188.727 306.716 187.909 306.888L188.422 309.335ZM231.58 297.562C232.718 295.552 232.94 293.559 232.261 291.678C231.602 289.857 230.159 288.309 228.31 286.994C224.621 284.37 218.851 282.345 212.431 280.843C199.55 277.829 183.406 276.777 174.233 277.63L174.465 280.119C183.337 279.294 199.209 280.317 211.861 283.277C218.207 284.762 223.583 286.7 226.861 289.031C228.495 290.194 229.492 291.373 229.909 292.528C230.305 293.624 230.238 294.858 229.405 296.329L231.58 297.562ZM174.233 277.63C168.177 278.193 159.223 279.17 152.453 281.881C149.07 283.235 146.062 285.086 144.28 287.693C142.442 290.382 142.027 293.7 143.508 297.64L145.848 296.76C144.613 293.473 145.028 291.029 146.344 289.104C147.717 287.096 150.187 285.481 153.382 284.202C159.766 281.646 168.365 280.687 174.465 280.119L174.233 277.63ZM143.508 297.64C145.919 304.053 153.004 307.41 159.785 308.847C163.228 309.577 166.716 309.842 169.727 309.737C172.694 309.633 175.348 309.164 177.032 308.316L175.907 306.083C174.711 306.686 172.494 307.138 169.639 307.238C166.828 307.337 163.544 307.089 160.303 306.402C153.715 305.005 147.785 301.911 145.848 296.76L143.508 297.64Z" fill="#121212"/>
<path d="M180.112 299.038C180.279 299.038 180.426 298.975 180.551 298.85C180.676 298.724 180.739 298.578 180.739 298.411C180.739 298.319 180.722 298.239 180.688 298.172C180.646 298.08 180.6 297.997 180.55 297.922C180.508 297.855 180.462 297.78 180.412 297.696L179.884 296.856C180.101 296.555 180.277 296.22 180.41 295.852C180.552 295.484 180.66 295.108 180.735 294.723C180.81 294.33 180.86 293.937 180.884 293.544C180.909 293.143 180.921 292.758 180.921 292.39C180.92 292.072 180.908 291.759 180.882 291.449C180.865 291.14 180.811 290.835 180.718 290.534C180.609 290.158 180.45 289.819 180.241 289.518C180.04 289.209 179.797 288.946 179.512 288.729C179.236 288.503 178.927 288.332 178.584 288.216C178.249 288.09 177.894 288.028 177.517 288.028C176.815 288.029 176.209 288.201 175.699 288.545C175.189 288.888 174.768 289.327 174.434 289.863C174.108 290.398 173.866 290.996 173.708 291.657C173.558 292.318 173.484 292.962 173.484 293.589C173.485 294.141 173.544 294.701 173.661 295.269C173.779 295.83 173.968 296.335 174.227 296.787C174.495 297.238 174.843 297.605 175.27 297.889C175.705 298.173 176.236 298.315 176.863 298.314C177.214 298.314 177.561 298.272 177.904 298.188C178.255 298.104 178.585 297.97 178.894 297.785C178.911 297.769 178.928 297.756 178.944 297.748C178.961 297.748 178.978 297.739 178.995 297.722L179.271 298.161C179.321 298.245 179.371 298.337 179.422 298.437C179.472 298.546 179.531 298.642 179.598 298.725C179.665 298.817 179.736 298.892 179.811 298.951C179.895 299.009 179.995 299.038 180.112 299.038ZM174.651 293.475C174.65 293.04 174.696 292.572 174.787 292.07C174.887 291.568 175.041 291.104 175.25 290.677C175.467 290.242 175.751 289.882 176.102 289.598C176.453 289.313 176.887 289.17 177.406 289.17C177.682 289.17 177.941 289.22 178.183 289.32C178.426 289.42 178.644 289.558 178.836 289.733C179.037 289.9 179.204 290.101 179.338 290.335C179.472 290.569 179.573 290.823 179.64 291.099C179.699 291.333 179.733 291.567 179.741 291.802C179.758 292.027 179.767 292.257 179.767 292.491C179.767 292.734 179.759 292.997 179.743 293.282C179.735 293.558 179.71 293.846 179.668 294.147C179.635 294.44 179.585 294.728 179.519 295.013C179.452 295.297 179.36 295.565 179.243 295.816L178.854 295.176C178.804 295.093 178.754 295.001 178.703 294.901C178.653 294.792 178.594 294.696 178.527 294.612C178.46 294.52 178.385 294.445 178.301 294.387C178.218 294.328 178.121 294.299 178.013 294.299C177.846 294.299 177.699 294.362 177.574 294.488C177.449 294.613 177.386 294.76 177.386 294.927C177.386 295.011 177.403 295.09 177.437 295.165C177.479 295.249 177.52 295.328 177.562 295.404C177.613 295.479 177.663 295.554 177.713 295.629L178.329 296.619L178.442 296.795C178.216 296.937 177.978 297.038 177.727 297.097C177.476 297.147 177.225 297.172 176.975 297.173C176.515 297.173 176.134 297.052 175.833 296.81C175.532 296.568 175.293 296.267 175.117 295.908C174.941 295.54 174.819 295.139 174.752 294.704C174.685 294.269 174.651 293.859 174.651 293.475ZM187.113 296.786C187.247 296.903 187.385 297.016 187.527 297.124C187.669 297.233 187.812 297.342 187.954 297.45C188.063 297.534 188.18 297.621 188.305 297.713C188.439 297.805 188.577 297.851 188.719 297.851C188.887 297.851 189.033 297.792 189.158 297.675C189.284 297.558 189.346 297.415 189.346 297.248C189.346 297.114 189.296 296.997 189.195 296.897C189.103 296.805 188.998 296.726 188.881 296.659C188.764 296.584 188.655 296.509 188.555 296.434C188.429 296.342 188.304 296.246 188.178 296.146C188.053 296.045 187.932 295.941 187.814 295.832C187.864 295.757 187.931 295.64 188.015 295.481C188.107 295.314 188.194 295.142 188.278 294.966C188.361 294.782 188.432 294.607 188.49 294.439C188.557 294.272 188.59 294.147 188.59 294.063C188.59 293.913 188.536 293.791 188.427 293.699C188.326 293.608 188.205 293.562 188.063 293.562C187.963 293.562 187.866 293.587 187.775 293.637C187.691 293.688 187.616 293.75 187.549 293.826C187.516 293.868 187.478 293.926 187.436 294.001C187.403 294.077 187.37 294.16 187.336 294.252C187.303 294.336 187.269 294.42 187.236 294.503C187.211 294.587 187.186 294.658 187.161 294.717C187.144 294.758 187.123 294.805 187.098 294.855C187.082 294.897 187.061 294.938 187.036 294.98C186.91 294.813 186.789 294.65 186.672 294.491C186.554 294.324 186.437 294.157 186.32 293.99C186.186 293.806 186.039 293.61 185.88 293.401C185.73 293.192 185.575 292.971 185.416 292.737C185.541 292.594 185.658 292.465 185.766 292.347C185.875 292.222 185.971 292.113 186.055 292.021C186.213 291.845 186.372 291.67 186.531 291.494C186.689 291.318 186.827 291.13 186.944 290.929C187.028 290.787 187.09 290.636 187.132 290.477C187.182 290.318 187.207 290.155 187.206 289.988C187.206 289.704 187.152 289.445 187.043 289.211C186.942 288.977 186.8 288.78 186.616 288.621C186.432 288.454 186.218 288.325 185.976 288.233C185.733 288.142 185.474 288.096 185.198 288.096C184.939 288.096 184.684 288.151 184.433 288.26C184.182 288.369 183.956 288.515 183.756 288.7C183.555 288.884 183.393 289.097 183.267 289.34C183.151 289.582 183.092 289.833 183.093 290.092C183.093 290.41 183.135 290.72 183.219 291.02C183.303 291.321 183.408 291.614 183.533 291.898C183.6 292.049 183.672 292.195 183.747 292.337C183.822 292.471 183.902 292.609 183.986 292.751C183.693 293.094 183.409 293.437 183.134 293.78C182.867 294.115 182.675 294.403 182.558 294.646C182.449 294.863 182.362 295.102 182.295 295.361C182.237 295.612 182.208 295.859 182.208 296.101C182.208 296.419 182.271 296.703 182.397 296.954C182.523 297.205 182.686 297.418 182.887 297.593C183.096 297.769 183.339 297.902 183.615 297.994C183.891 298.086 184.179 298.131 184.48 298.131C185.007 298.13 185.488 298.005 185.922 297.753C186.365 297.502 186.762 297.18 187.113 296.786ZM184.246 289.991C184.246 289.891 184.271 289.794 184.321 289.702C184.38 289.602 184.447 289.518 184.522 289.451C184.605 289.376 184.697 289.317 184.798 289.275C184.898 289.225 184.998 289.2 185.099 289.2C185.366 289.2 185.592 289.283 185.776 289.45C185.96 289.609 186.052 289.822 186.053 290.09C186.053 290.181 186.032 290.273 185.99 290.366C185.957 290.449 185.915 290.529 185.865 290.604C185.74 290.796 185.598 290.972 185.439 291.131C185.289 291.29 185.138 291.453 184.988 291.621C184.938 291.688 184.892 291.742 184.85 291.784C184.674 291.491 184.528 291.195 184.41 290.894C184.301 290.585 184.247 290.284 184.246 289.991ZM186.347 296.022C186.105 296.306 185.838 296.545 185.545 296.738C185.261 296.93 184.943 297.027 184.592 297.027C184.433 297.027 184.278 297.006 184.128 296.965C183.977 296.923 183.844 296.861 183.726 296.777C183.618 296.685 183.53 296.577 183.463 296.451C183.396 296.318 183.362 296.163 183.362 295.987C183.362 295.845 183.382 295.686 183.424 295.511C183.474 295.327 183.532 295.168 183.599 295.034C183.691 294.866 183.825 294.661 184 294.419C184.184 294.176 184.384 293.925 184.601 293.666C184.668 293.758 184.731 293.849 184.79 293.941C184.857 294.025 184.924 294.113 184.991 294.205C185.158 294.447 185.326 294.689 185.493 294.932C185.661 295.166 185.836 295.399 186.021 295.633C186.071 295.7 186.121 295.767 186.171 295.834C186.23 295.892 186.288 295.955 186.347 296.022ZM191.672 294.562C191.947 294.553 192.219 294.54 192.487 294.523C192.763 294.506 193.039 294.489 193.315 294.472C193.565 294.455 193.82 294.447 194.08 294.446C194.339 294.446 194.598 294.433 194.857 294.408C194.975 294.751 195.092 295.089 195.209 295.424C195.335 295.75 195.457 296.084 195.574 296.427C195.599 296.502 195.645 296.64 195.713 296.84C195.788 297.041 195.863 297.246 195.939 297.455C196.023 297.672 196.098 297.873 196.165 298.057C196.241 298.24 196.295 298.353 196.329 298.395C196.446 298.537 196.592 298.608 196.768 298.608C196.935 298.608 197.081 298.545 197.207 298.419C197.332 298.294 197.395 298.147 197.394 297.98C197.394 297.938 197.386 297.884 197.369 297.817C197.319 297.65 197.26 297.487 197.193 297.328C197.126 297.178 197.059 297.019 196.992 296.852C196.866 296.517 196.745 296.187 196.627 295.861C196.51 295.527 196.392 295.192 196.275 294.858C195.981 294.022 195.692 293.191 195.407 292.363C195.13 291.527 194.828 290.695 194.502 289.868C194.409 289.651 194.313 289.437 194.212 289.229C194.12 289.011 194.011 288.806 193.886 288.614C193.777 288.447 193.647 288.297 193.496 288.163C193.346 288.021 193.162 287.95 192.944 287.95C192.76 287.951 192.597 288.005 192.455 288.114C192.313 288.214 192.196 288.344 192.105 288.503C192.013 288.67 191.933 288.871 191.867 289.105C191.767 289.448 191.679 289.791 191.604 290.134C191.529 290.469 191.45 290.807 191.367 291.15C191.142 292.062 190.917 292.965 190.693 293.86C190.468 294.755 190.23 295.654 189.98 296.558C189.964 296.625 189.939 296.717 189.905 296.834C189.872 296.942 189.839 297.055 189.805 297.172C189.772 297.289 189.743 297.402 189.718 297.511C189.693 297.62 189.68 297.699 189.68 297.749C189.681 297.908 189.731 298.034 189.831 298.126C189.94 298.217 190.066 298.263 190.208 298.263C190.325 298.263 190.429 298.23 190.521 298.163C190.613 298.104 190.692 298.024 190.759 297.924C190.784 297.891 190.818 297.803 190.859 297.661C190.901 297.518 190.943 297.364 190.984 297.196C191.026 297.037 191.068 296.883 191.109 296.732C191.151 296.573 191.18 296.46 191.197 296.393C191.28 296.084 191.359 295.779 191.434 295.478C191.509 295.176 191.588 294.871 191.672 294.562ZM192.958 289.393C193.201 289.794 193.398 290.22 193.549 290.672C193.708 291.123 193.868 291.574 194.027 292.026C194.102 292.235 194.174 292.444 194.241 292.653C194.316 292.853 194.392 293.058 194.467 293.267C194.25 293.284 194.032 293.301 193.815 293.318C193.606 293.326 193.393 293.335 193.175 293.344C192.983 293.352 192.782 293.361 192.573 293.369C192.373 293.369 192.172 293.374 191.971 293.382C192.055 293.048 192.138 292.717 192.221 292.391C192.305 292.057 192.388 291.722 192.471 291.388C192.554 291.053 192.634 290.723 192.708 290.396C192.783 290.062 192.867 289.727 192.958 289.393Z" fill="#121212"/>
</svg>
