<svg width="110" height="110" viewBox="0 0 110 110" fill="none" xmlns="http://www.w3.org/2000/svg">
<circle cx="55" cy="55" r="54.5" transform="rotate(90 55 55)" fill="#F2F2F2" stroke="#BDBDBD"/>
<path d="M39.1685 34.3681C40.2332 33.4381 41.9511 33.5352 42.8646 34.6476C43.7757 35.7571 43.6857 37.4288 42.5883 38.3863C41.5235 39.3163 39.8056 39.2192 38.8921 38.1067C37.9811 36.9973 38.0711 35.3255 39.1685 34.3681Z" fill="#BDBDBD"/>
<path d="M64.4496 33.5805C65.5144 32.6505 67.2323 32.7476 68.1458 33.86C69.0568 34.9695 68.9668 36.6412 67.8694 37.5987C66.8046 38.5287 65.0867 38.4316 64.1732 37.3191C63.2622 36.2097 63.3522 34.5379 64.4496 33.5805Z" fill="#BDBDBD"/>
<path d="M45.8248 53.1899C45.1974 51.5534 45.1143 49.8295 45.5408 48.1283C45.953 46.4646 46.7973 44.8939 47.8553 43.5591C48.9534 42.1754 50.284 41.0018 51.9807 40.463C53.3842 40.0187 55.0327 40.3058 56.029 41.4703C56.518 42.0475 56.7828 42.8031 56.8427 43.5533C56.9544 44.9948 55.816 46.2806 54.4033 46.3781C53.8178 46.4171 53.2648 46.2523 52.8074 45.9461C52.7418 46.0014 52.6772 46.0579 52.6135 46.1153C52.3599 46.3804 52.1218 46.651 51.8901 46.9332C51.6759 47.2344 51.4724 47.5389 51.2766 47.8518C51.1068 48.1731 50.9522 48.4974 50.8071 48.8317C50.7298 49.0409 50.6607 49.2519 50.5986 49.4681C50.6279 49.3574 50.6547 49.2436 50.684 49.1329C50.6136 49.3751 50.5604 49.6207 50.5209 49.8697C50.5095 49.9993 50.5024 50.1288 50.4984 50.2585C50.5022 50.3866 50.5104 50.5145 50.5228 50.6415C50.5388 50.7265 50.5549 50.8114 50.5709 50.8962C50.6011 50.9976 50.6339 51.0979 50.6697 51.1973C50.7198 51.3027 50.7715 51.4067 50.8236 51.5104C50.8678 51.5823 50.9122 51.6543 50.9557 51.727C50.8992 51.6534 50.8461 51.5801 50.7911 51.5067C50.7747 51.4643 50.7579 51.4214 50.741 51.3783C50.7381 51.3733 50.7353 51.3683 50.7324 51.3632C50.7513 51.4112 50.7707 51.459 50.7908 51.5064C50.7768 51.4877 50.7628 51.469 50.7484 51.4502C50.8798 51.6416 51.0226 51.8236 51.1775 51.9952C51.2682 52.08 51.3606 52.1648 51.4497 52.2494C51.4071 52.2145 51.3638 52.1802 51.3201 52.1461C51.329 52.1551 51.3376 52.1642 51.3465 52.173C51.445 52.2491 51.5467 52.321 51.6511 52.3888C51.7586 52.4421 51.8657 52.4978 51.9732 52.5508C52.1172 52.6065 52.2631 52.6577 52.411 52.7032C52.5159 52.7272 52.621 52.7475 52.7267 52.7645C53.0336 52.7924 53.3398 52.812 53.6479 52.8212C54.5923 52.781 55.5267 52.6628 56.4657 52.55C57.8855 52.3757 59.1634 53.6329 59.256 55.0145C59.3542 56.5129 58.2309 57.6644 56.814 57.8363C54.1683 58.1589 51.3846 58.4353 48.9974 56.9497C48.247 56.4819 47.5718 55.8968 47.0124 55.2155C46.516 54.6111 46.1109 53.9312 45.8248 53.1899Z" fill="#BDBDBD"/>
<path d="M14.3245 67.0248C13.8653 65.6421 14.6335 64.1556 15.9748 63.6722C15.9865 63.6682 15.9979 63.6642 16.0094 63.6603C16.0573 63.6365 16.1053 63.6127 16.1532 63.5889C16.5033 63.3814 16.8496 63.1677 17.1893 62.939C17.4656 62.719 17.7332 62.4911 17.9933 62.2477C18.2307 61.9856 18.456 61.7195 18.676 61.444C19.002 60.9947 19.3073 60.5365 19.5954 60.0591C19.7604 59.7545 19.9149 59.445 20.061 59.1292C20.0989 59.0288 20.1346 58.9272 20.1681 58.8248C20.1839 58.4795 20.267 58.1329 20.4249 57.8053C20.8055 57.0212 21.5437 56.5042 22.3512 56.3624C22.3258 56.3641 22.3004 56.3658 22.275 56.3675C22.5968 56.2897 22.9708 56.2998 23.2904 56.3657C23.4441 56.3982 23.5933 56.4442 23.7369 56.5022C23.7517 56.5081 23.7665 56.5143 23.7812 56.5205C23.7827 56.5212 23.7843 56.5218 23.7858 56.5224C23.8023 56.5295 23.8185 56.5366 23.8349 56.544C23.8364 56.5446 23.8378 56.5453 23.8394 56.546C23.8545 56.5529 23.8699 56.5599 23.885 56.5672C23.8924 56.5707 23.8999 56.5744 23.9073 56.578C23.9147 56.5816 23.9222 56.5852 23.9295 56.5888C23.9294 56.5888 23.9292 56.5887 23.9291 56.5887C24.7574 57.0009 25.3533 57.8267 25.4082 58.7922C25.4677 59.8468 25.0413 60.8587 24.6135 61.7958C24.1099 62.9029 23.3982 63.9518 22.6462 64.9028C21.916 65.8254 21.0793 66.6855 20.1047 67.3471C19.3317 67.8699 18.5182 68.3861 17.6385 68.6996C16.602 69.0702 15.4575 68.6779 14.784 67.8578C14.5844 67.6147 14.4263 67.3343 14.3245 67.0248Z" fill="#BDBDBD"/>
<path d="M19.2438 61.3909C19.9967 60.1604 21.7216 59.8818 22.8759 60.6652C23.6392 61.1821 24.023 62.0121 24.0191 62.8617C24.2333 63.119 24.4542 63.3644 24.6811 63.6072C25.3209 64.2412 25.9818 64.8494 26.6785 65.4195C27.2057 65.8143 27.7407 66.1868 28.3007 66.531C29.3963 67.1365 30.5285 67.655 31.6648 68.1837C32.5796 68.6142 33.4967 69.0471 34.4267 69.4467C34.8769 69.624 35.33 69.7852 35.7939 69.9267C37.4748 70.3399 39.1973 70.5678 40.8927 70.9047C42.7701 71.2826 44.5861 71.924 46.48 72.2254C48.1104 72.4103 49.7507 72.46 51.3848 72.5788C53.2226 72.7139 55.053 72.9057 56.8937 72.9294C58.4754 72.8894 60.0544 72.7647 61.6342 72.6884C62.2199 72.6574 62.8203 72.7053 63.4104 72.7162C64.2801 72.7361 65.1494 72.7605 66.0203 72.7681C67.3417 72.7298 68.66 72.5678 69.9727 72.4109C70.8813 72.2801 71.7816 72.106 72.6771 71.8887C73.6486 71.6118 74.6094 71.2814 75.5777 70.9763C76.7526 70.6074 77.9319 70.25 79.0882 69.8157C78.983 69.8585 78.8778 69.9012 78.7751 69.947C81.1322 68.9764 83.4025 67.7668 85.6733 66.6057C86.8708 65.9019 88.0471 65.1844 89.19 64.3893C90.3651 63.5692 92.0475 63.9648 92.8173 65.1523C93.6137 66.3784 93.2405 68.0042 92.0629 68.8213C90.6305 69.8221 89.1393 70.7759 87.5838 71.5659C85.4367 72.6604 83.2886 73.7962 81.0619 74.7144C79.6715 75.2846 78.2163 75.6964 76.7822 76.1462C75.0831 76.682 73.4125 77.2038 71.652 77.5123C70.6536 77.6874 69.641 77.778 68.6323 77.8857C67.4079 78.0174 66.196 78.0729 64.964 78.0489C63.9286 78.0299 62.8914 78.0036 61.8536 77.9811C59.5518 78.0971 57.2537 78.2813 54.9511 78.1663C53.4365 78.0909 51.921 77.9353 50.4069 77.824C48.4769 77.6821 46.5477 77.651 44.6383 77.284C43.5793 77.0742 42.5303 76.7546 41.4852 76.4824C40.7957 76.3016 40.1141 76.1547 39.4127 76.0143C37.674 75.6661 35.896 75.4776 34.1881 74.9717C32.3713 74.4308 30.6591 73.5536 28.9428 72.7508C28.0267 72.3246 27.1136 71.8959 26.2213 71.4193C24.6433 70.5713 23.2304 69.473 21.916 68.2566C21.3526 67.7359 20.7247 67.1286 20.1756 66.46C18.9609 64.9808 18.1321 63.2007 19.2438 61.3909Z" fill="#BDBDBD"/>
<path d="M61.852 68.825C61.9723 67.062 62.2583 65.3117 62.6163 63.582C62.9713 61.8548 63.4433 60.1661 64.1179 58.5353C64.7405 57.0241 65.517 55.5965 66.4467 54.258C67.4674 52.7924 68.7424 51.5388 70.1518 50.4611C71.5731 49.3734 73.1597 48.5725 74.8034 47.8959C76.2678 47.294 77.8735 46.8519 79.457 46.8036C80.7853 46.7618 82.1797 47.0141 83.207 47.9296C84.4265 49.0181 85.2241 50.4103 85.5921 52.0115C86.0066 53.8218 86.2292 55.6363 86.358 57.4891C86.438 58.6785 86.438 59.8743 86.4741 61.0652C86.519 62.6388 86.5293 64.201 86.5031 65.7735C86.4769 67.0775 86.3658 68.3819 86.3094 69.6859C86.2513 71.1282 84.9386 72.2564 83.5344 72.1693C82.0894 72.0811 81.0217 70.7992 81.0823 69.36C81.1233 68.3424 81.1812 67.3209 81.2361 66.3019C81.286 65.3619 81.29 64.4202 81.3048 63.4795C81.2303 60.7724 81.2271 58.0492 80.903 55.3589C80.7873 54.6015 80.6377 53.8539 80.4697 53.1073C80.4322 52.9749 80.3903 52.844 80.3437 52.7144C80.2985 52.6226 80.2526 52.5299 80.2073 52.4379C80.1636 52.3679 80.1182 52.299 80.0712 52.2313C80.0319 52.1883 79.9936 52.1454 79.9555 52.1024C79.8798 52.0969 79.804 52.0933 79.7283 52.0913C79.5517 52.0953 79.3744 52.1046 79.1956 52.1199C78.9258 52.1661 78.6603 52.2217 78.3942 52.2861C77.6748 52.496 76.9695 52.7288 76.2749 53.0039C75.6721 53.274 75.0857 53.5686 74.5076 53.8886C74.1102 54.133 73.7239 54.3861 73.3435 54.6564C72.8545 55.0412 72.386 55.4426 71.9341 55.8736C71.5874 56.2416 71.2567 56.6216 70.9415 57.0194C70.5744 57.5311 70.2313 58.0525 69.9062 58.5942C69.5345 59.2701 69.2052 59.957 68.9063 60.6652C68.6019 61.4562 68.3325 62.2578 68.1081 63.0779C67.7348 64.5866 67.4399 66.1191 67.2291 67.662C67.2312 67.6386 67.2337 67.6153 67.2361 67.592C67.1277 68.5213 67.0452 69.4511 67.0278 70.3868C67.0414 70.7729 67.0661 71.1544 67.1015 71.5391C67.0844 71.4268 67.0698 71.3174 67.0557 71.2026C67.0837 71.4622 67.1244 71.7203 67.1798 71.9751C67.191 72.0125 67.203 72.0497 67.2154 72.0868C68.1881 72.9552 68.4346 74.4464 67.6876 75.5716C66.9007 76.7546 65.2255 77.1182 64.053 76.2943C63.7096 76.0531 63.4156 75.7758 63.1647 75.4703C61.7211 73.7125 61.7006 71.0157 61.852 68.825Z" fill="#BDBDBD"/>
<path d="M69.7253 74.3791C69.4026 73.2283 69.718 72.1418 70.0164 71.0348C70.4768 69.2379 70.7797 67.4154 71.1125 65.5876C71.2614 64.7684 71.3939 63.9476 71.5132 63.1228C71.5786 62.6473 71.6311 62.1623 71.7503 61.6974C71.935 60.995 72.2719 60.3926 72.8869 59.9824C73.452 59.609 74.1573 59.4674 74.8212 59.5988C76.152 59.859 77.2593 61.3051 76.8989 62.7024C76.7604 63.2292 76.7077 63.7751 76.6309 64.316C76.4991 65.2476 76.3324 66.1731 76.1651 67.1041C75.9978 68.0351 75.8468 68.9676 75.6633 69.8971C75.46 70.9388 75.1865 71.9654 74.9154 72.9912C75.0191 73.4599 74.9976 73.9554 74.8479 74.4129C74.4171 75.7159 72.863 76.6239 71.5369 76.0922C71.0038 75.9377 70.514 75.6447 70.1643 75.2188C69.9683 74.9801 69.8164 74.7 69.7253 74.3791Z" fill="#BDBDBD"/>
</svg>
