<svg width="22" height="26" viewBox="0 0 22 26" fill="none" xmlns="http://www.w3.org/2000/svg">
<path fill-rule="evenodd" clip-rule="evenodd" d="M14.8855 0.602087C15.79 0.696241 16.0129 1.77998 15.3863 2.4391C14.7742 3.08311 14.1509 3.78591 13.5494 4.53158C11.7619 6.74717 10.0712 9.45651 9.5305 12.2035C9.08669 14.4581 7.85768 16.7745 6.44025 18.7909C5.73058 19.8004 4.98876 20.7135 4.30442 21.4817C3.82214 22.0231 2.97308 22.0043 2.59646 21.3847C0.620392 18.134 0.771397 13.0033 3.32209 8.30349C6.09675 3.19105 10.8464 0.181634 14.8855 0.602087ZM19.5093 3.22175C19.1138 2.69725 18.3574 2.69485 17.8883 3.1548C17.0608 3.96623 16.1711 4.92147 15.328 5.96652C13.6254 8.07703 12.2071 10.4384 11.7728 12.6449C11.2416 15.3436 9.81535 17.9635 8.30985 20.1051C7.6518 21.0413 6.96712 21.9021 6.31418 22.6564C5.76913 23.2861 5.93375 24.276 6.74343 24.471C10.9549 25.485 16.2208 22.4194 19.2038 16.9229C21.9233 11.9121 21.915 6.41148 19.5093 3.22175Z" fill="#554338"/>
<path d="M13.5494 4.53158L13.1602 4.21763L13.5494 4.53158ZM9.5305 12.2035L9.03991 12.1069L9.5305 12.2035ZM6.44025 18.7909L6.0312 18.5033L6.44025 18.7909ZM15.328 5.96652L15.7172 6.28047L15.328 5.96652ZM11.7728 12.6449L11.2822 12.5483L11.7728 12.6449ZM8.30985 20.1051L7.90081 19.8176L8.30985 20.1051ZM6.74343 24.471L6.86047 23.9849L6.74343 24.471ZM4.30442 21.4817L3.93106 21.1492L4.30442 21.4817ZM2.59646 21.3847L2.1692 21.6444L2.59646 21.3847ZM15.3863 2.4391L15.7487 2.78359L15.3863 2.4391ZM13.9385 4.84553C14.5307 4.11154 15.1448 3.41891 15.7487 2.78359L15.0239 2.09462C14.4035 2.7473 13.7712 3.46028 13.1602 4.21763L13.9385 4.84553ZM10.0211 12.3001C10.5385 9.67131 12.1697 7.03808 13.9385 4.84553L13.1602 4.21763C11.3542 6.45627 9.60391 9.2417 9.03991 12.1069L10.0211 12.3001ZM6.84929 19.0784C8.28597 17.0347 9.55815 14.6519 10.0211 12.3001L9.03991 12.1069C8.61524 14.2644 7.42938 16.5144 6.0312 18.5033L6.84929 19.0784ZM4.67777 21.8143C5.37322 21.0336 6.12726 20.1055 6.84929 19.0784L6.0312 18.5033C5.3339 19.4953 4.60431 20.3934 3.93106 21.1492L4.67777 21.8143ZM3.02371 21.125C1.16722 18.071 1.26746 13.1375 3.76155 8.54199L2.88264 8.06499C0.275336 12.8691 0.0735625 18.197 2.1692 21.6444L3.02371 21.125ZM3.76155 8.54199C6.47913 3.53471 11.0666 0.707257 14.8338 1.0994L14.9373 0.104774C10.6262 -0.343989 5.71438 2.84738 2.88264 8.06499L3.76155 8.54199ZM17.5382 2.7978C16.6991 3.62064 15.796 4.59019 14.9389 5.65258L15.7172 6.28047C16.5463 5.25275 17.4225 4.31183 18.2384 3.51181L17.5382 2.7978ZM14.9389 5.65258C13.2177 7.78602 11.7398 10.2236 11.2822 12.5483L12.2634 12.7414C12.6744 10.6533 14.033 8.36804 15.7172 6.28047L14.9389 5.65258ZM11.2822 12.5483C10.7701 15.1499 9.38703 17.7034 7.90081 19.8176L8.7189 20.3927C10.2437 18.2236 11.713 15.5374 12.2634 12.7414L11.2822 12.5483ZM7.90081 19.8176C7.25344 20.7385 6.57932 21.5862 5.93614 22.3292L6.69222 22.9837C7.35492 22.2181 8.05016 21.344 8.7189 20.3927L7.90081 19.8176ZM18.7644 16.6844C15.8372 22.0779 10.761 24.924 6.86047 23.9849L6.62639 24.9571C11.1488 26.046 16.6044 22.7608 19.6433 17.1614L18.7644 16.6844ZM19.1101 3.52282C21.358 6.50324 21.4267 11.7789 18.7644 16.6844L19.6433 17.1614C22.4199 12.0454 22.4721 6.31972 19.9085 2.92068L19.1101 3.52282ZM5.93614 22.3292C5.5637 22.7595 5.42419 23.323 5.53163 23.8303C5.64194 24.3512 6.01671 24.8103 6.62639 24.9571L6.86047 23.9849C6.66047 23.9367 6.54809 23.8033 6.50993 23.6231C6.4689 23.4294 6.5196 23.1831 6.69222 22.9837L5.93614 22.3292ZM3.93106 21.1492C3.63787 21.4783 3.19975 21.4146 3.02371 21.125L2.1692 21.6444C2.74641 22.594 4.00641 22.568 4.67777 21.8143L3.93106 21.1492ZM18.2384 3.51181C18.5253 3.23042 18.9233 3.27508 19.1101 3.52282L19.9085 2.92068C19.3042 2.11941 18.1894 2.15928 17.5382 2.7978L18.2384 3.51181ZM15.7487 2.78359C16.1764 2.3337 16.3281 1.72387 16.1954 1.18848C16.0582 0.634687 15.6148 0.175296 14.9373 0.104774L14.8338 1.0994C15.0608 1.12303 15.1811 1.25259 15.2248 1.42898C15.273 1.62379 15.2228 1.88538 15.0239 2.09462L15.7487 2.78359Z" fill="black"/>
</svg>
