<svg width="48" height="49" viewBox="0 0 48 49" fill="none" xmlns="http://www.w3.org/2000/svg">
<path d="M33 23.8057V33.1597C33 33.4249 32.8946 33.6792 32.7071 33.8668C32.5196 34.0543 32.2652 34.1597 32 34.1597H16C15.7348 34.1597 15.4804 34.0543 15.2929 33.8668C15.1054 33.6792 15 33.4249 15 33.1597V23.8057C14.3543 23.0756 13.9986 22.1343 14 21.1597V15.1597C14 14.8945 14.1054 14.6401 14.2929 14.4526C14.4804 14.265 14.7348 14.1597 15 14.1597H33C33.2652 14.1597 33.5196 14.265 33.7071 14.4526C33.8946 14.6401 34 14.8945 34 15.1597V21.1597C34 22.1737 33.622 23.0997 33 23.8057ZM31 25.0337C30.2849 25.2174 29.5328 25.1999 28.827 24.9832C28.1211 24.7665 27.4889 24.359 27 23.8057C26.625 24.2318 26.1635 24.5729 25.6461 24.8064C25.1288 25.0399 24.5676 25.1603 24 25.1597C23.4324 25.1603 22.8712 25.0399 22.3539 24.8064C21.8365 24.5729 21.375 24.2318 21 23.8057C20.5123 24.3606 19.8801 24.7692 19.1739 24.9861C18.4676 25.2029 17.7151 25.2194 17 25.0337V32.1597H31V25.0337ZM26 21.1597C26 20.8945 26.1054 20.6401 26.2929 20.4526C26.4804 20.265 26.7348 20.1597 27 20.1597C27.2652 20.1597 27.5196 20.265 27.7071 20.4526C27.8946 20.6401 28 20.8945 28 21.1597C28 21.6901 28.2107 22.1988 28.5858 22.5739C28.9609 22.949 29.4696 23.1597 30 23.1597C30.5304 23.1597 31.0391 22.949 31.4142 22.5739C31.7893 22.1988 32 21.6901 32 21.1597V16.1597H16V21.1597C16 21.6901 16.2107 22.1988 16.5858 22.5739C16.9609 22.949 17.4696 23.1597 18 23.1597C18.5304 23.1597 19.0391 22.949 19.4142 22.5739C19.7893 22.1988 20 21.6901 20 21.1597C20 20.8945 20.1054 20.6401 20.2929 20.4526C20.4804 20.265 20.7348 20.1597 21 20.1597C21.2652 20.1597 21.5196 20.265 21.7071 20.4526C21.8946 20.6401 22 20.8945 22 21.1597C22 21.6901 22.2107 22.1988 22.5858 22.5739C22.9609 22.949 23.4696 23.1597 24 23.1597C24.5304 23.1597 25.0391 22.949 25.4142 22.5739C25.7893 22.1988 26 21.6901 26 21.1597Z" fill="#333333"/>
</svg>
