<svg width="375" height="369" viewBox="0 0 375 369" fill="none" xmlns="http://www.w3.org/2000/svg">
<path d="M76.6239 31.6232V32.1224L76.6551 33.1312V33.6304C76.6551 33.7552 76.6967 33.8557 76.7799 33.932C76.87 34.0083 76.974 34.0464 77.0919 34.0464C77.2652 34.0464 77.397 33.9875 77.4871 33.8696C77.5772 33.7517 77.6223 33.6131 77.6223 33.4536C77.6223 33.1901 77.6154 32.9301 77.6015 32.6736C77.5946 32.4171 77.5876 32.1571 77.5807 31.8936V30.8848C77.5807 30.6699 77.5738 30.4584 77.5599 30.2504C77.553 30.0424 77.5322 29.8309 77.4975 29.616C77.4767 29.4704 77.4386 29.3456 77.3831 29.2416C77.3346 29.1376 77.2202 29.0856 77.0399 29.0856C76.9082 29.0856 76.7868 29.1341 76.6759 29.2312C76.5719 29.3283 76.5199 29.4461 76.5199 29.5848C76.5199 29.7165 76.5303 29.8483 76.5511 29.98C76.5719 30.1048 76.5892 30.2296 76.6031 30.3544C76.617 30.5693 76.6239 30.7808 76.6239 30.9888C76.6239 31.1968 76.6239 31.4083 76.6239 31.6232ZM73.5663 30.2712C73.4692 30.4099 73.3756 30.552 73.2855 30.6976C73.1954 30.8363 73.1018 30.9749 73.0047 31.1136C72.762 31.4464 72.4951 31.7549 72.2039 32.0392C71.9127 32.3235 71.6007 32.5869 71.2679 32.8296C71.0668 32.9683 70.845 33.1104 70.6023 33.256C70.5468 33.2907 70.4879 33.3219 70.4255 33.3496C70.37 33.3773 70.3146 33.412 70.2591 33.4536C70.1967 33.5021 70.1447 33.5611 70.1031 33.6304C70.0615 33.6997 70.0407 33.7725 70.0407 33.8488C70.0407 33.9736 70.0823 34.0741 70.1655 34.1504C70.2556 34.2267 70.3596 34.2648 70.4775 34.2648C70.5884 34.2648 70.7167 34.2197 70.8623 34.1296C71.0079 34.0395 71.1292 33.9632 71.2263 33.9008C71.4482 33.7621 71.6631 33.6165 71.8711 33.464C72.0791 33.3045 72.2836 33.1416 72.4847 32.9752C72.6095 33.0515 72.7551 33.1381 72.9215 33.2352C73.0948 33.3323 73.2647 33.4259 73.4311 33.516C73.5975 33.6061 73.7431 33.6859 73.8679 33.7552C73.9996 33.8176 74.0863 33.8557 74.1279 33.8696C74.1834 33.8973 74.2458 33.9112 74.3151 33.9112C74.4468 33.9112 74.5647 33.8627 74.6687 33.7656C74.7796 33.6685 74.8351 33.5507 74.8351 33.412C74.8351 33.2941 74.7935 33.1971 74.7103 33.1208C74.6548 33.0653 74.5612 33.0064 74.4295 32.944C74.2978 32.8816 74.1938 32.8296 74.1175 32.788C73.965 32.7117 73.8159 32.632 73.6703 32.5488C73.5247 32.4656 73.3756 32.3789 73.2231 32.2888H73.2127C73.3098 32.1709 73.4068 32.0531 73.5039 31.9352C73.601 31.8173 73.6946 31.696 73.7847 31.5712C73.8748 31.4533 73.958 31.332 74.0343 31.2072C74.1175 31.0824 74.1972 30.9611 74.2735 30.8432C74.3498 30.7253 74.433 30.6005 74.5231 30.4688C74.6202 30.3301 74.6687 30.188 74.6687 30.0424C74.6687 29.8621 74.6167 29.7269 74.5127 29.6368C74.4156 29.5467 74.2874 29.4739 74.1279 29.4184C74.0655 29.3976 73.9546 29.3837 73.7951 29.3768C73.6356 29.3629 73.4658 29.356 73.2855 29.356C73.1052 29.3491 72.9319 29.3456 72.7655 29.3456C72.5991 29.3456 72.4778 29.3456 72.4015 29.3456H71.4343L70.8311 29.3248H70.5295C70.3978 29.3248 70.2764 29.3733 70.1655 29.4704C70.0615 29.5675 70.0095 29.6853 70.0095 29.824C70.0095 30.0043 70.0927 30.1291 70.2591 30.1984C70.2868 30.2123 70.377 30.2227 70.5295 30.2296C70.689 30.2365 70.8762 30.2435 71.0911 30.2504C71.313 30.2573 71.5522 30.2608 71.8087 30.2608C72.0652 30.2608 72.3079 30.2608 72.5367 30.2608C72.7724 30.2608 72.9839 30.2643 73.1711 30.2712C73.3583 30.2712 73.49 30.2712 73.5663 30.2712ZM76.5407 35.3048C76.5546 35.3395 76.5615 35.3741 76.5615 35.4088C76.5615 35.4435 76.5615 35.4781 76.5615 35.5128C76.5615 35.5821 76.558 35.6515 76.5511 35.7208C76.5511 35.7832 76.5476 35.8491 76.5407 35.9184C75.9098 35.9323 75.2788 35.9461 74.6479 35.96C74.0239 35.9669 73.393 35.9704 72.7551 35.9704C72.6996 35.9704 72.6476 35.9704 72.5991 35.9704C72.5506 35.9704 72.4986 35.9739 72.4431 35.9808C72.1588 36.0085 71.93 36.1125 71.7567 36.2928C71.5903 36.4731 71.5071 36.7019 71.5071 36.9792C71.5071 37.0624 71.514 37.1421 71.5279 37.2184C71.5418 37.2947 71.5556 37.3709 71.5695 37.4472C71.5834 37.5443 71.6007 37.6379 71.6215 37.728C71.6423 37.8251 71.6804 37.9152 71.7359 37.9984C71.8122 38.1301 71.9196 38.2307 72.0583 38.3C72.197 38.3693 72.346 38.4213 72.5055 38.456C72.6719 38.4907 72.8383 38.5115 73.0047 38.5184C73.178 38.5253 73.3306 38.5288 73.4623 38.5288C74.0932 38.5288 74.7207 38.5253 75.3447 38.5184C75.9687 38.5115 76.5962 38.508 77.2271 38.508C77.3588 38.508 77.4767 38.4595 77.5807 38.3624C77.6916 38.2653 77.7471 38.1475 77.7471 38.0088C77.7471 37.9117 77.7263 37.8355 77.6847 37.78C77.65 37.7245 77.6015 37.6829 77.5391 37.6552C77.4836 37.6275 77.4178 37.6101 77.3415 37.6032C77.2652 37.5963 77.189 37.5928 77.1127 37.5928H75.5527L74.2215 37.6136H73.5559C73.5004 37.6136 73.4276 37.6101 73.3375 37.6032C73.2474 37.6032 73.1538 37.5997 73.0567 37.5928C72.9596 37.5859 72.8695 37.5755 72.7863 37.5616C72.7031 37.5477 72.6372 37.5269 72.5887 37.4992C72.554 37.4021 72.5263 37.3016 72.5055 37.1976C72.4916 37.0936 72.4812 36.9896 72.4743 36.8856C72.6546 36.8717 72.8348 36.8683 73.0151 36.8752C73.1954 36.8752 73.3756 36.8752 73.5559 36.8752C74.0967 36.8752 74.634 36.8648 75.1679 36.844C75.7018 36.8232 76.2391 36.8128 76.7799 36.8128C76.9394 36.8128 77.0642 36.7955 77.1543 36.7608C77.2444 36.7192 77.3138 36.6637 77.3623 36.5944C77.4108 36.5181 77.442 36.428 77.4559 36.324C77.4698 36.22 77.4836 36.1021 77.4975 35.9704C77.5044 35.9011 77.5079 35.8352 77.5079 35.7728C77.5148 35.7035 77.5183 35.6307 77.5183 35.5544C77.5183 35.3949 77.5079 35.2459 77.4871 35.1072C77.4663 34.9616 77.4247 34.8368 77.3623 34.7328C77.2999 34.6288 77.2098 34.5456 77.0919 34.4832C76.981 34.4208 76.8319 34.3896 76.6447 34.3896H75.1471C75.0778 34.3896 74.9564 34.3896 74.7831 34.3896C74.6098 34.3896 74.4087 34.3896 74.1799 34.3896C73.9511 34.3896 73.7119 34.3931 73.4623 34.4C73.2127 34.4 72.977 34.4035 72.7551 34.4104C72.5402 34.4173 72.353 34.4277 72.1935 34.4416C72.034 34.4485 71.937 34.4589 71.9023 34.4728C71.8052 34.5075 71.7255 34.5664 71.6631 34.6496C71.6007 34.7328 71.5695 34.8264 71.5695 34.9304C71.5695 35.0552 71.6111 35.1557 71.6943 35.232C71.7844 35.3083 71.8884 35.3464 72.0063 35.3464C72.2975 35.3464 72.5852 35.3429 72.8695 35.336C73.1607 35.3221 73.4519 35.3117 73.7431 35.3048C74.2146 35.2979 74.6791 35.2979 75.1367 35.3048C75.6012 35.3048 76.0692 35.3048 76.5407 35.3048ZM80.6558 29.7304C80.6558 29.8899 80.6593 30.0979 80.6662 30.3544C80.6732 30.6109 80.6905 30.8744 80.7182 31.1448C80.7529 31.4152 80.8014 31.6717 80.8638 31.9144C80.9262 32.1501 81.0094 32.3235 81.1134 32.4344C81.1897 32.5107 81.266 32.5696 81.3422 32.6112C81.4185 32.6459 81.5086 32.6771 81.6126 32.7048C81.7236 32.7325 81.8345 32.7499 81.9454 32.7568C82.0564 32.7637 82.1673 32.7707 82.2782 32.7776C82.618 32.7984 82.9542 32.8123 83.287 32.8192C83.6198 32.8192 83.9561 32.8192 84.2958 32.8192L85.2318 32.788H85.6894C85.8489 32.788 86.0014 32.7707 86.147 32.736C86.2926 32.6944 86.3966 32.5869 86.459 32.4136C86.4868 32.3373 86.5076 32.2576 86.5214 32.1744C86.5353 32.0843 86.5492 31.9976 86.563 31.9144C86.6185 31.6301 86.6601 31.3493 86.6878 31.072C86.7156 30.7947 86.7294 30.5104 86.7294 30.2192C86.7294 29.928 86.6878 29.7131 86.6046 29.5744C86.5214 29.4288 86.407 29.3283 86.2614 29.2728C86.1158 29.2104 85.946 29.1792 85.7518 29.1792C85.5577 29.1723 85.3497 29.1653 85.1278 29.1584C84.8574 29.1515 84.587 29.148 84.3166 29.148C84.0532 29.1411 83.7862 29.1376 83.5158 29.1376C83.4049 29.1376 83.2212 29.1376 82.9646 29.1376C82.715 29.1376 82.4516 29.1445 82.1742 29.1584C81.9038 29.1653 81.6508 29.1792 81.415 29.2C81.1862 29.2208 81.0337 29.2485 80.9574 29.2832C80.8742 29.3248 80.8014 29.3872 80.739 29.4704C80.6836 29.5467 80.6558 29.6333 80.6558 29.7304ZM81.623 30.0944C81.9281 30.0736 82.2297 30.0597 82.5278 30.0528C82.826 30.0459 83.1276 30.0424 83.4326 30.0424C83.6892 30.0424 83.9422 30.0459 84.1918 30.0528C84.4414 30.0528 84.6945 30.0563 84.951 30.0632C85.0897 30.0701 85.2214 30.0736 85.3462 30.0736C85.478 30.0736 85.6132 30.0805 85.7518 30.0944C85.7588 30.1291 85.7622 30.1637 85.7622 30.1984C85.7622 30.2331 85.7622 30.2677 85.7622 30.3024C85.7622 30.5659 85.7484 30.8293 85.7206 31.0928C85.6929 31.3493 85.6548 31.6093 85.6062 31.8728C85.3428 31.8797 85.0828 31.8867 84.8262 31.8936C84.5697 31.9005 84.3097 31.904 84.0462 31.904C83.8868 31.904 83.7134 31.904 83.5262 31.904C83.339 31.904 83.1484 31.904 82.9542 31.904C82.7601 31.8971 82.5694 31.8867 82.3822 31.8728C82.202 31.8589 82.0356 31.8381 81.883 31.8104C81.8345 31.7203 81.7929 31.6024 81.7582 31.4568C81.7305 31.3043 81.7062 31.1448 81.6854 30.9784C81.6646 30.812 81.6473 30.6491 81.6334 30.4896C81.6265 30.3301 81.623 30.1984 81.623 30.0944ZM83.5158 36.2408C83.5158 36.3656 83.5574 36.4661 83.6406 36.5424C83.7308 36.6187 83.8348 36.6568 83.9526 36.6568C84.0705 36.6568 84.1814 36.6152 84.2854 36.532C84.3894 36.4488 84.4518 36.3483 84.4726 36.2304C84.4865 36.1749 84.49 36.116 84.483 36.0536C84.483 35.9912 84.483 35.9323 84.483 35.8768C84.49 35.6827 84.4934 35.492 84.4934 35.3048C84.4934 35.1107 84.4934 34.9165 84.4934 34.7224H84.6286L86.5942 34.7432H87.5718C87.7105 34.7432 87.8318 34.6947 87.9358 34.5976C88.0398 34.5005 88.0918 34.3827 88.0918 34.244C88.0918 34.0637 88.0017 33.9355 87.8214 33.8592C87.8006 33.8523 87.7313 33.8453 87.6134 33.8384C87.4956 33.8315 87.3534 33.828 87.187 33.828C87.0276 33.8211 86.8508 33.8176 86.6566 33.8176C86.4625 33.8107 86.2788 33.8072 86.1054 33.8072C85.9321 33.8072 85.7796 33.8072 85.6478 33.8072C85.5161 33.8072 85.4294 33.8072 85.3878 33.8072H84.3166L82.1638 33.8176H81.0822C80.8604 33.8176 80.635 33.8141 80.4062 33.8072C80.1774 33.8003 79.9521 33.8037 79.7302 33.8176C79.6748 33.8176 79.6262 33.828 79.5846 33.8488C79.4876 33.8835 79.4044 33.9424 79.335 34.0256C79.2657 34.1088 79.231 34.2059 79.231 34.3168C79.231 34.4347 79.2588 34.5248 79.3142 34.5872C79.3697 34.6427 79.439 34.6808 79.5222 34.7016C79.6054 34.7224 79.6956 34.7328 79.7926 34.7328C79.8897 34.7328 79.9764 34.7328 80.0526 34.7328H80.947L82.7566 34.7224H83.5262C83.5193 34.9789 83.5158 35.232 83.5158 35.4816C83.5158 35.7312 83.5158 35.9843 83.5158 36.2408ZM80.7806 36.9584C80.7806 37.0693 80.7806 37.1768 80.7806 37.2808C80.7876 37.3917 80.8049 37.5027 80.8326 37.6136C80.9158 37.9464 81.0892 38.1752 81.3526 38.3C81.623 38.4317 81.9246 38.4976 82.2574 38.4976C82.9438 38.4976 83.6268 38.4872 84.3062 38.4664C84.9857 38.4525 85.6686 38.4456 86.355 38.4456C86.4174 38.4456 86.4798 38.4421 86.5422 38.4352C86.6046 38.4352 86.6636 38.4248 86.719 38.404C86.8161 38.3693 86.8958 38.3104 86.9582 38.2272C87.0206 38.144 87.0518 38.0504 87.0518 37.9464C87.0518 37.8216 87.0068 37.7211 86.9166 37.6448C86.8334 37.5685 86.7329 37.5304 86.615 37.5304C85.9009 37.5304 85.1868 37.5408 84.4726 37.5616C83.7654 37.5824 83.0548 37.5928 82.3406 37.5928C82.2852 37.5928 82.2228 37.5893 82.1534 37.5824C82.091 37.5824 82.0321 37.572 81.9766 37.5512C81.8796 37.5027 81.8172 37.4403 81.7894 37.364C81.7686 37.3155 81.7548 37.2323 81.7478 37.1144C81.7409 36.9965 81.7374 36.8717 81.7374 36.74C81.7374 36.6013 81.7374 36.4696 81.7374 36.3448C81.7444 36.22 81.7478 36.1195 81.7478 36.0432C81.7478 35.96 81.7444 35.8803 81.7374 35.804C81.7305 35.7208 81.7097 35.6515 81.675 35.596C81.6473 35.5336 81.6022 35.4851 81.5398 35.4504C81.4844 35.4088 81.4046 35.388 81.3006 35.388C81.1412 35.388 81.0129 35.4435 80.9158 35.5544C80.8188 35.6653 80.7702 35.7971 80.7702 35.9496L80.7806 36.9584ZM95.4426 37.728C95.4426 37.7627 95.4391 37.8008 95.4322 37.8424C95.4322 37.884 95.4322 37.9256 95.4322 37.9672C95.4322 38.1059 95.4703 38.2168 95.5466 38.3C95.6298 38.3832 95.7407 38.4248 95.8794 38.4248C96.0111 38.4248 96.129 38.3763 96.233 38.2792C96.3439 38.1821 96.3994 38.0643 96.3994 37.9256V35.2944C96.3994 34.9477 96.3959 34.6045 96.389 34.2648C96.389 33.9181 96.3855 33.5715 96.3786 33.2248C96.4965 33.2248 96.597 33.2213 96.6802 33.2144C96.7634 33.2075 96.8431 33.204 96.9194 33.204C97.0026 33.1971 97.0858 33.1936 97.169 33.1936C97.2591 33.1867 97.3631 33.1832 97.481 33.1832C97.6405 33.1832 97.7895 33.1485 97.9282 33.0792C98.0738 33.0029 98.1466 32.8712 98.1466 32.684C98.1466 32.5592 98.1015 32.4587 98.0114 32.3824C97.9282 32.3061 97.8277 32.268 97.7098 32.268C97.5711 32.268 97.4498 32.2715 97.3458 32.2784C97.2418 32.2784 97.1378 32.2819 97.0338 32.2888C96.9367 32.2957 96.8327 32.3027 96.7218 32.3096C96.6178 32.3165 96.4965 32.32 96.3578 32.32C96.3439 31.9456 96.3266 31.5781 96.3058 31.2176C96.2919 30.8501 96.2711 30.4792 96.2434 30.1048C96.2365 30.0285 96.2295 29.928 96.2226 29.8032C96.2226 29.6784 96.2053 29.5848 96.1706 29.5224C96.0943 29.356 95.9591 29.2728 95.765 29.2728C95.6333 29.2728 95.5119 29.3213 95.401 29.4184C95.297 29.5155 95.245 29.6333 95.245 29.772C95.245 29.9037 95.2519 30.0355 95.2658 30.1672C95.2797 30.292 95.2935 30.4237 95.3074 30.5624C95.349 31.1517 95.3802 31.7515 95.401 32.3616C95.4357 33.2629 95.4495 34.1573 95.4426 35.0448C95.4357 35.9323 95.4357 36.8267 95.4426 37.728ZM91.241 35.804C91.1855 35.804 91.1093 35.804 91.0122 35.804C90.9221 35.7971 90.8285 35.7901 90.7314 35.7832C90.6343 35.7763 90.5407 35.7659 90.4506 35.752C90.3674 35.7312 90.3015 35.7069 90.253 35.6792C90.2391 35.4504 90.2287 35.2216 90.2218 34.9928C90.2218 34.764 90.2218 34.5352 90.2218 34.3064V33.5368C90.6794 33.5299 91.137 33.516 91.5946 33.4952C92.0522 33.4744 92.5133 33.464 92.9778 33.464C93.1303 33.464 93.2725 33.4259 93.4042 33.3496C93.5359 33.2733 93.6018 33.1451 93.6018 32.9648C93.6018 32.84 93.5567 32.7395 93.4666 32.6632C93.3834 32.5869 93.2829 32.5488 93.165 32.5488C92.7213 32.5488 92.2775 32.5592 91.8338 32.58C91.397 32.6008 90.9533 32.6112 90.5026 32.6112H90.2322C90.2322 32.2576 90.2322 31.9109 90.2322 31.5712C90.2322 31.2315 90.2357 30.8848 90.2426 30.5312H91.0642C91.2861 30.5312 91.5114 30.5312 91.7402 30.5312C91.969 30.5312 92.1943 30.5347 92.4162 30.5416C92.5133 30.5485 92.6034 30.5555 92.6866 30.5624C92.7767 30.5693 92.8703 30.5728 92.9674 30.5728C93.0991 30.5728 93.217 30.5243 93.321 30.4272C93.4319 30.3301 93.4874 30.2123 93.4874 30.0736C93.4874 29.9765 93.4666 29.9003 93.425 29.8448C93.3903 29.7893 93.3418 29.7477 93.2794 29.72C93.2239 29.6923 93.1581 29.6749 93.0818 29.668C93.0055 29.6611 92.9293 29.6541 92.853 29.6472C92.5687 29.6333 92.2845 29.6264 92.0002 29.6264C91.7229 29.6264 91.4421 29.6264 91.1578 29.6264H90.2114C90.1351 29.6264 90.0589 29.6264 89.9826 29.6264C89.9063 29.6195 89.8301 29.6229 89.7538 29.6368C89.7261 29.6437 89.6983 29.6507 89.6706 29.6576C89.6429 29.6576 89.6186 29.6645 89.5978 29.6784C89.4522 29.7547 89.3551 29.8656 89.3066 30.0112C89.2927 30.0528 89.2823 30.1083 89.2754 30.1776C89.2754 30.2469 89.2754 30.3197 89.2754 30.396C89.2754 30.4723 89.2754 30.5485 89.2754 30.6248C89.2823 30.6941 89.2858 30.7531 89.2858 30.8016C89.2858 31.3216 89.2823 31.8381 89.2754 32.3512C89.2685 32.8573 89.265 33.3669 89.265 33.88C89.265 34.1227 89.265 34.3688 89.265 34.6184C89.265 34.868 89.2685 35.1141 89.2754 35.3568C89.2754 35.3984 89.2754 35.4504 89.2754 35.5128C89.2754 35.5752 89.2754 35.6411 89.2754 35.7104C89.2823 35.7728 89.2893 35.8352 89.2962 35.8976C89.3031 35.9531 89.3135 36.0016 89.3274 36.0432C89.3829 36.2096 89.4799 36.3379 89.6186 36.428C89.7642 36.5181 89.9271 36.584 90.1074 36.6256C90.2877 36.6672 90.4714 36.6949 90.6586 36.7088C90.8458 36.7157 91.0122 36.7192 91.1578 36.7192C91.2687 36.7192 91.4525 36.7088 91.709 36.688C91.9725 36.6672 92.2429 36.6395 92.5202 36.6048C92.8045 36.5701 93.0679 36.532 93.3106 36.4904C93.5533 36.4488 93.7162 36.4037 93.7994 36.3552C93.8757 36.3067 93.9381 36.2477 93.9866 36.1784C94.0351 36.1021 94.0594 36.0189 94.0594 35.9288C94.0594 35.804 94.0143 35.7035 93.9242 35.6272C93.841 35.5509 93.7405 35.5128 93.6226 35.5128C93.5047 35.5128 93.3834 35.5301 93.2586 35.5648C93.1407 35.5995 93.0229 35.6272 92.905 35.648C92.6277 35.6896 92.3503 35.7277 92.073 35.7624C91.8026 35.7901 91.5253 35.804 91.241 35.804ZM105.569 31.8832V32.4136L105.6 33.4744V34.0048C105.6 34.1296 105.642 34.2301 105.725 34.3064C105.815 34.3827 105.919 34.4208 106.037 34.4208C106.21 34.4208 106.342 34.3619 106.432 34.244C106.522 34.1192 106.567 33.9771 106.567 33.8176C106.567 33.5472 106.56 33.2768 106.547 33.0064C106.54 32.7291 106.533 32.4517 106.526 32.1744V31.0824C106.526 30.8397 106.519 30.6005 106.505 30.3648C106.491 30.1221 106.47 29.8795 106.443 29.6368C106.429 29.4843 106.394 29.356 106.339 29.252C106.283 29.1411 106.165 29.0856 105.985 29.0856C105.853 29.0856 105.732 29.1341 105.621 29.2312C105.517 29.3283 105.465 29.4461 105.465 29.5848C105.465 29.7304 105.475 29.876 105.496 30.0216C105.517 30.1672 105.534 30.3128 105.548 30.4584C105.562 30.7011 105.569 30.9403 105.569 31.176C105.569 31.4048 105.569 31.6405 105.569 31.8832ZM98.9234 31.8832C98.9234 32.2299 98.9754 32.5453 99.0794 32.8296C99.1834 33.1069 99.3324 33.3461 99.5266 33.5472C99.7276 33.7483 99.9668 33.9043 100.244 34.0152C100.528 34.1261 100.844 34.1816 101.191 34.1816C101.399 34.1816 101.61 34.1504 101.825 34.088C102.04 34.0256 102.244 33.9389 102.439 33.828C102.633 33.7101 102.809 33.5715 102.969 33.412C103.128 33.2525 103.253 33.0792 103.343 32.892C103.42 32.7187 103.479 32.528 103.52 32.32C103.562 32.1051 103.583 31.904 103.583 31.7168C103.583 31.3424 103.524 31.0027 103.406 30.6976C103.295 30.3925 103.132 30.1325 102.917 29.9176C102.709 29.7027 102.452 29.5363 102.147 29.4184C101.849 29.3005 101.513 29.2416 101.139 29.2416C101.035 29.2416 100.913 29.2485 100.775 29.2624C100.643 29.2763 100.528 29.3005 100.431 29.3352C100.279 29.3837 100.133 29.4635 99.9946 29.5744C99.8559 29.6784 99.7242 29.7997 99.5994 29.9384C99.4815 30.0771 99.3775 30.2261 99.2874 30.3856C99.1972 30.5381 99.1279 30.6872 99.0794 30.8328C99.0239 31.0061 98.9823 31.1795 98.9546 31.3528C98.9338 31.5261 98.9234 31.7029 98.9234 31.8832ZM101.045 30.1568C101.558 30.1568 101.95 30.3059 102.22 30.604C102.491 30.8952 102.626 31.2904 102.626 31.7896C102.626 31.8936 102.612 32.0288 102.584 32.1952C102.556 32.3547 102.522 32.4795 102.48 32.5696C102.425 32.6736 102.352 32.7707 102.262 32.8608C102.172 32.944 102.071 33.0168 101.96 33.0792C101.856 33.1416 101.745 33.1901 101.627 33.2248C101.509 33.2595 101.395 33.2768 101.284 33.2768C100.82 33.2768 100.469 33.1416 100.234 32.8712C100.005 32.5939 99.8906 32.2333 99.8906 31.7896C99.8906 31.5123 99.9287 31.2557 100.005 31.02C100.081 30.7773 100.22 30.5555 100.421 30.3544C100.463 30.3197 100.501 30.2851 100.535 30.2504C100.577 30.2157 100.625 30.1915 100.681 30.1776C100.736 30.1637 100.795 30.1568 100.858 30.1568C100.927 30.1568 100.989 30.1568 101.045 30.1568ZM106.661 35.6688C106.661 35.5717 106.651 35.4747 106.63 35.3776C106.609 35.2736 106.571 35.18 106.515 35.0968C106.467 35.0136 106.401 34.9443 106.318 34.8888C106.241 34.8333 106.148 34.8056 106.037 34.8056C105.857 34.8056 105.68 34.8091 105.507 34.816C105.34 34.8229 105.167 34.8333 104.987 34.8472C104.425 34.8611 103.863 34.8784 103.302 34.8992C102.74 34.92 102.179 34.9304 101.617 34.9304H101.43L101.066 34.9096H100.879C100.747 34.9096 100.625 34.9581 100.515 35.0552C100.411 35.1523 100.359 35.2701 100.359 35.4088C100.359 35.6515 100.369 35.8941 100.39 36.1368C100.411 36.3795 100.428 36.6221 100.442 36.8648C100.449 36.9203 100.452 36.9931 100.452 37.0832C100.459 37.1733 100.463 37.2635 100.463 37.3536C100.469 37.4507 100.476 37.5443 100.483 37.6344C100.49 37.7245 100.501 37.7939 100.515 37.8424C100.542 37.9672 100.601 38.0747 100.691 38.1648C100.788 38.2619 100.899 38.3381 101.024 38.3936C101.149 38.4491 101.277 38.4907 101.409 38.5184C101.548 38.5461 101.676 38.56 101.794 38.56C102.445 38.56 103.097 38.5496 103.749 38.5288C104.401 38.508 105.056 38.4837 105.715 38.456C105.798 38.456 105.884 38.4525 105.975 38.4456C106.072 38.4387 106.158 38.4213 106.235 38.3936C106.318 38.3728 106.391 38.3312 106.453 38.2688C106.515 38.2133 106.56 38.1336 106.588 38.0296C106.616 37.9325 106.626 37.8285 106.619 37.7176C106.612 37.6136 106.609 37.5131 106.609 37.416C106.609 37.1248 106.616 36.8336 106.63 36.5424C106.651 36.2512 106.661 35.96 106.661 35.6688ZM105.642 37.5512C105.24 37.572 104.837 37.5859 104.435 37.5928C104.033 37.5997 103.628 37.6101 103.219 37.624C102.997 37.6309 102.771 37.6344 102.543 37.6344C102.321 37.6413 102.099 37.6448 101.877 37.6448C101.801 37.6448 101.728 37.6379 101.659 37.624C101.589 37.6101 101.523 37.5755 101.461 37.52C101.44 37.2357 101.419 36.9584 101.399 36.688C101.378 36.4107 101.36 36.1299 101.347 35.8456H101.523C101.766 35.8456 102.002 35.8421 102.231 35.8352C102.466 35.8283 102.702 35.8179 102.938 35.804C103.395 35.7901 103.853 35.7763 104.311 35.7624C104.775 35.7485 105.236 35.7347 105.694 35.7208V35.7728C105.694 35.8837 105.69 35.9947 105.683 36.1056C105.683 36.2165 105.68 36.3275 105.673 36.4384C105.659 36.6256 105.652 36.8128 105.652 37C105.652 37.1872 105.649 37.3709 105.642 37.5512Z" fill="#121212"/>
<rect x="160.341" y="105.727" width="92.4571" height="59.2099" rx="7.17069" transform="rotate(8.98637 160.341 105.727)" stroke="#121212" stroke-width="2.5"/>
<circle cx="88" cy="34" r="32.75" stroke="#121212" stroke-width="2.5"/>
<path d="M87.5 26C87.5 24.8 87.5 14.5 87.5 9.5" stroke="#121212" stroke-width="2.5" stroke-linecap="round" stroke-linejoin="round"/>
<path d="M104 55C102.982 54.0545 94.2424 45.9394 90 42" stroke="#121212" stroke-width="2.5" stroke-linecap="round" stroke-linejoin="round"/>
<path d="M0 328H375" stroke="#333333" stroke-width="2.5" stroke-linecap="round" stroke-linejoin="round"/>
<ellipse cx="182.998" cy="356.633" rx="38.6219" ry="11.4981" fill="#C4C4C4"/>
<path d="M210.885 199.797C210.885 203.808 208.094 207.668 203.083 210.596C198.102 213.505 191.139 215.345 183.38 215.345C175.622 215.345 168.659 213.505 163.678 210.596C158.667 207.668 155.875 203.808 155.875 199.797C155.875 195.787 158.667 191.926 163.678 188.999C168.659 186.09 175.622 184.25 183.38 184.25C191.139 184.25 198.102 186.09 203.083 188.999C208.094 191.926 210.885 195.787 210.885 199.797Z" fill="#FFD373" stroke="#121212" stroke-width="2.5"/>
<path d="M229.675 208.338C229.675 210.138 228.64 212.029 226.368 213.915C224.104 215.795 220.753 217.544 216.502 219.037C208.012 222.018 196.201 223.886 183.095 223.886C169.99 223.886 158.179 222.018 149.689 219.037C145.438 217.544 142.087 215.795 139.823 213.915C137.551 212.029 136.515 210.138 136.515 208.338C136.515 206.539 137.551 204.648 139.823 202.762C142.087 200.882 145.438 199.133 149.689 197.64C158.179 194.658 169.99 192.791 183.095 192.791C196.201 192.791 208.012 194.658 216.502 197.64C220.753 199.133 224.104 200.882 226.368 202.762C228.64 204.648 229.675 206.539 229.675 208.338Z" fill="#554338" stroke="#121212" stroke-width="2.5"/>
<path d="M252.755 252.561C252.755 266.565 245.104 279.343 232.536 288.665C219.967 297.986 202.545 303.789 183.247 303.789C163.949 303.789 146.527 297.986 133.959 288.665C121.39 279.343 113.74 266.565 113.74 252.561C113.74 238.557 121.39 225.778 133.959 216.457C146.527 207.135 163.949 201.332 183.247 201.332C202.545 201.332 219.967 207.135 232.536 216.457C245.104 225.778 252.755 238.557 252.755 252.561Z" fill="#AC7C60" stroke="#121212" stroke-width="2.5"/>
<path d="M226.37 245.635C214.854 248.262 165.391 246.729 142.098 245.635C145.197 248.645 157.813 254.994 183.485 256.307C209.156 257.621 222.772 249.739 226.37 245.635Z" fill="#554338"/>
<path d="M137.543 244.496C144.341 248.73 161.588 256.169 183.665 256.169C210.725 256.169 223.169 248.524 228.932 244.496" stroke="black" stroke-width="2.5" stroke-linecap="round" stroke-linejoin="round"/>
<path d="M132.418 243.441C160.889 247.912 208.719 249.62 234.342 243.441" stroke="black" stroke-width="2.5" stroke-linecap="round" stroke-linejoin="round"/>
<path d="M114.839 262.801C109.145 268.685 99.4655 284.439 106.298 300.382" stroke="black" stroke-width="2.5" stroke-linecap="round"/>
<path d="M159.75 300.582C155.764 310.831 150.696 336.056 162.312 354.96L156.618 356.384" stroke="#121212" stroke-width="2.5" stroke-linecap="round" stroke-linejoin="round"/>
<path d="M206.726 300.582C210.712 310.831 215.779 336.056 204.164 354.96L209.858 356.384" stroke="black" stroke-width="2.5" stroke-linecap="round" stroke-linejoin="round"/>
<path d="M179.679 232.823C179.679 230.779 178.659 229.122 177.401 229.122C176.144 229.122 175.124 230.779 175.124 232.823C175.124 234.867 176.144 236.524 177.401 236.524C178.659 236.524 179.679 234.867 179.679 232.823Z" fill="#121212"/>
<path d="M191.067 232.823C191.067 230.779 190.047 229.122 188.789 229.122C187.532 229.122 186.512 230.779 186.512 232.823C186.512 234.867 187.532 236.524 188.789 236.524C190.047 236.524 191.067 234.867 191.067 232.823Z" fill="#121212"/>
<path d="M252.215 247C266.068 225.098 271.161 178.212 239 164" stroke="#121212" stroke-width="2.5" stroke-linecap="round" stroke-linejoin="round"/>
<path d="M99.5 56L104 55V50.5" stroke="black" stroke-width="2.5" stroke-linecap="round" stroke-linejoin="round"/>
<path d="M190.717 147.185C190.761 147.294 190.783 147.4 190.784 147.502C190.783 147.62 190.769 147.728 190.741 147.827C190.7 148.027 190.597 148.196 190.431 148.336C190.315 148.438 190.178 148.529 190.02 148.611C189.895 148.668 189.732 148.683 189.53 148.656C189.372 148.635 189.231 148.587 189.109 148.512C188.946 148.417 188.807 148.303 188.692 148.17C188.545 148.062 188.408 147.934 188.282 147.785L187.745 147.185C187.469 147.383 187.169 147.542 186.845 147.66C186.536 147.78 186.216 147.869 185.885 147.928C185.405 148.011 184.918 148.027 184.426 147.976C183.947 147.941 183.477 147.834 183.016 147.656C182.556 147.477 182.118 147.235 181.704 146.931C181.304 146.628 180.95 146.258 180.641 145.82C180.268 145.316 179.983 144.757 179.786 144.144C179.591 143.516 179.457 142.874 179.382 142.219C179.308 141.563 179.293 140.908 179.336 140.254C179.379 139.599 179.461 138.986 179.581 138.415C179.698 137.873 179.863 137.294 180.077 136.677C180.293 136.045 180.571 135.451 180.909 134.895C181.262 134.34 181.671 133.859 182.136 133.451C182.615 133.046 183.162 132.796 183.776 132.701C185.263 132.445 186.485 132.527 187.442 132.948C188.4 133.354 189.148 133.96 189.686 134.766C190.114 135.41 190.42 136.14 190.605 136.957C190.804 137.776 190.897 138.618 190.885 139.482C190.887 140.348 190.801 141.209 190.628 142.067C190.457 142.91 190.222 143.686 189.922 144.394L189.394 145.38C189.584 145.611 189.761 145.825 189.925 146.023C190.106 146.209 190.22 146.341 190.268 146.421C190.356 146.535 190.435 146.656 190.506 146.783C190.594 146.897 190.664 147.031 190.717 147.185ZM182.625 143.818C182.983 144.438 183.457 144.846 184.047 145.042C184.653 145.225 185.244 145.194 185.82 144.948C185.645 144.719 185.482 144.514 185.33 144.332C185.178 144.151 185.084 144.028 185.049 143.965C184.861 143.72 184.73 143.438 184.655 143.12C184.571 142.874 184.563 142.653 184.633 142.457C184.707 142.232 184.827 142.049 184.992 141.91C185.072 141.862 185.144 141.82 185.207 141.785C185.273 141.735 185.344 141.693 185.422 141.659C185.5 141.626 185.583 141.607 185.672 141.604C185.774 141.603 185.876 141.61 185.977 141.623C186.121 141.642 186.259 141.712 186.39 141.832C186.51 141.922 186.649 142.035 186.806 142.174C186.869 142.256 186.931 142.337 186.994 142.419C187.073 142.488 187.143 142.564 187.206 142.645C187.256 142.711 187.306 142.776 187.356 142.841C187.408 142.892 187.466 142.951 187.53 143.019C187.694 142.556 187.834 142.061 187.948 141.534C188.077 141.008 188.155 140.475 188.183 139.936C188.213 139.382 188.183 138.836 188.094 138.295C188.006 137.741 187.849 137.214 187.622 136.714C187.349 136.12 186.958 135.693 186.45 135.435C185.943 135.162 185.283 135.162 184.469 135.435C184.145 135.553 183.855 135.749 183.598 136.023C183.358 136.285 183.14 136.593 182.946 136.949C182.754 137.29 182.589 137.65 182.45 138.027C182.326 138.407 182.234 138.769 182.174 139.113C182.109 139.486 182.056 139.883 182.015 140.303C181.99 140.71 181.986 141.128 182.002 141.556C182.035 141.971 182.098 142.375 182.193 142.77C182.289 143.149 182.433 143.499 182.625 143.818ZM196.702 150.096C196.547 150.046 196.392 149.996 196.238 149.946C196.081 149.911 195.926 149.861 195.773 149.796C195.212 149.604 194.685 149.321 194.192 148.947C193.713 148.575 193.381 148.091 193.197 147.494C193.028 147.002 192.935 146.483 192.92 145.938C192.919 145.395 192.974 144.874 193.084 144.375C193.18 143.874 193.349 143.376 193.592 142.88C193.848 142.386 194.181 141.983 194.589 141.67C194.622 141.645 194.686 141.603 194.782 141.542C194.88 141.467 194.986 141.393 195.098 141.32C195.211 141.247 195.314 141.187 195.408 141.141C195.504 141.081 195.559 141.058 195.571 141.075C195.331 140.676 195.153 140.249 195.037 139.793C194.937 139.339 194.894 138.886 194.911 138.433C194.929 137.966 194.989 137.512 195.092 137.071C195.211 136.617 195.37 136.198 195.568 135.814C195.889 135.167 196.321 134.674 196.865 134.336C197.409 133.997 198.001 133.797 198.64 133.736C199.281 133.66 199.928 133.709 200.579 133.884C201.233 134.045 201.821 134.314 202.343 134.692C202.949 135.095 203.354 135.634 203.558 136.306C203.778 136.967 203.871 137.647 203.837 138.346C203.817 138.711 203.776 139.079 203.711 139.452C203.661 139.827 203.569 140.189 203.434 140.538C203.3 140.887 203.118 141.207 202.888 141.5C202.658 141.792 202.362 142.031 202 142.218C202.114 142.35 202.226 142.505 202.335 142.681C202.46 142.844 202.55 142.988 202.607 143.113C202.739 143.336 202.855 143.623 202.955 143.974L203.295 145.054C203.284 145.023 203.305 144.974 203.358 144.908C203.428 144.829 203.504 144.751 203.588 144.674C203.671 144.598 203.747 144.527 203.814 144.463C203.898 144.386 203.948 144.341 203.964 144.328C204.1 144.185 204.259 144.038 204.441 143.886C204.623 143.734 204.809 143.605 204.999 143.498C205.206 143.379 205.414 143.304 205.623 143.273C205.833 143.242 206.042 143.27 206.25 143.357C206.445 143.441 206.561 143.559 206.599 143.711C206.654 143.851 206.655 144.012 206.601 144.196C206.549 144.365 206.459 144.544 206.331 144.732C206.22 144.908 206.094 145.082 205.954 145.254C205.83 145.413 205.708 145.559 205.587 145.689C205.467 145.82 205.374 145.918 205.306 145.982C205.15 146.167 204.994 146.344 204.839 146.514C204.701 146.672 204.554 146.836 204.399 147.006C204.381 147.033 204.306 147.103 204.173 147.218C204.057 147.32 204.004 147.386 204.014 147.417C204.078 147.601 204.179 147.886 204.319 148.272C204.474 148.645 204.585 149.026 204.65 149.416C204.716 149.807 204.706 150.158 204.62 150.469C204.533 150.795 204.295 150.983 203.907 151.034C203.623 151.07 203.347 150.996 203.078 150.814C202.823 150.633 202.622 150.43 202.476 150.205C202.451 150.173 202.403 150.093 202.332 149.966C202.275 149.841 202.213 149.701 202.146 149.545C202.091 149.406 202.044 149.267 202.003 149.13C201.977 148.994 201.983 148.899 202.019 148.846C201.701 149.141 201.373 149.398 201.036 149.617C200.711 149.853 200.343 150.024 199.933 150.13C199.401 150.265 198.866 150.318 198.327 150.291C197.786 150.277 197.244 150.212 196.702 150.096ZM198.546 147.987C198.766 147.987 199.004 147.96 199.261 147.906C199.52 147.837 199.774 147.747 200.024 147.633C200.274 147.52 200.497 147.388 200.693 147.238C200.905 147.076 201.069 146.892 201.184 146.687C201.227 146.59 201.235 146.474 201.209 146.338C201.185 146.188 201.146 146.037 201.093 145.883C201.04 145.729 200.987 145.582 200.932 145.443C200.877 145.304 200.834 145.188 200.802 145.096C200.723 144.806 200.608 144.512 200.457 144.213C200.321 143.916 200.14 143.679 199.914 143.503C199.423 143.114 198.877 142.917 198.276 142.91C197.706 142.893 197.18 143.043 196.697 143.36C196.229 143.679 195.932 144.146 195.806 144.76C195.733 145.088 195.693 145.442 195.687 145.823C195.682 146.189 195.756 146.514 195.909 146.799C196.137 147.181 196.508 147.48 197.022 147.695C197.538 147.896 198.046 147.993 198.546 147.987ZM199.488 140.584C199.968 140.619 200.336 140.499 200.593 140.225C200.849 139.951 201.026 139.615 201.123 139.217C201.195 139.007 201.252 138.802 201.293 138.602C201.337 138.387 201.357 138.177 201.355 137.972C201.353 137.766 201.313 137.57 201.236 137.383C201.16 137.183 201.023 136.996 200.826 136.823C200.552 136.566 200.215 136.396 199.815 136.314C199.416 136.231 199.035 136.276 198.675 136.448C198.38 136.57 198.152 136.738 197.992 136.951C197.833 137.15 197.72 137.392 197.653 137.676C197.563 138.017 197.524 138.364 197.536 138.717C197.564 139.059 197.647 139.37 197.786 139.653C197.926 139.921 198.131 140.147 198.4 140.329C198.685 140.499 199.048 140.584 199.488 140.584ZM221.489 151.352C221.492 151.441 221.488 151.521 221.479 151.593C221.481 151.682 221.476 151.776 221.463 151.877C221.44 152.05 221.368 152.202 221.248 152.333C221.195 152.399 221.129 152.456 221.049 152.504C220.967 152.567 220.873 152.613 220.766 152.643C220.379 152.797 219.987 152.818 219.591 152.706C219.397 152.622 219.229 152.504 219.088 152.353C219.063 152.32 219.044 152.296 219.032 152.28C219.017 152.278 219.005 152.261 218.994 152.231C218.982 152.214 218.97 152.191 218.96 152.16C218.947 152.144 218.928 152.126 218.901 152.108C218.838 152.026 218.79 151.947 218.756 151.869C218.721 151.805 218.686 151.735 218.653 151.657C218.633 151.581 218.607 151.504 218.573 151.426C218.552 151.365 218.525 151.295 218.491 151.217C218.47 151.156 218.449 151.094 218.428 151.032C218.405 150.985 218.39 150.932 218.383 150.872C218.343 150.735 218.322 150.615 218.321 150.512L218.008 149.392C217.013 149.259 216.017 149.134 215.021 149.016C214.04 148.885 213.054 148.746 212.061 148.599L211.465 149.598C211.429 149.652 211.399 149.707 211.377 149.763C211.37 149.82 211.347 149.876 211.311 149.93C211.274 149.984 211.239 150.03 211.204 150.07C211.182 150.126 211.153 150.18 211.116 150.234C211.063 150.3 211.012 150.36 210.961 150.412C210.922 150.48 210.877 150.547 210.824 150.613C210.785 150.682 210.741 150.742 210.69 150.794C210.637 150.86 210.569 150.924 210.488 150.987C210.457 150.997 210.433 151.009 210.417 151.021C210.399 151.048 210.382 151.068 210.365 151.081C210.347 151.107 210.331 151.12 210.316 151.118C210.3 151.131 210.275 151.149 210.243 151.174C210.067 151.283 209.874 151.353 209.665 151.383C209.253 151.387 208.881 151.264 208.547 151.014C208.452 150.958 208.373 150.888 208.311 150.807C208.246 150.739 208.197 150.667 208.164 150.589C208.082 150.431 208.053 150.266 208.076 150.093C208.089 149.992 208.102 149.898 208.113 149.812C208.137 149.742 208.162 149.664 208.188 149.58C208.234 149.454 208.288 149.329 208.348 149.205C208.409 149.081 208.439 149.019 208.439 149.019L214.413 138.545L214.589 138.217C214.629 138.134 214.676 138.06 214.729 137.993C214.782 137.927 214.829 137.845 214.871 137.748C214.969 137.57 215.07 137.415 215.176 137.282C215.23 137.202 215.291 137.129 215.359 137.065C215.426 137 215.493 136.936 215.561 136.871C215.662 136.768 215.798 136.69 215.966 136.639C216.177 136.594 216.413 136.589 216.672 136.623C216.946 136.66 217.179 136.728 217.371 136.827C217.52 136.92 217.631 137.03 217.702 137.157C217.785 137.3 217.873 137.466 217.966 137.654C218.033 137.81 218.09 137.986 218.137 138.183C218.153 138.288 218.177 138.379 218.211 138.457C218.244 138.535 218.27 138.619 218.287 138.71L218.371 139.073L221.393 150.745C221.393 150.745 221.406 150.813 221.432 150.949C221.458 151.084 221.477 151.219 221.489 151.352ZM217.069 145.371C216.937 144.928 216.801 144.469 216.658 143.995C216.53 143.523 216.389 143.042 216.234 142.552C216.194 142.415 216.153 142.277 216.113 142.14C216.075 141.988 216.035 141.843 215.995 141.706C215.934 141.83 215.866 141.96 215.789 142.096C215.714 142.219 215.639 142.341 215.564 142.463C215.286 142.895 215.016 143.322 214.755 143.742C214.508 144.164 214.263 144.571 214.02 144.964L213.504 145.864L217.332 146.374L217.069 145.371Z" fill="black"/>
</svg>
