<svg width="51" height="47" viewBox="0 0 51 47" fill="none" xmlns="http://www.w3.org/2000/svg">
<path d="M22.328 16L20.328 18H16.5V30H32.5V18H28.672L26.672 16H22.328ZM21.5 14H27.5L29.5 16H33.5C33.7652 16 34.0196 16.1054 34.2071 16.2929C34.3946 16.4804 34.5 16.7348 34.5 17V31C34.5 31.2652 34.3946 31.5196 34.2071 31.7071C34.0196 31.8946 33.7652 32 33.5 32H15.5C15.2348 32 14.9804 31.8946 14.7929 31.7071C14.6054 31.5196 14.5 31.2652 14.5 31V17C14.5 16.7348 14.6054 16.4804 14.7929 16.2929C14.9804 16.1054 15.2348 16 15.5 16H19.5L21.5 14ZM24.5 29C23.0413 29 21.6424 28.4205 20.6109 27.3891C19.5795 26.3576 19 24.9587 19 23.5C19 22.0413 19.5795 20.6424 20.6109 19.6109C21.6424 18.5795 23.0413 18 24.5 18C25.9587 18 27.3576 18.5795 28.3891 19.6109C29.4205 20.6424 30 22.0413 30 23.5C30 24.9587 29.4205 26.3576 28.3891 27.3891C27.3576 28.4205 25.9587 29 24.5 29ZM24.5 27C25.4283 27 26.3185 26.6313 26.9749 25.9749C27.6313 25.3185 28 24.4283 28 23.5C28 22.5717 27.6313 21.6815 26.9749 21.0251C26.3185 20.3687 25.4283 20 24.5 20C23.5717 20 22.6815 20.3687 22.0251 21.0251C21.3687 21.6815 21 22.5717 21 23.5C21 24.4283 21.3687 25.3185 22.0251 25.9749C22.6815 26.6313 23.5717 27 24.5 27Z" fill="#333333"/>
</svg>
